SplineFontDB: 3.2
FontName: Sudoers-Regular
FullName: Sudoers Regular
FamilyName: Sudoers
Weight: Regular

StartChar: .notdef
Encoding: 1114112 -1 0
Width: 448
Flags: W
LayerCount: 2
UndoRedoHistory
Layer: 1
Undoes
EndUndoes
Redoes
RedoOperation
Index: 0
Type: 3
WasModified: 0
WasOrder2: 1
Layer: 2
EndRedoOperation
EndRedoes
EndUndoRedoHistory
Fore
SplineSet
34 -30 m 1,0,-1
 34 670 l 1,1,-1
 414 670 l 1,2,-1
 414 -30 l 1,3,-1
 34 -30 l 1,0,-1
93 581 m 1,4,5
 190 576 190 576 239 562 c 128,-1,6
 288 548 288 548 302 530 c 128,-1,7
 316 512 316 512 316 488 c 0,8,9
 316 462 316 462 305 444 c 128,-1,10
 294 426 294 426 269 398 c 0,11,12
 244 371 244 371 227.5 348 c 128,-1,13
 211 325 211 325 198.5 287 c 128,-1,14
 186 249 186 249 185 195 c 1,15,-1
 255 192 l 1,16,17
 256 256 256 256 275 294 c 128,-1,18
 294 332 294 332 330 371 c 0,19,20
 360 405 360 405 374 430 c 128,-1,21
 388 455 388 455 388 494 c 0,22,23
 388 566 388 566 322.5 603 c 128,-1,24
 257 640 257 640 96 645 c 1,25,-1
 93 581 l 1,4,5
270 7 m 128,-1,27
 288 24 288 24 288 54 c 256,28,29
 288 84 288 84 269.5 101 c 128,-1,30
 251 118 251 118 224 118 c 256,31,32
 197 118 197 118 178.5 101 c 128,-1,33
 160 84 160 84 160 54 c 256,34,35
 160 24 160 24 178 7 c 128,-1,36
 196 -10 196 -10 224 -10 c 256,37,26
 252 -10 252 -10 270 7 c 128,-1,27
EndSplineSet
EndChar

StartChar: A
Encoding: 65 65 3
Width: 448
GlyphClass: 2
Flags: W
LayerCount: 2
UndoRedoHistory
Layer: 1
Undoes
EndUndoes
Redoes
RedoOperation
Index: 0
Type: 3
WasModified: 0
WasOrder2: 1
Layer: 2
EndRedoOperation
EndRedoes
EndUndoRedoHistory
Fore
SplineSet
338 0 m 1,0,1
 330 92 330 92 315 192 c 1,2,-1
 133 192 l 1,3,4
 118 92 118 92 110 0 c 1,5,-1
 35 0 l 1,6,7
 50 187 50 187 90 353.5 c 128,-1,8
 130 520 130 520 192 643 c 1,9,-1
 256 643 l 1,10,11
 318 520 318 520 358 353.5 c 128,-1,12
 398 187 398 187 413 0 c 1,13,-1
 338 0 l 1,0,1
304 256 m 1,14,15
 272 429 272 429 224 551 c 1,16,17
 176 429 176 429 144 256 c 1,18,-1
 304 256 l 1,14,15
EndSplineSet
Substitution2: "'sups' Superscript in Latin lookup 9 subtable" A.sups
Substitution2: "'aalt' Access All Alternates in Latin lookup 0 subtable" A.sups
EndChar

StartChar: Aogonek
Encoding: 260 260 10
Width: 448
GlyphClass: 2
Flags: W
LayerCount: 2
UndoRedoHistory
Layer: 1
Undoes
EndUndoes
Redoes
RedoOperation
Index: 0
Type: 3
WasModified: 0
WasOrder2: 1
Layer: 2
EndRedoOperation
EndRedoes
EndUndoRedoHistory
Fore
SplineSet
430 -181 m 1,0,1
 402 -197 402 -197 366 -197 c 0,2,3
 325 -197 325 -197 303.5 -176 c 128,-1,4
 282 -155 282 -155 282 -118 c 0,5,6
 282 -58 282 -58 344 0 c 1,7,-1
 338 0 l 1,8,9
 330 92 330 92 315 192 c 1,10,-1
 133 192 l 1,11,12
 118 92 118 92 110 0 c 1,13,-1
 35 0 l 1,14,15
 50 187 50 187 90 353.5 c 128,-1,16
 130 520 130 520 192 643 c 1,17,-1
 256 643 l 1,18,19
 318 520 318 520 358 353.5 c 128,-1,20
 398 187 398 187 413 0 c 1,21,22
 382 -34 382 -34 367 -59.5 c 128,-1,23
 352 -85 352 -85 352 -108 c 0,24,25
 352 -136 352 -136 380 -136 c 0,26,27
 395 -136 395 -136 413 -128 c 1,28,-1
 430 -181 l 1,0,1
304 256 m 1,29,30
 272 429 272 429 224 551 c 1,31,32
 176 429 176 429 144 256 c 1,33,-1
 304 256 l 1,29,30
EndSplineSet
EndChar

StartChar: Aringacute
Encoding: 506 506 12
Width: 448
GlyphClass: 2
Flags: W
LayerCount: 2
UndoRedoHistory
Layer: 1
Undoes
EndUndoes
Redoes
RedoOperation
Index: 0
Type: 3
WasModified: 0
WasOrder2: 1
Layer: 2
EndRedoOperation
EndRedoes
EndUndoRedoHistory
Fore
SplineSet
338 0 m 1,0,1
 330 92 330 92 315 192 c 1,2,-1
 133 192 l 1,3,4
 118 92 118 92 110 0 c 1,5,-1
 35 0 l 1,6,7
 49 170 49 170 84 325 c 128,-1,8
 119 480 119 480 172 601 c 1,9,10
 148 615 148 615 134.5 638.5 c 128,-1,11
 121 662 121 662 121 690 c 0,12,13
 121 727 121 727 144 755 c 128,-1,14
 167 783 167 783 204 790 c 1,15,-1
 240 896 l 1,16,-1
 340 896 l 1,17,-1
 270 782 l 1,18,19
 296 769 296 769 311.5 744.5 c 128,-1,20
 327 720 327 720 327 690 c 0,21,22
 327 662 327 662 313.5 638.5 c 128,-1,23
 300 615 300 615 276 601 c 1,24,25
 329 480 329 480 364 325 c 128,-1,26
 399 170 399 170 413 0 c 1,27,-1
 338 0 l 1,0,1
192.5 722.5 m 128,-1,29
 180 709 180 709 180 690 c 256,30,31
 180 671 180 671 192.5 657.5 c 128,-1,32
 205 644 205 644 224 644 c 256,33,34
 243 644 243 644 255.5 657.5 c 128,-1,35
 268 671 268 671 268 690 c 256,36,37
 268 709 268 709 255.5 722.5 c 128,-1,38
 243 736 243 736 224 736 c 256,39,28
 205 736 205 736 192.5 722.5 c 128,-1,29
304 256 m 1,40,41
 272 429 272 429 224 551 c 1,42,43
 176 429 176 429 144 256 c 1,44,-1
 304 256 l 1,40,41
EndSplineSet
EndChar

StartChar: AE
Encoding: 198 198 14
Width: 448
GlyphClass: 2
Flags: W
LayerCount: 2
UndoRedoHistory
Layer: 1
Undoes
EndUndoes
Redoes
RedoOperation
Index: 0
Type: 3
WasModified: 0
WasOrder2: 1
Layer: 2
EndRedoOperation
EndRedoes
EndUndoRedoHistory
Fore
SplineSet
271 64 m 1,0,-1
 458 64 l 1,1,-1
 458 0 l 1,2,-1
 199 0 l 1,3,-1
 199 192 l 1,4,-1
 79 192 l 1,5,6
 64 92 64 92 56 0 c 1,7,-1
 -18 0 l 1,8,9
 -3 186 -3 186 36.5 352 c 128,-1,10
 76 518 76 518 136 640 c 1,11,-1
 448 640 l 1,12,-1
 448 576 l 1,13,-1
 271 576 l 1,14,-1
 271 320 l 1,15,-1
 394 320 l 1,16,-1
 394 256 l 1,17,-1
 271 256 l 1,18,-1
 271 64 l 1,0,-1
199 256 m 1,19,-1
 199 576 l 1,20,-1
 181 576 l 1,21,22
 125 449 125 449 90 256 c 1,23,-1
 199 256 l 1,19,-1
EndSplineSet
EndChar

StartChar: B
Encoding: 66 66 16
Width: 448
Flags: W
LayerCount: 2
UndoRedoHistory
Layer: 1
Undoes
EndUndoes
Redoes
RedoOperation
Index: 0
Type: 3
WasModified: 0
WasOrder2: 1
Layer: 2
EndRedoOperation
EndRedoes
EndUndoRedoHistory
Fore
SplineSet
382.5 260.5 m 128,-1,1
 411 224 411 224 411 168 c 0,2,3
 411 88 411 88 357 44 c 128,-1,4
 303 0 303 0 212 0 c 2,5,-1
 60 0 l 1,6,-1
 60 640 l 1,7,-1
 192 640 l 2,8,9
 286 640 286 640 338 598.5 c 128,-1,10
 390 557 390 557 390 476 c 0,11,12
 390 387 390 387 304 312 c 1,13,0
 354 297 354 297 382.5 260.5 c 128,-1,1
132 576 m 1,14,-1
 132 336 l 1,15,-1
 242 336 l 1,16,17
 276 361 276 361 294 399 c 128,-1,18
 312 437 312 437 312 476 c 0,19,20
 312 527 312 527 283 551.5 c 128,-1,21
 254 576 254 576 184 576 c 2,22,-1
 132 576 l 1,14,-1
202 64 m 2,23,24
 275 64 275 64 305 90 c 128,-1,25
 335 116 335 116 335 170 c 0,26,27
 335 219 335 219 304 245.5 c 128,-1,28
 273 272 273 272 202 272 c 2,29,-1
 132 272 l 1,30,-1
 132 64 l 1,31,-1
 202 64 l 2,23,24
EndSplineSet
Substitution2: "'sups' Superscript in Latin lookup 9 subtable" B.sups
Substitution2: "'aalt' Access All Alternates in Latin lookup 0 subtable" B.sups
EndChar

StartChar: C
Encoding: 67 67 17
Width: 448
GlyphClass: 2
Flags: W
LayerCount: 2
UndoRedoHistory
Layer: 1
Undoes
EndUndoes
Redoes
RedoOperation
Index: 0
Type: 3
WasModified: 0
WasOrder2: 1
Layer: 2
EndRedoOperation
EndRedoes
EndUndoRedoHistory
Fore
SplineSet
148.5 23 m 128,-1,1
 102 55 102 55 81 126 c 128,-1,2
 60 197 60 197 60 319 c 256,3,4
 60 441 60 441 81 512 c 128,-1,5
 102 583 102 583 148.5 615 c 128,-1,6
 195 647 195 647 274 647 c 0,7,8
 328 647 328 647 378 635 c 5,9,-1
 364 574 l 5,10,11
 320 583 320 583 280 583 c 0,12,13
 216 583 216 583 186 557 c 128,-1,14
 156 531 156 531 147 478 c 128,-1,15
 138 425 138 425 138 319 c 256,16,17
 138 213 138 213 147 160 c 128,-1,18
 156 107 156 107 186 81 c 128,-1,19
 216 55 216 55 280 55 c 0,20,21
 325 55 325 55 370 66 c 1,22,-1
 384 5 l 1,23,24
 333 -9 333 -9 274 -9 c 0,25,0
 195 -9 195 -9 148.5 23 c 128,-1,1
EndSplineSet
Substitution2: "'sups' Superscript in Latin lookup 9 subtable" C.sups
Substitution2: "'aalt' Access All Alternates in Latin lookup 0 subtable" C.sups
EndChar

StartChar: Ccedilla
Encoding: 199 199 20
Width: 448
GlyphClass: 2
Flags: W
LayerCount: 2
UndoRedoHistory
Layer: 1
Undoes
EndUndoes
Redoes
RedoOperation
Index: 0
Type: 3
WasModified: 0
WasOrder2: 1
Layer: 2
EndRedoOperation
EndRedoes
EndUndoRedoHistory
Fore
SplineSet
384 5 m 1,0,1
 354 -3 354 -3 322 -6 c 1,2,3
 319 -93 319 -93 278 -142.5 c 128,-1,4
 237 -192 237 -192 128 -192 c 1,5,-1
 126 -128 l 1,6,7
 174 -126 174 -126 200.5 -115 c 128,-1,8
 227 -104 227 -104 239.5 -79 c 128,-1,9
 252 -54 252 -54 254 -8 c 1,10,11
 183 -4 183 -4 140.5 29.5 c 128,-1,12
 98 63 98 63 79 133 c 128,-1,13
 60 203 60 203 60 319 c 0,14,15
 60 441 60 441 81 512 c 128,-1,16
 102 583 102 583 148.5 615 c 128,-1,17
 195 647 195 647 274 647 c 0,18,19
 328 647 328 647 378 635 c 1,20,-1
 364 574 l 1,21,22
 320 583 320 583 280 583 c 0,23,24
 216 583 216 583 186 557 c 128,-1,25
 156 531 156 531 147 478 c 128,-1,26
 138 425 138 425 138 319 c 256,27,28
 138 213 138 213 147 160 c 128,-1,29
 156 107 156 107 186 81 c 128,-1,30
 216 55 216 55 280 55 c 0,31,32
 325 55 325 55 370 66 c 1,33,-1
 384 5 l 1,0,1
EndSplineSet
EndChar

StartChar: D
Encoding: 68 68 23
Width: 448
GlyphClass: 2
Flags: W
LayerCount: 2
UndoRedoHistory
Layer: 1
Undoes
EndUndoes
Redoes
RedoOperation
Index: 0
Type: 3
WasModified: 0
WasOrder2: 1
Layer: 2
EndRedoOperation
EndRedoes
EndUndoRedoHistory
Fore
SplineSet
180 640 m 2,0,1
 257 640 257 640 304 607 c 128,-1,2
 351 574 351 574 372.5 503.5 c 128,-1,3
 394 433 394 433 394 317 c 256,4,5
 394 201 394 201 372.5 132 c 128,-1,6
 351 63 351 63 304.5 31.5 c 128,-1,7
 258 0 258 0 181 0 c 2,8,-1
 60 0 l 1,9,-1
 60 640 l 1,10,-1
 180 640 l 2,0,1
174 64 m 2,11,12
 237 64 237 64 267.5 89.5 c 128,-1,13
 298 115 298 115 307 166.5 c 128,-1,14
 316 218 316 218 316 317 c 0,15,16
 316 418 316 418 306.5 471 c 128,-1,17
 297 524 297 524 266.5 550 c 128,-1,18
 236 576 236 576 174 576 c 2,19,-1
 132 576 l 1,20,-1
 132 64 l 1,21,-1
 174 64 l 2,11,12
EndSplineSet
Substitution2: "'sups' Superscript in Latin lookup 9 subtable" D.sups
Substitution2: "'aalt' Access All Alternates in Latin lookup 0 subtable" D.sups
EndChar

StartChar: Eth
Encoding: 208 208 24
Width: 448
GlyphClass: 2
Flags: W
LayerCount: 2
UndoRedoHistory
Layer: 1
Undoes
EndUndoes
Redoes
RedoOperation
Index: 0
Type: 3
WasModified: 0
WasOrder2: 1
Layer: 2
EndRedoOperation
EndRedoes
EndUndoRedoHistory
Fore
SplineSet
180 640 m 2,0,1
 257 640 257 640 304 607 c 128,-1,2
 351 574 351 574 372.5 503.5 c 128,-1,3
 394 433 394 433 394 317 c 256,4,5
 394 201 394 201 372.5 132 c 128,-1,6
 351 63 351 63 304.5 31.5 c 128,-1,7
 258 0 258 0 181 0 c 2,8,-1
 60 0 l 1,9,-1
 60 256 l 1,10,-1
 5 256 l 1,11,-1
 5 320 l 1,12,-1
 60 320 l 1,13,-1
 60 640 l 1,14,-1
 180 640 l 2,0,1
174 64 m 2,15,16
 237 64 237 64 267.5 89.5 c 128,-1,17
 298 115 298 115 307 166.5 c 128,-1,18
 316 218 316 218 316 317 c 0,19,20
 316 418 316 418 306.5 471 c 128,-1,21
 297 524 297 524 266.5 550 c 128,-1,22
 236 576 236 576 174 576 c 2,23,-1
 132 576 l 1,24,-1
 132 320 l 1,25,-1
 236 320 l 1,26,-1
 236 256 l 1,27,-1
 132 256 l 1,28,-1
 132 64 l 1,29,-1
 174 64 l 2,15,16
EndSplineSet
EndChar

StartChar: E
Encoding: 69 69 27
Width: 448
GlyphClass: 2
Flags: W
LayerCount: 2
UndoRedoHistory
Layer: 1
Undoes
EndUndoes
Redoes
RedoOperation
Index: 0
Type: 3
WasModified: 0
WasOrder2: 1
Layer: 2
EndRedoOperation
EndRedoes
EndUndoRedoHistory
Fore
SplineSet
384 0 m 1,0,-1
 60 0 l 1,1,-1
 60 640 l 1,2,-1
 374 640 l 1,3,-1
 374 576 l 1,4,-1
 132 576 l 1,5,-1
 132 320 l 1,6,-1
 320 320 l 1,7,-1
 320 256 l 1,8,-1
 132 256 l 1,9,-1
 132 64 l 1,10,-1
 384 64 l 1,11,-1
 384 0 l 1,0,-1
EndSplineSet
Substitution2: "'sups' Superscript in Latin lookup 9 subtable" E.sups
Substitution2: "'aalt' Access All Alternates in Latin lookup 0 subtable" E.sups
EndChar

StartChar: Eogonek
Encoding: 280 280 36
Width: 448
GlyphClass: 2
Flags: W
LayerCount: 2
UndoRedoHistory
Layer: 1
Undoes
EndUndoes
Redoes
RedoOperation
Index: 0
Type: 3
WasModified: 0
WasOrder2: 1
Layer: 2
EndRedoOperation
EndRedoes
EndUndoRedoHistory
Fore
SplineSet
401 -181 m 1,0,1
 373 -197 373 -197 337 -197 c 0,2,3
 296 -197 296 -197 274.5 -176 c 128,-1,4
 253 -155 253 -155 253 -118 c 0,5,6
 253 -58 253 -58 315 0 c 1,7,-1
 60 0 l 1,8,-1
 60 640 l 1,9,-1
 374 640 l 1,10,-1
 374 576 l 1,11,-1
 132 576 l 1,12,-1
 132 320 l 1,13,-1
 320 320 l 1,14,-1
 320 256 l 1,15,-1
 132 256 l 1,16,-1
 132 64 l 1,17,-1
 384 64 l 1,18,-1
 384 0 l 1,19,20
 353 -34 353 -34 338 -59.5 c 128,-1,21
 323 -85 323 -85 323 -108 c 0,22,23
 323 -136 323 -136 351 -136 c 0,24,25
 366 -136 366 -136 384 -128 c 1,26,-1
 401 -181 l 1,0,1
EndSplineSet
EndChar

StartChar: F
Encoding: 70 70 37
Width: 448
GlyphClass: 2
Flags: W
LayerCount: 2
UndoRedoHistory
Layer: 1
Undoes
EndUndoes
Redoes
RedoOperation
Index: 0
Type: 3
WasModified: 0
WasOrder2: 1
Layer: 2
EndRedoOperation
EndRedoes
EndUndoRedoHistory
Fore
SplineSet
132 0 m 1,0,-1
 60 0 l 1,1,-1
 60 640 l 1,2,-1
 384 640 l 1,3,-1
 384 576 l 1,4,-1
 132 576 l 1,5,-1
 132 320 l 1,6,-1
 320 320 l 1,7,-1
 320 256 l 1,8,-1
 132 256 l 1,9,-1
 132 0 l 1,0,-1
EndSplineSet
Substitution2: "'sups' Superscript in Latin lookup 9 subtable" F.sups
Substitution2: "'aalt' Access All Alternates in Latin lookup 0 subtable" F.sups
EndChar

StartChar: G
Encoding: 71 71 38
Width: 448
GlyphClass: 2
Flags: W
LayerCount: 2
UndoRedoHistory
Layer: 1
Undoes
EndUndoes
Redoes
RedoOperation
Index: 0
Type: 3
WasModified: 0
WasOrder2: 1
Layer: 2
EndRedoOperation
EndRedoes
EndUndoRedoHistory
Fore
SplineSet
265 321 m 1,0,-1
 388 320 l 1,1,-1
 388 7 l 1,2,3
 361 -1 361 -1 328 -5 c 128,-1,4
 295 -9 295 -9 268 -9 c 0,5,6
 189 -9 189 -9 142.5 23 c 128,-1,7
 96 55 96 55 75 126 c 128,-1,8
 54 197 54 197 54 319 c 256,9,10
 54 441 54 441 75 512 c 128,-1,11
 96 583 96 583 142.5 615 c 128,-1,12
 189 647 189 647 268 647 c 0,13,14
 328 647 328 647 385 632 c 1,15,-1
 371 571 l 1,16,17
 320 583 320 583 274 583 c 0,18,19
 210 583 210 583 180 557 c 128,-1,20
 150 531 150 531 141 478 c 128,-1,21
 132 425 132 425 132 319 c 256,22,23
 132 213 132 213 141 160 c 128,-1,24
 150 107 150 107 180 81 c 128,-1,25
 210 55 210 55 274 55 c 0,26,27
 291 55 291 55 316 58 c 1,28,-1
 316 255 l 1,29,-1
 267 257 l 1,30,-1
 265 321 l 1,0,-1
EndSplineSet
Substitution2: "'sups' Superscript in Latin lookup 9 subtable" G.sups
Substitution2: "'aalt' Access All Alternates in Latin lookup 0 subtable" G.sups
EndChar

StartChar: H
Encoding: 72 72 43
Width: 448
GlyphClass: 2
Flags: W
LayerCount: 2
UndoRedoHistory
Layer: 1
Undoes
EndUndoes
Redoes
RedoOperation
Index: 0
Type: 3
WasModified: 0
WasOrder2: 1
Layer: 2
EndRedoOperation
EndRedoes
EndUndoRedoHistory
Fore
SplineSet
132 0 m 1,0,-1
 60 0 l 1,1,-1
 60 640 l 1,2,-1
 132 640 l 1,3,-1
 132 320 l 1,4,-1
 316 320 l 1,5,-1
 316 640 l 1,6,-1
 388 640 l 1,7,-1
 388 0 l 1,8,-1
 316 0 l 1,9,-1
 316 256 l 1,10,-1
 132 256 l 1,11,-1
 132 0 l 1,0,-1
EndSplineSet
Substitution2: "'sups' Superscript in Latin lookup 9 subtable" H.sups
Substitution2: "'aalt' Access All Alternates in Latin lookup 0 subtable" H.sups
EndChar

StartChar: Hbar
Encoding: 294 294 44
Width: 448
GlyphClass: 2
Flags: W
LayerCount: 2
UndoRedoHistory
Layer: 1
Undoes
EndUndoes
Redoes
RedoOperation
Index: 0
Type: 3
WasModified: 0
WasOrder2: 1
Layer: 2
EndRedoOperation
EndRedoes
EndUndoRedoHistory
Fore
SplineSet
388 500 m 1,0,-1
 438 500 l 1,1,-1
 438 440 l 1,2,-1
 388 440 l 1,3,-1
 388 0 l 1,4,-1
 316 0 l 1,5,-1
 316 256 l 1,6,-1
 132 256 l 1,7,-1
 132 0 l 1,8,-1
 60 0 l 1,9,-1
 60 440 l 1,10,-1
 10 440 l 1,11,-1
 10 500 l 1,12,-1
 60 500 l 1,13,-1
 60 640 l 1,14,-1
 132 640 l 1,15,-1
 132 500 l 1,16,-1
 316 500 l 1,17,-1
 316 640 l 1,18,-1
 388 640 l 1,19,-1
 388 500 l 1,0,-1
132 320 m 1,20,-1
 316 320 l 1,21,-1
 316 440 l 1,22,-1
 132 440 l 1,23,-1
 132 320 l 1,20,-1
EndSplineSet
EndChar

StartChar: I
Encoding: 73 73 46
Width: 448
GlyphClass: 2
Flags: W
LayerCount: 2
UndoRedoHistory
Layer: 1
Undoes
EndUndoes
Redoes
RedoOperation
Index: 0
Type: 3
WasModified: 0
WasOrder2: 1
Layer: 2
EndRedoOperation
EndRedoes
EndUndoRedoHistory
Fore
SplineSet
301.200195312 0 m 1,0,-1
 152.799804688 0 l 1,1,-1
 152.799804688 54 l 1,2,-1
 184 67 l 1,3,-1
 186 574 l 1,4,-1
 155.200195312 586 l 1,5,-1
 155.200195312 640 l 1,6,-1
 298.799804688 640 l 1,7,-1
 298.799804688 586 l 1,8,-1
 267 575 l 1,9,-1
 265 71 l 1,10,-1
 301.200195312 54 l 1,11,-1
 301.200195312 0 l 1,0,-1
EndSplineSet
Substitution2: "'sups' Superscript in Latin lookup 9 subtable" I.sups
Substitution2: "'aalt' Access All Alternates in Latin lookup 0 subtable" I.sups
EndChar

StartChar: IJ
Encoding: 306 306 47
Width: 448
GlyphClass: 2
Flags: W
LayerCount: 2
UndoRedoHistory
Layer: 1
Undoes
EndUndoes
Redoes
RedoOperation
Index: 0
Type: 3
WasModified: 0
WasOrder2: 1
Layer: 2
EndRedoOperation
EndRedoes
EndUndoRedoHistory
Fore
SplineSet
6 0 m 1,0,-1
 6 54 l 1,1,-1
 66 64 l 1,2,-1
 66 576 l 1,3,-1
 10 586 l 1,4,-1
 10 640 l 1,5,-1
 194 640 l 1,6,-1
 194 586 l 1,7,-1
 138 576 l 1,8,-1
 138 64 l 1,9,-1
 230 64 l 2,10,11
 282 64 282 64 302 92.5 c 128,-1,12
 322 121 322 121 322 177 c 2,13,-1
 322 576 l 1,14,-1
 238 576 l 1,15,-1
 238 640 l 1,16,-1
 394 640 l 1,17,-1
 394 181 l 2,18,19
 394 88 394 88 350 44 c 128,-1,20
 306 0 306 0 230 0 c 2,21,-1
 6 0 l 1,0,-1
EndSplineSet
EndChar

StartChar: Iogonek
Encoding: 302 302 55
Width: 448
GlyphClass: 2
Flags: W
LayerCount: 2
UndoRedoHistory
Layer: 1
Undoes
EndUndoes
Redoes
RedoOperation
Index: 0
Type: 3
WasModified: 0
WasOrder2: 1
Layer: 2
EndRedoOperation
EndRedoes
EndUndoRedoHistory
Fore
SplineSet
393 -181 m 1,0,1
 365 -197 365 -197 329 -197 c 0,2,3
 288 -197 288 -197 266.5 -176 c 128,-1,4
 245 -155 245 -155 245 -118 c 0,5,6
 245 -58 245 -58 307 0 c 1,7,-1
 72 0 l 1,8,-1
 72 54 l 1,9,-1
 188 64 l 1,10,-1
 188 576 l 1,11,-1
 76 586 l 1,12,-1
 76 640 l 1,13,-1
 372 640 l 1,14,-1
 372 586 l 1,15,-1
 260 576 l 1,16,-1
 260 64 l 1,17,-1
 376 54 l 1,18,-1
 376 0 l 1,19,20
 345 -34 345 -34 330 -59.5 c 128,-1,21
 315 -85 315 -85 315 -108 c 0,22,23
 315 -136 315 -136 343 -136 c 0,24,25
 358 -136 358 -136 376 -128 c 1,26,-1
 393 -181 l 1,0,1
EndSplineSet
EndChar

StartChar: J
Encoding: 74 74 57
Width: 448
GlyphClass: 2
Flags: W
LayerCount: 2
UndoRedoHistory
Layer: 1
Undoes
EndUndoes
Redoes
RedoOperation
Index: 0
Type: 3
WasModified: 0
WasOrder2: 1
Layer: 2
EndRedoOperation
EndRedoes
EndUndoRedoHistory
Fore
SplineSet
130 137 m 1,0,1
 140 96 140 96 161.5 76 c 128,-1,2
 183 56 183 56 224 56 c 0,3,4
 276 56 276 56 296 84.5 c 128,-1,5
 316 113 316 113 316 169 c 2,6,-1
 316 576 l 1,7,-1
 162 576 l 1,8,-1
 162 640 l 1,9,-1
 388 640 l 1,10,-1
 388 173 l 2,11,12
 388 80 388 80 344 36 c 128,-1,13
 300 -8 300 -8 224 -8 c 0,14,15
 90 -8 90 -8 62 120 c 1,16,-1
 130 137 l 1,0,1
EndSplineSet
Substitution2: "'sups' Superscript in Latin lookup 9 subtable" J.sups
Substitution2: "'aalt' Access All Alternates in Latin lookup 0 subtable" J.sups
EndChar

StartChar: K
Encoding: 75 75 59
Width: 448
GlyphClass: 2
Flags: W
LayerCount: 2
UndoRedoHistory
Layer: 1
Undoes
EndUndoes
Redoes
RedoOperation
Index: 0
Type: 3
WasModified: 0
WasOrder2: 1
Layer: 2
EndRedoOperation
EndRedoes
EndUndoRedoHistory
Fore
SplineSet
350.5 267 m 128,-1,1
 383 225 383 225 388 151 c 2,2,-1
 399 0 l 1,3,-1
 324 0 l 1,4,-1
 316 146 l 2,5,6
 312 210 312 210 287 235.5 c 128,-1,7
 262 261 262 261 199 261 c 2,8,-1
 132 261 l 1,9,-1
 132 0 l 1,10,-1
 60 0 l 1,11,-1
 60 640 l 1,12,-1
 132 640 l 1,13,-1
 132 325 l 1,14,-1
 180 325 l 1,15,16
 241 399 241 399 274.5 468 c 128,-1,17
 308 537 308 537 325 640 c 1,18,-1
 400 640 l 1,19,20
 383 535 383 535 350 463 c 128,-1,21
 317 391 317 391 255 321 c 1,22,0
 318 309 318 309 350.5 267 c 128,-1,1
EndSplineSet
Substitution2: "'sups' Superscript in Latin lookup 9 subtable" K.sups
Substitution2: "'aalt' Access All Alternates in Latin lookup 0 subtable" K.sups
EndChar

StartChar: L
Encoding: 76 76 61
Width: 448
GlyphClass: 2
Flags: W
LayerCount: 2
UndoRedoHistory
Layer: 1
Undoes
EndUndoes
Redoes
RedoOperation
Index: 0
Type: 3
WasModified: 0
WasOrder2: 1
Layer: 2
EndRedoOperation
EndRedoes
EndUndoRedoHistory
Fore
SplineSet
384 0 m 1,0,-1
 60 0 l 1,1,-1
 60 640 l 1,2,-1
 132 640 l 1,3,-1
 132 64 l 1,4,-1
 384 64 l 1,5,-1
 384 0 l 1,0,-1
EndSplineSet
Substitution2: "'sups' Superscript in Latin lookup 9 subtable" L.sups
Substitution2: "'aalt' Access All Alternates in Latin lookup 0 subtable" L.sups
EndChar

StartChar: Lslash
Encoding: 321 321 66
Width: 448
GlyphClass: 2
Flags: W
LayerCount: 2
UndoRedoHistory
Layer: 1
Undoes
EndUndoes
Redoes
RedoOperation
Index: 0
Type: 3
WasModified: 0
WasOrder2: 1
Layer: 2
EndRedoOperation
EndRedoes
EndUndoRedoHistory
Fore
SplineSet
132 244 m 1,0,-1
 132 64 l 1,1,-1
 384 64 l 1,2,-1
 384 0 l 1,3,-1
 60 0 l 1,4,-1
 60 193 l 1,5,-1
 -3 148 l 1,6,-1
 -39 200 l 1,7,-1
 60 271 l 1,8,-1
 60 640 l 1,9,-1
 132 640 l 1,10,-1
 132 322 l 1,11,-1
 227 390 l 1,12,-1
 263 338 l 1,13,-1
 132 244 l 1,0,-1
EndSplineSet
EndChar

StartChar: M
Encoding: 77 77 67
Width: 448
GlyphClass: 2
Flags: W
LayerCount: 2
UndoRedoHistory
Layer: 1
Undoes
EndUndoes
Redoes
RedoOperation
Index: 0
Type: 3
WasModified: 0
WasOrder2: 1
Layer: 2
EndRedoOperation
EndRedoes
EndUndoRedoHistory
Fore
SplineSet
14 0 m 1,0,1
 19 356 19 356 39 640 c 1,2,-1
 126 640 l 1,3,-1
 223 271 l 1,4,-1
 225 271 l 1,5,-1
 322 640 l 1,6,-1
 409 640 l 1,7,8
 429 356 429 356 434 0 c 1,9,-1
 362 0 l 1,10,11
 362 219 362 219 350 510 c 1,12,-1
 348 510 l 1,13,-1
 252 150 l 1,14,-1
 196 150 l 1,15,-1
 99 510 l 1,16,-1
 97 510 l 1,17,18
 86 243 86 243 86 0 c 1,19,-1
 14 0 l 1,0,1
EndSplineSet
Substitution2: "'sups' Superscript in Latin lookup 9 subtable" M.sups
Substitution2: "'aalt' Access All Alternates in Latin lookup 0 subtable" M.sups
EndChar

StartChar: N
Encoding: 78 78 68
Width: 448
GlyphClass: 2
Flags: W
LayerCount: 2
UndoRedoHistory
Layer: 1
Undoes
EndUndoes
Redoes
RedoOperation
Index: 0
Type: 3
WasModified: 0
WasOrder2: 1
Layer: 2
EndRedoOperation
EndRedoes
EndUndoRedoHistory
Fore
SplineSet
316 132 m 1,0,-1
 316 640 l 1,1,-1
 388 640 l 1,2,-1
 388 0 l 1,3,-1
 306 0 l 1,4,-1
 162 384 l 1,5,-1
 132 506 l 1,6,-1
 132 0 l 1,7,-1
 60 0 l 1,8,-1
 60 640 l 1,9,-1
 142 640 l 1,10,-1
 286 256 l 1,11,-1
 316 132 l 1,0,-1
EndSplineSet
Substitution2: "'sups' Superscript in Latin lookup 9 subtable" N.sups
Substitution2: "'aalt' Access All Alternates in Latin lookup 0 subtable" N.sups
EndChar

StartChar: Eng
Encoding: 330 330 72
Width: 448
Flags: W
LayerCount: 2
UndoRedoHistory
Layer: 1
Undoes
EndUndoes
Redoes
RedoOperation
Index: 0
Type: 3
WasModified: 0
WasOrder2: 1
Layer: 2
EndRedoOperation
EndRedoes
EndUndoRedoHistory
Fore
SplineSet
316 640 m 1,0,-1
 388 640 l 1,1,-1
 388 -5 l 2,2,3
 388 -77 388 -77 361 -122.5 c 128,-1,4
 334 -168 334 -168 268 -196 c 1,5,-1
 239 -136 l 1,6,7
 284 -117 284 -117 300 -91.5 c 128,-1,8
 316 -66 316 -66 316 -13 c 2,9,-1
 316 3 l 1,10,-1
 166 384 l 1,11,-1
 132 513 l 1,12,-1
 132 0 l 1,13,-1
 60 0 l 1,14,-1
 60 640 l 1,15,-1
 142 640 l 1,16,-1
 292 259 l 1,17,-1
 316 167 l 1,18,-1
 316 640 l 1,0,-1
EndSplineSet
EndChar

StartChar: O
Encoding: 79 79 74
Width: 448
GlyphClass: 2
Flags: W
LayerCount: 2
UndoRedoHistory
Layer: 1
Undoes
EndUndoes
Redoes
RedoOperation
Index: 0
Type: 3
WasModified: 0
WasOrder2: 1
Layer: 2
EndRedoOperation
EndRedoes
EndUndoRedoHistory
Fore
SplineSet
37 319 m 0,1,2
 37 486 37 486 83.5 568 c 128,-1,3
 130 650 130 650 224 650 c 0,4,5
 320 650 320 650 365.5 568.5 c 128,-1,6
 411 487 411 487 411 319 c 0,7,8
 411 154 411 154 365.5 72 c 128,-1,9
 320 -10 320 -10 224 -10 c 0,10,0
 37 -10 37 -10 37 319 c 0,1,2
289 82 m 128,-1,12
 313 108 313 108 324 165 c 128,-1,13
 335 222 335 222 335 319 c 0,14,15
 335 417 335 417 324 474.5 c 128,-1,16
 313 532 313 532 289 558 c 128,-1,17
 265 584 265 584 224 584 c 256,18,19
 183 584 183 584 159 558 c 128,-1,20
 135 532 135 532 124 474.5 c 128,-1,21
 113 417 113 417 113 319 c 0,22,23
 113 222 113 222 124 165 c 128,-1,24
 135 108 135 108 159 82 c 128,-1,25
 183 56 183 56 224 56 c 256,26,11
 265 56 265 56 289 82 c 128,-1,12
EndSplineSet
Substitution2: "'sups' Superscript in Latin lookup 9 subtable" O.sups
Substitution2: "'aalt' Access All Alternates in Latin lookup 0 subtable" O.sups
EndChar

StartChar: Oslash
Encoding: 216 216 82
Width: 448
GlyphClass: 2
Flags: W
LayerCount: 2
UndoRedoHistory
Layer: 1
Undoes
EndUndoes
Redoes
RedoOperation
Index: 0
Type: 3
WasModified: 0
WasOrder2: 1
Layer: 2
EndRedoOperation
EndRedoes
EndUndoRedoHistory
Fore
SplineSet
414 626 m 1,0,-1
 375 549 l 1,1,2
 411 467 411 467 411 319 c 0,3,4
 411 154 411 154 365.5 72 c 128,-1,5
 320 -10 320 -10 224 -10 c 0,6,7
 157 -10 157 -10 116 30 c 1,8,-1
 93 -16 l 1,9,-1
 34 15 l 1,10,-1
 73 93 l 1,11,12
 37 175 37 175 37 319 c 0,13,14
 37 486 37 486 83.5 568 c 128,-1,15
 130 650 130 650 224 650 c 0,16,17
 290 650 290 650 333 611 c 1,18,-1
 355 656 l 1,19,-1
 414 626 l 1,0,-1
120 187 m 1,21,-1
 299 545 l 1,22,23
 274 584 274 584 224 584 c 0,24,25
 183 584 183 584 159 558 c 128,-1,26
 135 532 135 532 124 474.5 c 128,-1,27
 113 417 113 417 113 319 c 0,28,20
 113 237 113 237 120 187 c 1,21,-1
328 453 m 1,30,-1
 149 95 l 1,31,32
 174 56 174 56 224 56 c 0,33,34
 265 56 265 56 289 82 c 128,-1,35
 313 108 313 108 324 165 c 128,-1,36
 335 222 335 222 335 319 c 0,37,29
 335 403 335 403 328 453 c 1,30,-1
EndSplineSet
EndChar

StartChar: OE
Encoding: 338 338 85
Width: 448
GlyphClass: 2
Flags: W
LayerCount: 2
UndoRedoHistory
Layer: 1
Undoes
EndUndoes
Redoes
RedoOperation
Index: 0
Type: 3
WasModified: 0
WasOrder2: 1
Layer: 2
EndRedoOperation
EndRedoes
EndUndoRedoHistory
Fore
SplineSet
170 0 m 2,0,1
 -2 0 -2 0 -2 319 c 0,2,3
 -2 481 -2 481 40.5 560.5 c 128,-1,4
 83 640 83 640 170 640 c 2,5,-1
 438 640 l 1,6,-1
 438 576 l 1,7,-1
 270 576 l 1,8,-1
 270 320 l 1,9,-1
 400 320 l 1,10,-1
 400 256 l 1,11,-1
 270 256 l 1,12,-1
 270 64 l 1,13,-1
 448 64 l 1,14,-1
 448 0 l 1,15,-1
 170 0 l 2,0,1
198 64 m 1,16,-1
 198 576 l 1,17,-1
 170 576 l 2,18,19
 135 576 135 576 114 550.5 c 128,-1,20
 93 525 93 525 83.5 469.5 c 128,-1,21
 74 414 74 414 74 319 c 0,22,23
 74 225 74 225 83.5 170 c 128,-1,24
 93 115 93 115 114 89.5 c 128,-1,25
 135 64 135 64 170 64 c 2,26,-1
 198 64 l 1,16,-1
EndSplineSet
EndChar

StartChar: P
Encoding: 80 80 86
Width: 448
GlyphClass: 2
Flags: W
LayerCount: 2
UndoRedoHistory
Layer: 1
Undoes
EndUndoes
Redoes
RedoOperation
Index: 0
Type: 3
WasModified: 0
WasOrder2: 1
Layer: 2
EndRedoOperation
EndRedoes
EndUndoRedoHistory
Fore
SplineSet
60 0 m 1,0,-1
 60 640 l 1,1,-1
 215 640 l 2,2,3
 301 640 301 640 351 581 c 128,-1,4
 401 522 401 522 401 414 c 256,5,6
 401 306 401 306 351 249 c 128,-1,7
 301 192 301 192 215 192 c 2,8,-1
 132 192 l 1,9,-1
 132 0 l 1,10,-1
 60 0 l 1,0,-1
208 256 m 2,11,12
 275 256 275 256 300 296 c 128,-1,13
 325 336 325 336 325 414 c 0,14,15
 325 494 325 494 299.5 535 c 128,-1,16
 274 576 274 576 208 576 c 2,17,-1
 132 576 l 1,18,-1
 132 256 l 1,19,-1
 208 256 l 2,11,12
EndSplineSet
Substitution2: "'sups' Superscript in Latin lookup 9 subtable" P.sups
Substitution2: "'aalt' Access All Alternates in Latin lookup 0 subtable" P.sups
EndChar

StartChar: Thorn
Encoding: 222 222 87
Width: 448
Flags: W
LayerCount: 2
UndoRedoHistory
Layer: 1
Undoes
EndUndoes
Redoes
RedoOperation
Index: 0
Type: 3
WasModified: 0
WasOrder2: 1
Layer: 2
EndRedoOperation
EndRedoes
EndUndoRedoHistory
Fore
SplineSet
215 512 m 2,0,1
 300 512 300 512 350.5 461 c 128,-1,2
 401 410 401 410 401 318 c 256,3,4
 401 226 401 226 351 177 c 128,-1,5
 301 128 301 128 215 128 c 2,6,-1
 132 128 l 1,7,-1
 132 0 l 1,8,-1
 60 0 l 1,9,-1
 60 640 l 1,10,-1
 132 640 l 1,11,-1
 132 512 l 1,12,-1
 215 512 l 2,0,1
208 192 m 2,13,14
 275 192 275 192 301 223.5 c 128,-1,15
 327 255 327 255 327 318 c 0,16,17
 327 383 327 383 300.5 415.5 c 128,-1,18
 274 448 274 448 208 448 c 2,19,-1
 132 448 l 1,20,-1
 132 192 l 1,21,-1
 208 192 l 2,13,14
EndSplineSet
EndChar

StartChar: Q
Encoding: 81 81 88
Width: 448
GlyphClass: 2
Flags: W
LayerCount: 2
UndoRedoHistory
Layer: 1
Undoes
EndUndoes
Redoes
RedoOperation
Index: 0
Type: 1
WasModified: 1
WasOrder2: 1
Layer: 2
Width: 448
VWidth: 1024
LBearingChange: 0
UnicodeEnc: 0
InstructionsLength: 0
SplineSet
248 -122 m 5,0,-1
 205 -122 l 5,1,2
 205 -122 205 -122 206 -9 c 1,3,4
 37 4 37 4 37 319 c 0,5,6
 37 486 37 486 83.5 568 c 128,-1,7
 130 650 130 650 224 650 c 0,8,9
 320 650 320 650 365.5 568.5 c 128,-1,10
 411 487 411 487 411 319 c 0,11,12
 411 166 411 166 354 56 c 0,13,14
 334 18 334 18 247 -8 c 1,15,16
 247 -8 247 -8 248 -122 c 5,0,-1
246 58 m 1,17,18
 252.30952381 51.6904761905 252.30952381 51.6904761905 289 82 c 0,19,20
 312 101 312 101 324 165 c 0,21,22
 335 222 335 222 335 319 c 0,23,24
 335 417 335 417 324 474.5 c 128,-1,25
 313 532 313 532 289 558 c 128,-1,26
 265 584 265 584 224 584 c 256,27,28
 183 584 183 584 159 558 c 128,-1,29
 135 532 135 532 124 474.5 c 128,-1,30
 113 417 113 417 113 319 c 0,31,32
 113 222 113 222 124.727539062 165.336425781 c 0,33,34
 135 114 135 114 169 78 c 0,35,36
 188 58 188 58 203 56 c 1,37,-1
 203 199 l 256,38,-1
 246 199 l 1,39,-1
 246 58 l 1,17,18
EndSplineSet
EndRedoOperation
EndRedoes
EndUndoRedoHistory
Fore
SplineSet
248 -121 m 5,0,-1
 205 -121 l 5,1,2
 205 -121 205 -121 206 -9 c 1,3,4
 37 4 37 4 37 319 c 0,5,6
 37 486 37 486 83.5 568 c 128,-1,7
 130 650 130 650 224 650 c 0,8,9
 320 650 320 650 365.5 568.5 c 128,-1,10
 411 487 411 487 411 319 c 0,11,12
 411 166 411 166 354 56 c 0,13,14
 334 18 334 18 247 -8 c 1,15,16
 247 -8 247 -8 248 -121 c 5,0,-1
246 58 m 1,17,18
 252.30952381 51.6904761905 252.30952381 51.6904761905 289 82 c 0,19,20
 312 101 312 101 324 165 c 0,21,22
 335 222 335 222 335 319 c 0,23,24
 335 417 335 417 324 474.5 c 128,-1,25
 313 532 313 532 289 558 c 128,-1,26
 265 584 265 584 224 584 c 256,27,28
 183 584 183 584 159 558 c 128,-1,29
 135 532 135 532 124 474.5 c 128,-1,30
 113 417 113 417 113 319 c 0,31,32
 113 222 113 222 124.727539062 165.336425781 c 0,33,34
 135 114 135 114 169 78 c 0,35,36
 188 58 188 58 203 56 c 1,37,-1
 203 199 l 256,38,-1
 246 199 l 1,39,-1
 246 58 l 1,17,18
EndSplineSet
Substitution2: "'sups' Superscript in Latin lookup 9 subtable" Q.sups
Substitution2: "'aalt' Access All Alternates in Latin lookup 0 subtable" Q.sups
EndChar

StartChar: R
Encoding: 82 82 89
Width: 448
GlyphClass: 2
Flags: W
LayerCount: 2
UndoRedoHistory
Layer: 1
Undoes
EndUndoes
Redoes
RedoOperation
Index: 0
Type: 3
WasModified: 0
WasOrder2: 1
Layer: 2
EndRedoOperation
EndRedoes
EndUndoRedoHistory
Fore
SplineSet
363 162 m 128,-1,1
 402 96 402 96 411 0 c 1,2,-1
 337 0 l 1,3,4
 327 96 327 96 289.5 152 c 128,-1,5
 252 208 252 208 182 241 c 1,6,-1
 132 241 l 1,7,-1
 132 0 l 1,8,-1
 60 0 l 1,9,-1
 60 640 l 1,10,-1
 215 640 l 2,11,12
 300 640 300 640 350.5 587.5 c 128,-1,13
 401 535 401 535 401 440 c 0,14,15
 401 360 401 360 364 313.5 c 128,-1,16
 327 267 327 267 261 255 c 1,17,0
 324 228 324 228 363 162 c 128,-1,1
132 576 m 1,18,-1
 132 305 l 1,19,-1
 208 305 l 2,20,21
 275 305 275 305 300 339 c 128,-1,22
 325 373 325 373 325 440 c 256,23,24
 325 507 325 507 299.5 541.5 c 128,-1,25
 274 576 274 576 208 576 c 2,26,-1
 132 576 l 1,18,-1
EndSplineSet
Substitution2: "'sups' Superscript in Latin lookup 9 subtable" R.sups
Substitution2: "'aalt' Access All Alternates in Latin lookup 0 subtable" R.sups
EndChar

StartChar: S
Encoding: 83 83 93
Width: 448
GlyphClass: 2
Flags: W
LayerCount: 2
UndoRedoHistory
Layer: 1
Undoes
EndUndoes
Redoes
RedoOperation
Index: 0
Type: 3
WasModified: 0
WasOrder2: 1
Layer: 2
EndRedoOperation
EndRedoes
EndUndoRedoHistory
Fore
SplineSet
51 18 m 1,1,-1
 70 82 l 1,2,3
 103 69 103 69 133 62.5 c 128,-1,4
 163 56 163 56 198 56 c 0,5,6
 262 56 262 56 288.5 79.5 c 128,-1,7
 315 103 315 103 315 143 c 0,8,9
 315 175 315 175 301 197 c 128,-1,10
 287 219 287 219 265.5 233 c 128,-1,11
 244 247 244 247 207 264 c 0,12,13
 159 287 159 287 130 307.5 c 128,-1,14
 101 328 101 328 80 366.5 c 128,-1,15
 59 405 59 405 59 465 c 0,16,17
 59 548 59 548 110 598 c 128,-1,18
 161 648 161 648 256 648 c 0,19,20
 286 648 286 648 318.5 643.5 c 128,-1,21
 351 639 351 639 376 630 c 1,22,-1
 360 566 l 1,23,24
 308 584 308 584 256 584 c 0,25,26
 186 584 186 584 160.5 553.5 c 128,-1,27
 135 523 135 523 135 468 c 0,28,29
 135 427 135 427 151.5 400 c 128,-1,30
 168 373 168 373 192 357 c 128,-1,31
 216 341 216 341 257 321 c 0,32,33
 301 300 301 300 327.5 281.5 c 128,-1,34
 354 263 354 263 372.5 231 c 128,-1,35
 391 199 391 199 391 149 c 0,36,37
 391 70 391 70 340.5 31 c 128,-1,38
 290 -8 290 -8 195 -8 c 0,39,0
 120 -8 120 -8 51 18 c 1,1,-1
EndSplineSet
Substitution2: "'sups' Superscript in Latin lookup 9 subtable" S.sups
Substitution2: "'aalt' Access All Alternates in Latin lookup 0 subtable" S.sups
EndChar

StartChar: Scedilla
Encoding: 350 350 96
Width: 448
GlyphClass: 2
Flags: W
LayerCount: 2
UndoRedoHistory
Layer: 1
Undoes
EndUndoes
Redoes
RedoOperation
Index: 0
Type: 3
WasModified: 0
WasOrder2: 1
Layer: 2
EndRedoOperation
EndRedoes
EndUndoRedoHistory
Fore
SplineSet
266 -1 m 1,1,2
 261 -81 261 -81 219 -126.5 c 128,-1,3
 177 -172 177 -172 73 -172 c 1,4,-1
 71 -108 l 1,5,6
 137 -106 137 -106 164.5 -85 c 128,-1,7
 192 -64 192 -64 197 -8 c 1,8,-1
 195 -8 l 2,9,10
 120 -8 120 -8 51 18 c 1,11,-1
 70 82 l 1,12,13
 103 69 103 69 133 62.5 c 128,-1,14
 163 56 163 56 198 56 c 0,15,16
 262 56 262 56 288.5 79.5 c 128,-1,17
 315 103 315 103 315 143 c 0,18,19
 315 175 315 175 301 197 c 128,-1,20
 287 219 287 219 265.5 233 c 128,-1,21
 244 247 244 247 207 264 c 0,22,23
 159 287 159 287 130 307.5 c 128,-1,24
 101 328 101 328 80 366.5 c 128,-1,25
 59 405 59 405 59 465 c 0,26,27
 59 548 59 548 110 598 c 128,-1,28
 161 648 161 648 256 648 c 0,29,30
 286 648 286 648 318.5 643.5 c 128,-1,31
 351 639 351 639 376 630 c 1,32,-1
 360 566 l 1,33,34
 308 584 308 584 256 584 c 0,35,36
 186 584 186 584 160.5 553.5 c 128,-1,37
 135 523 135 523 135 468 c 0,38,39
 135 427 135 427 151.5 400 c 128,-1,40
 168 373 168 373 192 357 c 128,-1,41
 216 341 216 341 257 321 c 0,42,43
 301 300 301 300 327.5 281.5 c 128,-1,44
 354 263 354 263 372.5 231 c 128,-1,45
 391 199 391 199 391 149 c 0,46,0
 391 26 391 26 266 -1 c 1,1,2
EndSplineSet
Substitution2: "'locl' Localized Forms in Latin lookup 6 subtable" uni0218
Substitution2: "'aalt' Access All Alternates in Latin lookup 0 subtable" uni0218
EndChar

StartChar: uni1E9E
Encoding: 7838 7838 99
Width: 448
Flags: W
LayerCount: 2
UndoRedoHistory
Layer: 1
Undoes
EndUndoes
Redoes
RedoOperation
Index: 0
Type: 3
WasModified: 0
WasOrder2: 1
Layer: 2
EndRedoOperation
EndRedoes
EndUndoRedoHistory
Fore
SplineSet
380 233.5 m 128,-1,1
 405 194 405 194 405 145 c 0,2,3
 405 71 405 71 354.5 31.5 c 128,-1,4
 304 -8 304 -8 217 -8 c 0,5,6
 203 -8 203 -8 185 -6 c 1,7,-1
 192 58 l 1,8,-1
 212 58 l 2,9,10
 277 58 277 58 303 81.5 c 128,-1,11
 329 105 329 105 329 148 c 0,12,13
 329 189 329 189 298.5 223 c 128,-1,14
 268 257 268 257 189 285 c 1,15,-1
 206 337 l 1,16,-1
 249 325 l 1,17,18
 316 413 316 413 316 519 c 0,19,20
 316 551 316 551 311 576 c 1,21,-1
 132 576 l 1,22,-1
 132 0 l 1,23,-1
 60 0 l 1,24,-1
 60 640 l 1,25,-1
 374 640 l 1,26,27
 388 578 388 578 388 526 c 0,28,29
 388 396 388 396 305 300 c 1,30,0
 355 273 355 273 380 233.5 c 128,-1,1
EndSplineSet
EndChar

StartChar: uniA7A8
Encoding: 42920 42920 100
Width: 448
GlyphClass: 2
Flags: W
LayerCount: 2
UndoRedoHistory
Layer: 1
Undoes
EndUndoes
Redoes
RedoOperation
Index: 0
Type: 3
WasModified: 0
WasOrder2: 1
Layer: 2
EndRedoOperation
EndRedoes
EndUndoRedoHistory
Fore
SplineSet
257 321 m 1,0,1
 301 300 301 300 327.5 281.5 c 128,-1,2
 354 263 354 263 372.5 231 c 128,-1,3
 391 199 391 199 391 149 c 0,4,5
 391 70 391 70 340.5 31 c 128,-1,6
 290 -8 290 -8 195 -8 c 0,7,8
 120 -8 120 -8 51 18 c 1,9,-1
 70 82 l 1,10,11
 103 69 103 69 133 62.5 c 128,-1,12
 163 56 163 56 198 56 c 0,13,14
 262 56 262 56 288.5 79.5 c 128,-1,15
 315 103 315 103 315 143 c 0,16,17
 315 184 315 184 293 208.5 c 128,-1,18
 271 233 271 233 229 253 c 1,19,-1
 166 99 l 1,20,-1
 98 99 l 1,21,-1
 173 281 l 1,22,23
 120 309 120 309 89.5 350 c 128,-1,24
 59 391 59 391 59 465 c 0,25,26
 59 548 59 548 110 598 c 128,-1,27
 161 648 161 648 256 648 c 0,28,29
 286 648 286 648 318.5 643.5 c 128,-1,30
 351 639 351 639 376 630 c 1,31,-1
 360 566 l 1,32,33
 308 584 308 584 256 584 c 0,34,35
 186 584 186 584 160.5 553.5 c 128,-1,36
 135 523 135 523 135 468 c 0,37,38
 135 425 135 425 152 398 c 128,-1,39
 169 371 169 371 201 350 c 1,40,-1
 282 547 l 1,41,-1
 350 547 l 1,42,-1
 257 321 l 1,0,1
EndSplineSet
EndChar

StartChar: uni018F
Encoding: 399 399 101
Width: 448
GlyphClass: 2
Flags: W
LayerCount: 2
UndoRedoHistory
Layer: 1
Undoes
EndUndoes
Redoes
RedoOperation
Index: 0
Type: 3
WasModified: 0
WasOrder2: 1
Layer: 2
EndRedoOperation
EndRedoes
EndUndoRedoHistory
Fore
SplineSet
322.5 615 m 128,-1,1
 369 583 369 583 390 512 c 128,-1,2
 411 441 411 441 411 319 c 0,3,4
 411 154 411 154 365.5 72 c 128,-1,5
 320 -10 320 -10 224 -10 c 0,6,7
 37 -10 37 -10 37 319 c 0,8,9
 37 346 37 346 39 384 c 1,10,-1
 334 384 l 1,11,12
 332 459 332 459 320 501 c 128,-1,13
 308 543 308 543 278 563 c 128,-1,14
 248 583 248 583 191 583 c 0,15,16
 145 583 145 583 94 571 c 1,17,-1
 80 632 l 1,18,19
 137 647 137 647 197 647 c 0,20,0
 276 647 276 647 322.5 615 c 128,-1,1
289 82 m 128,-1,22
 313 108 313 108 324 165 c 128,-1,23
 335 222 335 222 335 319 c 2,24,-1
 335 320 l 1,25,-1
 113 320 l 1,26,27
 113 223 113 223 124 165.5 c 128,-1,28
 135 108 135 108 159 82 c 128,-1,29
 183 56 183 56 224 56 c 256,30,21
 265 56 265 56 289 82 c 128,-1,22
EndSplineSet
EndChar

StartChar: T
Encoding: 84 84 102
Width: 448
GlyphClass: 2
Flags: W
LayerCount: 2
UndoRedoHistory
Layer: 1
Undoes
EndUndoes
Redoes
RedoOperation
Index: 0
Type: 3
WasModified: 0
WasOrder2: 1
Layer: 2
EndRedoOperation
EndRedoes
EndUndoRedoHistory
Fore
SplineSet
404 640 m 1,0,-1
 404 576 l 1,1,-1
 260 576 l 1,2,-1
 260 0 l 1,3,-1
 188 0 l 1,4,-1
 188 576 l 1,5,-1
 44 576 l 1,6,-1
 44 640 l 1,7,-1
 404 640 l 1,0,-1
EndSplineSet
Substitution2: "'sups' Superscript in Latin lookup 9 subtable" T.sups
Substitution2: "'aalt' Access All Alternates in Latin lookup 0 subtable" T.sups
EndChar

StartChar: Tbar
Encoding: 358 358 103
Width: 448
GlyphClass: 2
Flags: W
LayerCount: 2
UndoRedoHistory
Layer: 1
Undoes
EndUndoes
Redoes
RedoOperation
Index: 0
Type: 3
WasModified: 0
WasOrder2: 1
Layer: 2
EndRedoOperation
EndRedoes
EndUndoRedoHistory
Fore
SplineSet
404 640 m 1,0,-1
 404 576 l 1,1,-1
 260 576 l 1,2,-1
 260 318 l 1,3,-1
 364 318 l 1,4,-1
 364 258 l 1,5,-1
 260 258 l 1,6,-1
 260 0 l 1,7,-1
 188 0 l 1,8,-1
 188 258 l 1,9,-1
 84 258 l 1,10,-1
 84 318 l 1,11,-1
 188 318 l 1,12,-1
 188 576 l 1,13,-1
 44 576 l 1,14,-1
 44 640 l 1,15,-1
 404 640 l 1,0,-1
EndSplineSet
EndChar

StartChar: uni0162
Encoding: 354 354 105
Width: 448
GlyphClass: 2
Flags: W
LayerCount: 2
UndoRedoHistory
Layer: 1
Undoes
EndUndoes
Redoes
RedoOperation
Index: 0
Type: 3
WasModified: 0
WasOrder2: 1
Layer: 2
EndRedoOperation
EndRedoes
EndUndoRedoHistory
Fore
SplineSet
404 576 m 1,0,-1
 260 576 l 1,1,-1
 260 10 l 1,2,-1
 322 10 l 1,3,4
 322 -85 322 -85 282 -138.5 c 128,-1,5
 242 -192 242 -192 128 -192 c 1,6,-1
 126 -128 l 1,7,8
 176 -126 176 -126 202.5 -114.5 c 128,-1,9
 229 -103 229 -103 241 -76.5 c 128,-1,10
 253 -50 253 -50 254 0 c 1,11,-1
 188 0 l 1,12,-1
 188 576 l 1,13,-1
 44 576 l 1,14,-1
 44 640 l 1,15,-1
 404 640 l 1,16,-1
 404 576 l 1,0,-1
EndSplineSet
Substitution2: "'locl' Localized Forms in Latin lookup 6 subtable" uni021A
Substitution2: "'aalt' Access All Alternates in Latin lookup 0 subtable" uni021A
EndChar

StartChar: U
Encoding: 85 85 107
Width: 448
GlyphClass: 2
Flags: W
LayerCount: 2
UndoRedoHistory
Layer: 1
Undoes
EndUndoes
Redoes
RedoOperation
Index: 0
Type: 3
WasModified: 0
WasOrder2: 1
Layer: 2
EndRedoOperation
EndRedoes
EndUndoRedoHistory
Fore
SplineSet
60 640 m 1,0,-1
 132 640 l 1,1,-1
 132 169 l 2,2,3
 132 112 132 112 151 84 c 128,-1,4
 170 56 170 56 224 56 c 0,5,6
 276 56 276 56 296 84.5 c 128,-1,7
 316 113 316 113 316 169 c 2,8,-1
 316 640 l 1,9,-1
 388 640 l 1,10,-1
 388 173 l 2,11,12
 388 80 388 80 344 36 c 128,-1,13
 300 -8 300 -8 224 -8 c 256,14,15
 148 -8 148 -8 104 35.5 c 128,-1,16
 60 79 60 79 60 172 c 2,17,-1
 60 640 l 1,0,-1
EndSplineSet
Substitution2: "'sups' Superscript in Latin lookup 9 subtable" U.sups
Substitution2: "'aalt' Access All Alternates in Latin lookup 0 subtable" U.sups
EndChar

StartChar: Uogonek
Encoding: 370 370 115
Width: 448
GlyphClass: 2
Flags: W
LayerCount: 2
UndoRedoHistory
Layer: 1
Undoes
EndUndoes
Redoes
RedoOperation
Index: 0
Type: 3
WasModified: 0
WasOrder2: 1
Layer: 2
EndRedoOperation
EndRedoes
EndUndoRedoHistory
Fore
SplineSet
316 640 m 1,0,-1
 388 640 l 1,1,-1
 388 173 l 2,2,3
 388 100 388 100 360.5 57 c 128,-1,4
 333 14 333 14 283 0 c 1,5,6
 252 -34 252 -34 237 -59.5 c 128,-1,7
 222 -85 222 -85 222 -108 c 0,8,9
 222 -136 222 -136 250 -136 c 0,10,11
 265 -136 265 -136 283 -128 c 1,12,-1
 300 -181 l 1,13,14
 272 -197 272 -197 236 -197 c 0,15,16
 195 -197 195 -197 173.5 -176 c 128,-1,17
 152 -155 152 -155 152 -118 c 0,18,19
 152 -62 152 -62 207 -7 c 1,20,21
 138 -2 138 -2 99 41.5 c 128,-1,22
 60 85 60 85 60 172 c 2,23,-1
 60 640 l 1,24,-1
 132 640 l 1,25,-1
 132 169 l 2,26,27
 132 112 132 112 151 84 c 128,-1,28
 170 56 170 56 224 56 c 0,29,30
 276 56 276 56 296 84.5 c 128,-1,31
 316 113 316 113 316 169 c 2,32,-1
 316 640 l 1,0,-1
EndSplineSet
EndChar

StartChar: V
Encoding: 86 86 118
Width: 448
Flags: W
LayerCount: 2
UndoRedoHistory
Layer: 1
Undoes
EndUndoes
Redoes
RedoOperation
Index: 0
Type: 3
WasModified: 0
WasOrder2: 1
Layer: 2
EndRedoOperation
EndRedoes
EndUndoRedoHistory
Fore
SplineSet
413 640 m 1,0,1
 398 453 398 453 358 286.5 c 128,-1,2
 318 120 318 120 256 -3 c 1,3,-1
 192 -3 l 1,4,5
 130 120 130 120 90 286.5 c 128,-1,6
 50 453 50 453 35 640 c 1,7,-1
 110 640 l 1,8,9
 125 474 125 474 154 333 c 128,-1,10
 183 192 183 192 224 89 c 1,11,12
 265 192 265 192 294 333 c 128,-1,13
 323 474 323 474 338 640 c 1,14,-1
 413 640 l 1,0,1
EndSplineSet
Substitution2: "'sups' Superscript in Latin lookup 9 subtable" V.sups
Substitution2: "'aalt' Access All Alternates in Latin lookup 0 subtable" V.sups
EndChar

StartChar: W
Encoding: 87 87 119
Width: 448
GlyphClass: 2
Flags: W
CounterMasks: 1 38
LayerCount: 2
UndoRedoHistory
Layer: 1
Undoes
EndUndoes
Redoes
RedoOperation
Index: 0
Type: 1
WasModified: 1
WasOrder2: 1
Layer: 2
Width: 448
VWidth: 1024
LBearingChange: 0
UnicodeEnc: 0
InstructionsLength: 0
SplineSet
406 640 m 1,0,1
 404 441 404 441 389 296 c 128,-1,2
 374 151 374 151 336 0 c 1,3,-1
 272 0 l 1,4,5
 251 59 251 59 240 121.5 c 128,-1,6
 229 184 229 184 224 261 c 1,7,8
 219 184 219 184 208 121.5 c 128,-1,9
 197 59 197 59 176 0 c 5,10,-1
 112 0 l 5,11,12
 74 151 74 151 59 296 c 128,-1,13
 44 441 44 441 42 640 c 1,14,-1
 114 640 l 1,15,16
 116 447 116 447 122.5 326 c 128,-1,17
 129 205 129 205 150 81 c 1,18,19
 171 180 171 180 181.5 233.5 c 128,-1,20
 192 287 192 287 192 378 c 1,21,-1
 256 378 l 1,22,23
 256 287 256 287 266.5 233.5 c 128,-1,24
 277 180 277 180 298 81 c 1,25,26
 319 205 319 205 325.5 326 c 128,-1,27
 332 447 332 447 334 640 c 1,28,-1
 406 640 l 1,0,1
EndSplineSet
EndRedoOperation
EndRedoes
EndUndoRedoHistory
Fore
SplineSet
406 640 m 1,0,1
 404 441 404 441 389 296 c 128,-1,2
 374 151 374 151 336 0 c 1,3,-1
 272 0 l 1,4,5
 251 59 251 59 240 121.5 c 128,-1,6
 229 184 229 184 224 261 c 1,7,8
 219 184 219 184 208 121.5 c 128,-1,9
 197 59 197 59 176 0 c 1,10,-1
 112 0 l 1,11,12
 74 151 74 151 59 296 c 128,-1,13
 44 441 44 441 42 640 c 1,14,-1
 114 640 l 1,15,16
 116 447 116 447 122.5 326 c 128,-1,17
 129 205 129 205 150 81 c 1,18,19
 171 180 171 180 181.5 238.5 c 128,-1,20
 192 297 192 297 192 388 c 5,21,-1
 256 388 l 5,22,23
 256 297 256 297 266.5 238.5 c 128,-1,24
 277 180 277 180 298 81 c 1,25,26
 319 205 319 205 325.5 326 c 128,-1,27
 332 447 332 447 334 640 c 1,28,-1
 406 640 l 1,0,1
EndSplineSet
Substitution2: "'sups' Superscript in Latin lookup 9 subtable" W.sups
Substitution2: "'aalt' Access All Alternates in Latin lookup 0 subtable" W.sups
EndChar

StartChar: X
Encoding: 88 88 124
Width: 448
GlyphClass: 2
Flags: W
LayerCount: 2
UndoRedoHistory
Layer: 1
Undoes
EndUndoes
Redoes
RedoOperation
Index: 0
Type: 3
WasModified: 0
WasOrder2: 1
Layer: 2
EndRedoOperation
EndRedoes
EndUndoRedoHistory
Fore
SplineSet
326 0 m 1,0,1
 308 91 308 91 287 145.5 c 128,-1,2
 266 200 266 200 224 255 c 1,3,4
 182 199 182 199 160.5 144.5 c 128,-1,5
 139 90 139 90 121 0 c 1,6,-1
 47 0 l 1,7,8
 65 95 65 95 92.5 162 c 128,-1,9
 120 229 120 229 174 300 c 1,10,11
 119 366 119 366 93 442 c 128,-1,12
 67 518 67 518 56 640 c 1,13,-1
 128 640 l 1,14,15
 138 527 138 527 158.5 462 c 128,-1,16
 179 397 179 397 222 344 c 1,17,18
 268 395 268 395 288.5 459.5 c 128,-1,19
 309 524 309 524 320 640 c 1,20,-1
 392 640 l 1,21,22
 381 518 381 518 355 442 c 128,-1,23
 329 366 329 366 274 300 c 1,24,25
 327 229 327 229 354.5 162.5 c 128,-1,26
 382 96 382 96 400 0 c 1,27,-1
 326 0 l 1,0,1
EndSplineSet
Substitution2: "'sups' Superscript in Latin lookup 9 subtable" X.sups
Substitution2: "'aalt' Access All Alternates in Latin lookup 0 subtable" X.sups
EndChar

StartChar: Y
Encoding: 89 89 125
Width: 448
GlyphClass: 2
Flags: W
CounterMasks: 1 38
LayerCount: 2
UndoRedoHistory
Layer: 1
Undoes
EndUndoes
Redoes
RedoOperation
Index: 0
Type: 3
WasModified: 0
WasOrder2: 1
Layer: 2
EndRedoOperation
EndRedoes
EndUndoRedoHistory
Fore
SplineSet
412 640 m 1,0,1
 396 498 396 498 359 391.5 c 128,-1,2
 322 285 322 285 260 202 c 1,3,-1
 260 0 l 1,4,-1
 188 0 l 1,5,-1
 188 202 l 1,6,7
 126 285 126 285 89 391.5 c 128,-1,8
 52 498 52 498 36 640 c 1,9,-1
 108 640 l 1,10,11
 122 519 122 519 148 432.5 c 128,-1,12
 174 346 174 346 224 256 c 1,13,14
 274 346 274 346 300 432.5 c 128,-1,15
 326 519 326 519 340 640 c 1,16,-1
 412 640 l 1,0,1
EndSplineSet
Substitution2: "'sups' Superscript in Latin lookup 9 subtable" Y.sups
Substitution2: "'aalt' Access All Alternates in Latin lookup 0 subtable" Y.sups
EndChar

StartChar: Z
Encoding: 90 90 130
Width: 448
GlyphClass: 2
Flags: W
LayerCount: 2
UndoRedoHistory
Layer: 1
Undoes
EndUndoes
Redoes
RedoOperation
Index: 0
Type: 1
WasModified: 1
WasOrder2: 1
Layer: 2
Width: 448
VWidth: 1024
LBearingChange: 0
UnicodeEnc: 0
InstructionsLength: 0
SplineSet
70 640 m 1,0,-1
 390 640 l 1,1,-1
 390 588 l 1,2,-1
 264 334 l 1,3,-1
 420 334 l 1,4,-1
 420 308 l 1,5,-1
 253 308 l 5,6,-1
 142 64 l 1,7,-1
 390 64 l 1,8,-1
 390 0 l 1,9,-1
 58 0 l 1,10,-1
 58 52 l 1,11,-1
 177 308 l 5,12,-1
 28 308 l 1,13,-1
 28 334 l 1,14,-1
 188 334 l 1,15,-1
 306 576 l 1,16,-1
 70 576 l 1,17,-1
 70 640 l 1,0,-1
EndSplineSet
EndRedoOperation
EndRedoes
EndUndoRedoHistory
Fore
SplineSet
70 640 m 1,0,-1
 390 640 l 1,1,-1
 390 588 l 1,2,-1
 264 334 l 1,3,-1
 420 334 l 1,4,-1
 420 308 l 1,5,-1
 252 308 l 5,6,-1
 142 64 l 1,7,-1
 390 64 l 1,8,-1
 390 0 l 1,9,-1
 58 0 l 1,10,-1
 58 52 l 1,11,-1
 176 308 l 5,12,-1
 28 308 l 1,13,-1
 28 334 l 1,14,-1
 188 334 l 1,15,-1
 306 576 l 1,16,-1
 70 576 l 1,17,-1
 70 640 l 1,0,-1
EndSplineSet
Substitution2: "'sups' Superscript in Latin lookup 9 subtable" Z.sups
Substitution2: "'aalt' Access All Alternates in Latin lookup 0 subtable" Z.sups
EndChar

StartChar: a
Encoding: 97 97 134
Width: 448
GlyphClass: 2
Flags: W
LayerCount: 2
UndoRedoHistory
Layer: 1
Undoes
EndUndoes
Redoes
RedoOperation
Index: 0
Type: 3
WasModified: 0
WasOrder2: 1
Layer: 2
EndRedoOperation
EndRedoes
EndUndoRedoHistory
Fore
SplineSet
384 0 m 1,0,-1
 316 0 l 1,1,-1
 311 39 l 1,2,3
 277 19 277 19 244.5 7.5 c 128,-1,4
 212 -4 212 -4 176 -4 c 0,5,6
 123 -4 123 -4 86.5 28 c 128,-1,7
 50 60 50 60 50 119 c 0,8,9
 50 190 50 190 110.5 227 c 128,-1,10
 171 264 171 264 308 268 c 1,11,-1
 308 285 l 2,12,13
 308 343 308 343 287.5 365.5 c 128,-1,14
 267 388 267 388 216 388 c 256,15,16
 165 388 165 388 94 361 c 1,17,-1
 73 419 l 1,18,19
 149 453 149 453 221 453 c 0,20,21
 299 453 299 453 339.5 416 c 128,-1,22
 380 379 380 379 380 299 c 2,23,-1
 380 64 l 1,24,-1
 384 0 l 1,0,-1
142 77 m 128,-1,26
 158 60 158 60 191 60 c 0,27,28
 217 60 217 60 245 70.5 c 128,-1,29
 273 81 273 81 308 100 c 1,30,-1
 308 206 l 1,31,32
 209 203 209 203 167.5 183 c 128,-1,33
 126 163 126 163 126 123 c 0,34,25
 126 94 126 94 142 77 c 128,-1,26
EndSplineSet
EndChar

StartChar: aogonek
Encoding: 261 261 141
Width: 448
GlyphClass: 2
Flags: W
LayerCount: 2
UndoRedoHistory
Layer: 1
Undoes
EndUndoes
Redoes
RedoOperation
Index: 0
Type: 3
WasModified: 0
WasOrder2: 1
Layer: 2
EndRedoOperation
EndRedoes
EndUndoRedoHistory
Fore
SplineSet
401 -181 m 1,0,1
 373 -197 373 -197 337 -197 c 0,2,3
 296 -197 296 -197 274.5 -176 c 128,-1,4
 253 -155 253 -155 253 -118 c 0,5,6
 253 -58 253 -58 316 1 c 1,7,-1
 311 39 l 1,8,9
 277 19 277 19 244.5 7.5 c 128,-1,10
 212 -4 212 -4 176 -4 c 0,11,12
 123 -4 123 -4 86.5 28 c 128,-1,13
 50 60 50 60 50 119 c 0,14,15
 50 190 50 190 110.5 227 c 128,-1,16
 171 264 171 264 308 268 c 1,17,-1
 308 285 l 2,18,19
 308 343 308 343 287.5 365.5 c 128,-1,20
 267 388 267 388 216 388 c 256,21,22
 165 388 165 388 94 361 c 1,23,-1
 73 419 l 1,24,25
 149 453 149 453 221 453 c 0,26,27
 299 453 299 453 339.5 416 c 128,-1,28
 380 379 380 379 380 299 c 2,29,-1
 380 64 l 1,30,-1
 384 0 l 1,31,32
 353 -34 353 -34 338 -59.5 c 128,-1,33
 323 -85 323 -85 323 -108 c 0,34,35
 323 -136 323 -136 351 -136 c 0,36,37
 366 -136 366 -136 384 -128 c 1,38,-1
 401 -181 l 1,0,1
142 77 m 128,-1,40
 158 60 158 60 191 60 c 0,41,42
 217 60 217 60 245 70.5 c 128,-1,43
 273 81 273 81 308 100 c 1,44,-1
 308 206 l 1,45,46
 209 203 209 203 167.5 183 c 128,-1,47
 126 163 126 163 126 123 c 0,48,39
 126 94 126 94 142 77 c 128,-1,40
EndSplineSet
EndChar

StartChar: ae
Encoding: 230 230 145
Width: 448
Flags: W
CounterMasks: 1 0e
LayerCount: 2
UndoRedoHistory
Layer: 1
Undoes
EndUndoes
Redoes
RedoOperation
Index: 0
Type: 3
WasModified: 0
WasOrder2: 1
Layer: 2
EndRedoOperation
EndRedoes
EndUndoRedoHistory
Fore
SplineSet
320 384 m 1,0,-1
 384 384 l 1,1,-1
 384 192 l 1,2,-1
 256 192 l 1,3,-1
 256 64 l 1,4,-1
 384 64 l 1,5,-1
 384 0 l 1,6,-1
 128 0 l 1,7,-1
 128 64 l 1,8,-1
 192 64 l 1,9,-1
 192 192 l 1,10,-1
 128 192 l 1,11,-1
 128 256 l 1,12,-1
 192 256 l 1,13,-1
 192 384 l 1,14,-1
 128 384 l 1,15,-1
 128 448 l 1,16,-1
 320 448 l 1,17,-1
 320 384 l 1,18,-1
 256 384 l 1,19,-1
 256 256 l 1,20,-1
 320 256 l 1,21,-1
 320 384 l 1,0,-1
64 192 m 1,22,-1
 128 192 l 1,23,-1
 128 64 l 1,24,-1
 64 64 l 1,25,-1
 64 192 l 1,22,-1
EndSplineSet
EndChar

StartChar: b
Encoding: 98 98 147
Width: 448
GlyphClass: 2
Flags: W
LayerCount: 2
UndoRedoHistory
Layer: 1
Undoes
EndUndoes
Redoes
RedoOperation
Index: 0
Type: 3
WasModified: 0
WasOrder2: 1
Layer: 2
EndRedoOperation
EndRedoes
EndUndoRedoHistory
Fore
SplineSet
355.5 392 m 128,-1,1
 397 328 397 328 397 224 c 256,2,3
 397 120 397 120 356 56 c 128,-1,4
 315 -8 315 -8 233 -8 c 0,5,6
 123 -8 123 -8 82 38 c 1,7,-1
 68 58 l 1,8,-1
 68 58 l 1,9,-1
 62 83 l 1,10,-1
 60 640 l 1,11,-1
 132 640 l 1,12,-1
 132 421 l 1,13,14
 169 456 169 456 232 456 c 0,15,0
 314 456 314 456 355.5 392 c 128,-1,1
279.5 71.5 m 128,-1,17
 300 87 300 87 309.5 123.5 c 128,-1,18
 319 160 319 160 319 224 c 0,19,20
 319 289 319 289 309.5 325 c 128,-1,21
 300 361 300 361 279.5 376.5 c 128,-1,22
 259 392 259 392 224 392 c 0,23,24
 160 392 160 392 132 350 c 1,25,-1
 132 99 l 1,26,27
 161 56 161 56 224 56 c 0,28,16
 259 56 259 56 279.5 71.5 c 128,-1,17
EndSplineSet
EndChar

StartChar: c
Encoding: 99 99 148
Width: 448
GlyphClass: 2
Flags: W
LayerCount: 2
UndoRedoHistory
Layer: 1
Undoes
EndUndoes
Redoes
RedoOperation
Index: 0
Type: 3
WasModified: 0
WasOrder2: 1
Layer: 2
EndRedoOperation
EndRedoes
EndUndoRedoHistory
Fore
SplineSet
345 376 m 1,0,1
 291 391 291 391 242 391 c 0,2,3
 198 391 198 391 173 375 c 128,-1,4
 148 359 148 359 137 323.5 c 128,-1,5
 126 288 126 288 126 224 c 256,6,7
 126 160 126 160 137 124.5 c 128,-1,8
 148 89 148 89 173 73 c 128,-1,9
 198 57 198 57 242 57 c 0,10,11
 291 57 291 57 345 72 c 1,12,-1
 358 12 l 1,13,14
 302 -7 302 -7 238 -7 c 0,15,16
 50 -7 50 -7 50 224 c 256,17,18
 50 455 50 455 238 455 c 0,19,20
 302 455 302 455 358 436 c 1,21,-1
 345 376 l 1,0,1
EndSplineSet
EndChar

StartChar: ccedilla
Encoding: 231 231 151
Width: 448
GlyphClass: 2
Flags: W
LayerCount: 2
UndoRedoHistory
Layer: 1
Undoes
EndUndoes
Redoes
RedoOperation
Index: 0
Type: 3
WasModified: 0
WasOrder2: 1
Layer: 2
EndRedoOperation
EndRedoes
EndUndoRedoHistory
Fore
SplineSet
358 12 m 1,0,1
 335 4 335 4 300 -2 c 1,2,3
 298 -91 298 -91 257 -141.5 c 128,-1,4
 216 -192 216 -192 106 -192 c 1,5,-1
 104 -128 l 1,6,7
 152 -126 152 -126 179 -115 c 128,-1,8
 206 -104 206 -104 218 -79 c 128,-1,9
 230 -54 230 -54 232 -7 c 1,10,11
 50 -3 50 -3 50 224 c 0,12,13
 50 455 50 455 238 455 c 0,14,15
 302 455 302 455 358 436 c 1,16,-1
 345 376 l 1,17,18
 291 391 291 391 242 391 c 0,19,20
 198 391 198 391 173 375 c 128,-1,21
 148 359 148 359 137 323.5 c 128,-1,22
 126 288 126 288 126 224 c 256,23,24
 126 160 126 160 137 124.5 c 128,-1,25
 148 89 148 89 173 73 c 128,-1,26
 198 57 198 57 242 57 c 0,27,28
 291 57 291 57 345 72 c 1,29,-1
 358 12 l 1,0,1
EndSplineSet
EndChar

StartChar: d
Encoding: 100 100 154
Width: 448
GlyphClass: 2
Flags: W
LayerCount: 2
UndoRedoHistory
Layer: 1
Undoes
EndUndoes
Redoes
RedoOperation
Index: 0
Type: 3
WasModified: 0
WasOrder2: 1
Layer: 2
EndRedoOperation
EndRedoes
EndUndoRedoHistory
Fore
SplineSet
390 0 m 1,0,-1
 329 0 l 1,1,-1
 324 36 l 1,2,3
 285 -8 285 -8 215 -8 c 0,4,5
 133 -8 133 -8 92 56 c 128,-1,6
 51 120 51 120 51 224 c 256,7,8
 51 328 51 328 92.5 392 c 128,-1,9
 134 456 134 456 216 456 c 0,10,11
 279 456 279 456 316 421 c 1,12,-1
 316 640 l 1,13,-1
 388 640 l 1,14,-1
 388 64 l 1,15,-1
 390 0 l 1,0,-1
316 99 m 1,17,-1
 316 350 l 1,18,19
 288 392 288 392 224 392 c 0,20,21
 189 392 189 392 168.5 376.5 c 128,-1,22
 148 361 148 361 138.5 325 c 128,-1,23
 129 289 129 289 129 224 c 0,24,25
 129 160 129 160 138.5 123.5 c 128,-1,26
 148 87 148 87 168.5 71.5 c 128,-1,27
 189 56 189 56 224 56 c 0,28,16
 287 56 287 56 316 99 c 1,17,-1
EndSplineSet
EndChar

StartChar: eth
Encoding: 240 240 155
Width: 448
Flags: W
LayerCount: 2
UndoRedoHistory
Layer: 1
Undoes
EndUndoes
Redoes
RedoOperation
Index: 0
Type: 3
WasModified: 0
WasOrder2: 1
Layer: 2
EndRedoOperation
EndRedoes
EndUndoRedoHistory
Fore
SplineSet
284 552 m 1,0,1
 400 427 400 427 400 252 c 0,2,3
 400 124 400 124 354 58 c 128,-1,4
 308 -8 308 -8 221 -8 c 0,5,6
 141 -8 141 -8 94 49 c 128,-1,7
 47 106 47 106 47 203 c 0,8,9
 47 269 47 269 69 316.5 c 128,-1,10
 91 364 91 364 129.5 389 c 128,-1,11
 168 414 168 414 215 414 c 0,12,13
 263 414 263 414 306 391 c 1,14,15
 283 458 283 458 230 514 c 1,16,-1
 154 461 l 1,17,-1
 123 505 l 1,18,-1
 190 552 l 1,19,20
 168 572 168 572 132 596 c 1,21,-1
 168 648 l 1,22,23
 215 616 215 616 245 590 c 1,24,-1
 310 635 l 1,25,-1
 341 591 l 1,26,-1
 284 552 l 1,0,1
304.5 105 m 128,-1,28
 327 154 327 154 327 247 c 0,29,30
 327 289 327 289 323 320 c 1,31,32
 275 350 275 350 223 350 c 0,33,34
 166 350 166 350 143.5 310 c 128,-1,35
 121 270 121 270 121 203 c 0,36,37
 121 56 121 56 224 56 c 0,38,27
 282 56 282 56 304.5 105 c 128,-1,28
EndSplineSet
EndChar

StartChar: dcroat
Encoding: 273 273 157
Width: 448
GlyphClass: 2
Flags: W
LayerCount: 2
UndoRedoHistory
Layer: 1
Undoes
EndUndoes
Redoes
RedoOperation
Index: 0
Type: 3
WasModified: 0
WasOrder2: 1
Layer: 2
EndRedoOperation
EndRedoes
EndUndoRedoHistory
Fore
SplineSet
448 504 m 1,0,-1
 388 504 l 1,1,-1
 388 64 l 1,2,-1
 390 0 l 1,3,-1
 329 0 l 1,4,-1
 324 36 l 1,5,6
 285 -8 285 -8 215 -8 c 0,7,8
 133 -8 133 -8 92 56 c 128,-1,9
 51 120 51 120 51 224 c 256,10,11
 51 328 51 328 92.5 392 c 128,-1,12
 134 456 134 456 216 456 c 0,13,14
 279 456 279 456 316 421 c 1,15,-1
 316 504 l 1,16,-1
 192 504 l 1,17,-1
 192 564 l 1,18,-1
 316 564 l 1,19,-1
 316 640 l 1,20,-1
 388 640 l 1,21,-1
 388 564 l 1,22,-1
 448 564 l 1,23,-1
 448 504 l 1,0,-1
316 99 m 1,25,-1
 316 350 l 1,26,27
 288 392 288 392 224 392 c 0,28,29
 189 392 189 392 168.5 376.5 c 128,-1,30
 148 361 148 361 138.5 325 c 128,-1,31
 129 289 129 289 129 224 c 0,32,33
 129 160 129 160 138.5 123.5 c 128,-1,34
 148 87 148 87 168.5 71.5 c 128,-1,35
 189 56 189 56 224 56 c 0,36,24
 287 56 287 56 316 99 c 1,25,-1
EndSplineSet
EndChar

StartChar: e
Encoding: 101 101 158
Width: 448
GlyphClass: 2
Flags: W
LayerCount: 2
UndoRedoHistory
Layer: 1
Undoes
EndUndoes
Redoes
RedoOperation
Index: 0
Type: 3
WasModified: 0
WasOrder2: 1
Layer: 2
EndRedoOperation
EndRedoes
EndUndoRedoHistory
Fore
SplineSet
351.5 402 m 128,-1,1
 396 343 396 343 396 239 c 0,2,3
 396 214 396 214 395 201 c 1,4,-1
 126 201 l 1,5,6
 129 118 129 118 156 84.5 c 128,-1,7
 183 51 183 51 246 51 c 0,8,9
 294 51 294 51 361 74 c 1,10,-1
 375 16 l 1,11,12
 310 -13 310 -13 242 -13 c 0,13,14
 50 -13 50 -13 50 224 c 0,15,16
 50 331 50 331 91.5 396 c 128,-1,17
 133 461 133 461 224 461 c 0,18,0
 307 461 307 461 351.5 402 c 128,-1,1
154 366 m 128,-1,20
 131 335 131 335 127 263 c 1,21,-1
 321 263 l 1,22,23
 319 332 319 332 295 364.5 c 128,-1,24
 271 397 271 397 224 397 c 256,25,19
 177 397 177 397 154 366 c 128,-1,20
EndSplineSet
EndChar

StartChar: eogonek
Encoding: 281 281 167
Width: 448
GlyphClass: 2
Flags: W
LayerCount: 2
UndoRedoHistory
Layer: 1
Undoes
EndUndoes
Redoes
RedoOperation
Index: 0
Type: 3
WasModified: 0
WasOrder2: 1
Layer: 2
EndRedoOperation
EndRedoes
EndUndoRedoHistory
Fore
SplineSet
351.5 402 m 128,-1,1
 396 343 396 343 396 239 c 0,2,3
 396 214 396 214 395 201 c 1,4,-1
 126 201 l 1,5,6
 129 118 129 118 156 84.5 c 128,-1,7
 183 51 183 51 246 51 c 0,8,9
 294 51 294 51 361 74 c 1,10,-1
 375 16 l 1,11,12
 354 6 354 6 331 0 c 1,13,14
 300 -34 300 -34 285 -59.5 c 128,-1,15
 270 -85 270 -85 270 -108 c 0,16,17
 270 -136 270 -136 298 -136 c 0,18,19
 313 -136 313 -136 331 -128 c 1,20,-1
 348 -181 l 1,21,22
 320 -197 320 -197 284 -197 c 0,23,24
 243 -197 243 -197 221.5 -176 c 128,-1,25
 200 -155 200 -155 200 -118 c 0,26,27
 200 -66 200 -66 249 -13 c 1,28,-1
 242 -13 l 2,29,30
 50 -13 50 -13 50 224 c 0,31,32
 50 331 50 331 91.5 396 c 128,-1,33
 133 461 133 461 224 461 c 0,34,0
 307 461 307 461 351.5 402 c 128,-1,1
154 366 m 128,-1,36
 131 335 131 335 127 263 c 1,37,-1
 321 263 l 1,38,39
 319 332 319 332 295 364.5 c 128,-1,40
 271 397 271 397 224 397 c 256,41,35
 177 397 177 397 154 366 c 128,-1,36
EndSplineSet
EndChar

StartChar: uni0259
Encoding: 601 601 168
Width: 448
GlyphClass: 2
Flags: W
LayerCount: 2
UndoRedoHistory
Layer: 1
Undoes
EndUndoes
Redoes
RedoOperation
Index: 0
Type: 3
WasModified: 0
WasOrder2: 1
Layer: 2
EndRedoOperation
EndRedoes
EndUndoRedoHistory
Fore
SplineSet
398 224 m 0,1,2
 398 117 398 117 356.5 52 c 128,-1,3
 315 -13 315 -13 224 -13 c 0,4,5
 141 -13 141 -13 96.5 46 c 128,-1,6
 52 105 52 105 52 209 c 0,7,8
 52 234 52 234 53 247 c 1,9,-1
 322 247 l 1,10,11
 319 330 319 330 292 363.5 c 128,-1,12
 265 397 265 397 202 397 c 0,13,14
 154 397 154 397 87 374 c 1,15,-1
 73 432 l 1,16,17
 138 461 138 461 206 461 c 0,18,0
 398 461 398 461 398 224 c 0,1,2
294 82 m 128,-1,20
 317 113 317 113 321 185 c 1,21,-1
 127 185 l 1,22,23
 129 116 129 116 153 83.5 c 128,-1,24
 177 51 177 51 224 51 c 256,25,19
 271 51 271 51 294 82 c 128,-1,20
EndSplineSet
EndChar

StartChar: f
Encoding: 102 102 169
Width: 448
GlyphClass: 2
Flags: W
LayerCount: 2
UndoRedoHistory
Layer: 1
Undoes
EndUndoes
Redoes
RedoOperation
Index: 0
Type: 12
WasModified: 0
WasOrder2: 0
Layer: 0
HStem: 0 21G<132 201.26> 384 64<59 134 206 350> 575 21G<337.5 370.492> 584 64<220.249 368.206>
VStem: 134 72<0 383 448 569.311>
EndRedoOperation
EndRedoes
EndUndoRedoHistory
Fore
SplineSet
134 383 m 1,0,-1
 59 386 l 1,1,-1
 59 448 l 1,2,-1
 134 448 l 1,3,-1
 134 504 l 2,4,5
 134 577 134 577 171 612.5 c 128,-1,6
 208 648 208 648 270 648 c 0,7,8
 324 648 324 648 378 638 c 1,9,-1
 367 575 l 1,10,11
 308 584 308 584 274 584 c 0,12,13
 206 584 206 584 206 509 c 2,14,-1
 206 448 l 1,15,-1
 350 448 l 1,16,-1
 350 384 l 1,17,-1
 206 384 l 1,18,-1
 201 0 l 5,19,-1
 132 0 l 1,20,-1
 134 383 l 1,0,-1
EndSplineSet
EndChar

StartChar: g
Encoding: 103 103 170
Width: 448
GlyphClass: 2
Flags: W
LayerCount: 2
UndoRedoHistory
Layer: 1
Undoes
EndUndoes
Redoes
RedoOperation
Index: 0
Type: 3
WasModified: 0
WasOrder2: 1
Layer: 2
EndRedoOperation
EndRedoes
EndUndoRedoHistory
Fore
SplineSet
329 448 m 1,0,-1
 390 448 l 1,1,-1
 388 384 l 1,2,-1
 388 -36 l 2,3,4
 388 -120 388 -120 344 -158 c 128,-1,5
 300 -196 300 -196 223 -196 c 0,6,7
 162 -196 162 -196 102 -181 c 1,8,-1
 112 -123 l 1,9,10
 156 -132 156 -132 222 -132 c 0,11,12
 277 -132 277 -132 296.5 -112.5 c 128,-1,13
 316 -93 316 -93 316 -49 c 2,14,-1
 316 28 l 1,15,16
 278 -8 278 -8 215 -8 c 0,17,18
 133 -8 133 -8 92 56 c 128,-1,19
 51 120 51 120 51 224 c 256,20,21
 51 328 51 328 92.5 392 c 128,-1,22
 134 456 134 456 216 456 c 0,23,24
 286 456 286 456 324 413 c 1,25,-1
 329 448 l 1,0,-1
316 99 m 1,27,-1
 316 350 l 1,28,29
 288 392 288 392 224 392 c 0,30,31
 189 392 189 392 168.5 376.5 c 128,-1,32
 148 361 148 361 138.5 325 c 128,-1,33
 129 289 129 289 129 224 c 0,34,35
 129 160 129 160 138.5 123.5 c 128,-1,36
 148 87 148 87 168.5 71.5 c 128,-1,37
 189 56 189 56 224 56 c 0,38,26
 287 56 287 56 316 99 c 1,27,-1
EndSplineSet
Substitution2: "'ss01' Style Set 1 in Latin lookup 19 subtable" g.ss01
Substitution2: "'salt' Stylistic Alternatives in Latin lookup 18 subtable" g.ss01
Substitution2: "'aalt' Access All Alternates in Latin lookup 0 subtable" g.ss01
EndChar

StartChar: h
Encoding: 104 104 175
Width: 448
GlyphClass: 2
Flags: W
LayerCount: 2
UndoRedoHistory
Layer: 1
Undoes
EndUndoes
Redoes
RedoOperation
Index: 0
Type: 3
WasModified: 0
WasOrder2: 1
Layer: 2
EndRedoOperation
EndRedoes
EndUndoRedoHistory
Fore
SplineSet
353 417 m 128,-1,1
 388 382 388 382 388 297 c 2,2,-1
 388 0 l 1,3,-1
 316 0 l 1,4,-1
 316 289 l 2,5,6
 316 342 316 342 301 365 c 128,-1,7
 286 388 286 388 247 388 c 0,8,9
 218 388 218 388 188 372 c 128,-1,10
 158 356 158 356 132 330 c 1,11,-1
 132 0 l 1,12,-1
 60 0 l 1,13,-1
 60 640 l 1,14,-1
 132 640 l 1,15,-1
 132 402 l 1,16,17
 160 425 160 425 193.5 438.5 c 128,-1,18
 227 452 227 452 261 452 c 0,19,0
 318 452 318 452 353 417 c 128,-1,1
EndSplineSet
EndChar

StartChar: hbar
Encoding: 295 295 176
Width: 448
GlyphClass: 2
Flags: W
LayerCount: 2
UndoRedoHistory
Layer: 1
Undoes
EndUndoes
Redoes
RedoOperation
Index: 0
Type: 3
WasModified: 0
WasOrder2: 1
Layer: 2
EndRedoOperation
EndRedoes
EndUndoRedoHistory
Fore
SplineSet
353 417 m 128,-1,1
 388 382 388 382 388 297 c 2,2,-1
 388 0 l 1,3,-1
 316 0 l 1,4,-1
 316 289 l 2,5,6
 316 342 316 342 301 365 c 128,-1,7
 286 388 286 388 247 388 c 0,8,9
 218 388 218 388 188 372 c 128,-1,10
 158 356 158 356 132 330 c 1,11,-1
 132 0 l 1,12,-1
 60 0 l 1,13,-1
 60 504 l 1,14,-1
 0 504 l 1,15,-1
 0 564 l 1,16,-1
 60 564 l 1,17,-1
 60 640 l 1,18,-1
 132 640 l 1,19,-1
 132 564 l 1,20,-1
 256 564 l 1,21,-1
 256 504 l 1,22,-1
 132 504 l 1,23,-1
 132 402 l 1,24,25
 160 425 160 425 193.5 438.5 c 128,-1,26
 227 452 227 452 261 452 c 0,27,0
 318 452 318 452 353 417 c 128,-1,1
EndSplineSet
EndChar

StartChar: dotlessi
Encoding: 305 305 179
Width: 448
GlyphClass: 2
Flags: W
LayerCount: 2
UndoRedoHistory
Layer: 1
Undoes
EndUndoes
Redoes
RedoOperation
Index: 0
Type: 3
WasModified: 0
WasOrder2: 1
Layer: 2
EndRedoOperation
EndRedoes
EndUndoRedoHistory
Fore
SplineSet
270 0 m 1,0,-1
 198 0 l 1,1,-1
 198 382 l 1,2,-1
 157 383 l 1,3,-1
 85 446 l 1,4,-1
 270 448 l 1,5,-1
 270 0 l 1,0,-1
EndSplineSet
EndChar

StartChar: ij
Encoding: 307 307 185
Width: 448
GlyphClass: 2
Flags: W
LayerCount: 2
UndoRedoHistory
Layer: 1
Undoes
EndUndoes
Redoes
RedoOperation
Index: 0
Type: 3
WasModified: 0
WasOrder2: 1
Layer: 2
EndRedoOperation
EndRedoes
EndUndoRedoHistory
Fore
SplineSet
84 547.5 m 128,-1,1
 67 563 67 563 67 591 c 0,2,3
 67 618 67 618 84 634 c 128,-1,4
 101 650 101 650 126 650 c 256,5,6
 151 650 151 650 168 634 c 128,-1,7
 185 618 185 618 185 591 c 0,8,9
 185 563 185 563 168 547.5 c 128,-1,10
 151 532 151 532 126 532 c 256,11,0
 101 532 101 532 84 547.5 c 128,-1,1
296 547.5 m 128,-1,13
 279 563 279 563 279 591 c 0,14,15
 279 618 279 618 296 634 c 128,-1,16
 313 650 313 650 338 650 c 256,17,18
 363 650 363 650 380 634 c 128,-1,19
 397 618 397 618 397 591 c 0,20,21
 397 563 397 563 380 547.5 c 128,-1,22
 363 532 363 532 338 532 c 256,23,12
 313 532 313 532 296 547.5 c 128,-1,13
166 0 m 1,24,-1
 94 0 l 1,25,-1
 94 382 l 1,26,-1
 34 386 l 1,27,-1
 34 448 l 1,28,-1
 166 448 l 1,29,-1
 166 0 l 1,24,-1
148 -194 m 1,31,-1
 154 -136 l 1,32,33
 196 -140 196 -140 223 -140 c 0,34,35
 269 -140 269 -140 287.5 -118 c 128,-1,36
 306 -96 306 -96 306 -49 c 2,37,-1
 306 382 l 1,38,-1
 246 386 l 1,39,-1
 246 448 l 1,40,-1
 378 448 l 1,41,-1
 378 -45 l 2,42,43
 378 -128 378 -128 339 -164 c 128,-1,44
 300 -200 300 -200 229 -200 c 0,45,30
 192 -200 192 -200 148 -194 c 1,31,-1
EndSplineSet
EndChar

StartChar: iogonek
Encoding: 303 303 187
Width: 448
GlyphClass: 2
Flags: W
LayerCount: 2
UndoRedoHistory
Layer: 1
Undoes
EndUndoes
Redoes
RedoOperation
Index: 0
Type: 3
WasModified: 0
WasOrder2: 1
Layer: 2
EndRedoOperation
EndRedoes
EndUndoRedoHistory
Fore
SplineSet
188 547.5 m 128,-1,1
 171 563 171 563 171 591 c 0,2,3
 171 618 171 618 188 634 c 128,-1,4
 205 650 205 650 230 650 c 256,5,6
 255 650 255 650 272 634 c 128,-1,7
 289 618 289 618 289 591 c 0,8,9
 289 563 289 563 272 547.5 c 128,-1,10
 255 532 255 532 230 532 c 256,11,0
 205 532 205 532 188 547.5 c 128,-1,1
270 -128 m 1,13,-1
 287 -181 l 1,14,15
 259 -197 259 -197 223 -197 c 0,16,17
 182 -197 182 -197 160.5 -176 c 128,-1,18
 139 -155 139 -155 139 -118 c 0,19,20
 139 -58 139 -58 201 0 c 1,21,-1
 198 0 l 1,22,-1
 198 382 l 1,23,-1
 74 390 l 1,24,-1
 74 448 l 1,25,-1
 270 448 l 1,26,-1
 270 0 l 1,27,28
 239 -34 239 -34 224 -59.5 c 128,-1,29
 209 -85 209 -85 209 -108 c 0,30,31
 209 -136 209 -136 237 -136 c 0,32,12
 252 -136 252 -136 270 -128 c 1,13,-1
EndSplineSet
EndChar

StartChar: uni0237
Encoding: 567 567 190
Width: 448
GlyphClass: 2
Flags: W
LayerCount: 2
UndoRedoHistory
Layer: 1
Undoes
EndUndoes
Redoes
RedoOperation
Index: 0
Type: 3
WasModified: 0
WasOrder2: 1
Layer: 2
EndRedoOperation
EndRedoes
EndUndoRedoHistory
Fore
SplineSet
260 -45 m 2,0,1
 260 -128 260 -128 221 -164 c 128,-1,2
 182 -200 182 -200 111 -200 c 0,3,4
 74 -200 74 -200 30 -194 c 1,5,-1
 36 -136 l 1,6,7
 78 -140 78 -140 105 -140 c 0,8,9
 151 -140 151 -140 169.5 -118 c 128,-1,10
 188 -96 188 -96 188 -49 c 2,11,-1
 188 382 l 1,12,-1
 188 382 l 1,13,-1
 119 447 l 1,14,-1
 260 448 l 1,15,-1
 260 -45 l 2,0,1
EndSplineSet
EndChar

StartChar: k
Encoding: 107 107 192
Width: 448
GlyphClass: 2
Flags: W
LayerCount: 2
UndoRedoHistory
Layer: 1
Undoes
EndUndoes
Redoes
RedoOperation
Index: 0
Type: 12
WasModified: 0
WasOrder2: 0
Layer: 0
HStem: 0 21G<60 132 308.327 420> 208 64<132 161> 428 20G<296.295 408> 620 20G<60 132>
VStem: 60 72<0 208 272 640>
DStem2: 225 239 161 208 0.632178 -0.774823<0 247.768> 166 272 225 239 0.658759 0.752354<14.0391 229.252>
EndRedoOperation
EndRedoes
EndUndoRedoHistory
Fore
SplineSet
225 239 m 1,0,-1
 420 0 l 1,1,-1
 324 0 l 1,2,-1
 161 208 l 1,3,-1
 132 208 l 1,4,-1
 132 0 l 1,5,-1
 60 0 l 1,6,-1
 60 640 l 1,7,-1
 132 640 l 1,8,-1
 132 272 l 1,9,-1
 166 272 l 1,10,-1
 313 448 l 1,11,-1
 408 448 l 1,12,-1
 225 239 l 1,0,-1
EndSplineSet
EndChar

StartChar: kgreenlandic
Encoding: 312 312 194
Width: 448
Flags: W
LayerCount: 2
UndoRedoHistory
Layer: 1
Undoes
EndUndoes
Redoes
RedoOperation
Index: 0
Type: 3
WasModified: 0
WasOrder2: 1
Layer: 2
EndRedoOperation
EndRedoes
EndUndoRedoHistory
Fore
SplineSet
225 239 m 1,0,-1
 420 0 l 1,1,-1
 324 0 l 1,2,-1
 161 208 l 1,3,-1
 132 208 l 1,4,-1
 132 0 l 1,5,-1
 60 0 l 1,6,-1
 60 448 l 1,7,-1
 132 448 l 1,8,-1
 132 272 l 1,9,-1
 166 272 l 1,10,-1
 313 448 l 1,11,-1
 408 448 l 1,12,-1
 225 239 l 1,0,-1
EndSplineSet
EndChar

StartChar: l
Encoding: 108 108 195
Width: 448
GlyphClass: 2
Flags: W
LayerCount: 2
UndoRedoHistory
Layer: 1
Undoes
EndUndoes
Redoes
RedoOperation
Index: 0
Type: 12
WasModified: 0
WasOrder2: 0
Layer: 0
HStem: -4 64<234.083 341.347> 620 20G<132 224>
VStem: 152 72<70.1772 576>
EndRedoOperation
EndRedoes
EndUndoRedoHistory
Fore
SplineSet
132 640 m 1,0,-1
 224 640 l 1,1,-1
 224 119 l 2,2,3
 224 60 224 60 287 60 c 0,4,5
 311 60 311 60 341 63 c 1,6,-1
 346 0 l 1,7,8
 315 -4 315 -4 284 -4 c 0,9,10
 224 -4 224 -4 188 26 c 128,-1,11
 152 56 152 56 152 124 c 2,12,-1
 152 576 l 1,13,-1
 138 581 l 1,14,-1
 132 640 l 1,0,-1
EndSplineSet
EndChar

StartChar: lslash
Encoding: 322 322 200
Width: 448
GlyphClass: 2
Flags: W
LayerCount: 2
UndoRedoHistory
Layer: 1
Undoes
EndUndoes
Redoes
RedoOperation
Index: 0
Type: 3
WasModified: 0
WasOrder2: 1
Layer: 2
EndRedoOperation
EndRedoes
EndUndoRedoHistory
Fore
SplineSet
341 63 m 1,1,-1
 346 0 l 1,2,3
 315 -4 315 -4 284 -4 c 0,4,5
 224 -4 224 -4 188 26 c 128,-1,6
 152 56 152 56 152 124 c 2,7,-1
 152 313 l 1,8,-1
 95 272 l 1,9,-1
 59 324 l 1,10,-1
 152 390 l 1,11,-1
 152 576 l 1,12,-1
 77 581 l 1,13,-1
 77 640 l 1,14,-1
 224 640 l 1,15,-1
 224 442 l 1,16,-1
 325 514 l 1,17,-1
 361 462 l 1,18,-1
 224 364 l 1,19,-1
 224 119 l 2,20,21
 224 60 224 60 287 60 c 0,22,0
 311 60 311 60 341 63 c 1,1,-1
EndSplineSet
EndChar

StartChar: m
Encoding: 109 109 201
Width: 448
GlyphClass: 2
Flags: W
LayerCount: 2
UndoRedoHistory
Layer: 1
Undoes
EndUndoes
Redoes
RedoOperation
Index: 0
Type: 12
WasModified: 0
WasOrder2: 0
Layer: 0
HStem: 0 21G<40 104 192 256 344 408> 387 64<105.971 184.539 256.239 336.867>
VStem: 40 64<0 381.999> 192 64<0 373.075> 344 64<0 372.075>
EndRedoOperation
EndRedoes
EndUndoRedoHistory
Fore
SplineSet
381 421.5 m 128,-1,1
 408 393 408 393 408 335 c 2,2,-1
 408 0 l 1,3,-1
 344 0 l 1,4,-1
 344 331 l 2,5,6
 344 359 344 359 335 372.5 c 128,-1,7
 326 386 326 386 304 386 c 0,8,9
 291 386 291 386 278 382 c 128,-1,10
 265 378 265 378 256 371 c 1,11,-1
 256 0 l 1,12,-1
 192 0 l 1,13,-1
 192 332 l 2,14,15
 192 360 192 360 183 373.5 c 128,-1,16
 174 387 174 387 151 387 c 0,17,18
 140 387 140 387 126.5 382 c 128,-1,19
 113 377 113 377 104 370 c 1,20,-1
 104 0 l 1,21,-1
 40 0 l 1,22,-1
 40 383 l 1,23,-1
 59 394 l 1,24,-1
 93 448 l 1,25,-1
 98 420 l 1,26,27
 109 434 109 434 126.5 442.5 c 128,-1,28
 144 451 144 451 165 451 c 0,29,30
 208 451 208 451 230 416 c 1,31,32
 246 432 246 432 267 441 c 128,-1,33
 288 450 288 450 309 450 c 0,34,0
 354 450 354 450 381 421.5 c 128,-1,1
EndSplineSet
EndChar

StartChar: n
Encoding: 110 110 202
Width: 448
GlyphClass: 2
Flags: W
LayerCount: 2
UndoRedoHistory
Layer: 1
Undoes
EndUndoes
Redoes
RedoOperation
Index: 0
Type: 3
WasModified: 0
WasOrder2: 1
Layer: 2
EndRedoOperation
EndRedoes
EndUndoRedoHistory
Fore
SplineSet
353 417 m 0,0,1
 388 382 388 382 388 297 c 2,2,-1
 388 0 l 1,3,-1
 316 0 l 1,4,-1
 316 289 l 2,5,6
 316 342 316 342 301 365 c 128,-1,7
 286 388 286 388 247 388 c 0,8,9
 218 388 218 388 188 372 c 128,-1,10
 158 356 158 356 132 330 c 1,11,-1
 132 0 l 1,12,-1
 60 0 l 1,13,-1
 64 358 l 1,14,-1
 71 371 l 1,15,-1
 71 371 l 1,16,-1
 83 385 l 1,17,18
 111 409 111 409 162 434.5 c 128,-1,19
 213 460 213 460 261 452 c 0,20,21
 329.52128945 440.47871055 329.52128945 440.47871055 353 417 c 0,0,1
EndSplineSet
EndChar

StartChar: eng
Encoding: 331 331 207
Width: 448
Flags: W
LayerCount: 2
UndoRedoHistory
Layer: 1
Undoes
EndUndoes
Redoes
RedoOperation
Index: 0
Type: 3
WasModified: 0
WasOrder2: 1
Layer: 2
EndRedoOperation
EndRedoes
EndUndoRedoHistory
Fore
SplineSet
353 417 m 128,-1,1
 388 382 388 382 388 297 c 2,2,-1
 388 -5 l 2,3,4
 388 -77 388 -77 361 -122.5 c 128,-1,5
 334 -168 334 -168 268 -196 c 1,6,-1
 239 -136 l 1,7,8
 284 -117 284 -117 300 -91.5 c 128,-1,9
 316 -66 316 -66 316 -13 c 2,10,-1
 316 289 l 2,11,12
 316 342 316 342 301 365 c 128,-1,13
 286 388 286 388 247 388 c 0,14,15
 218 388 218 388 188 372 c 128,-1,16
 158 356 158 356 132 330 c 1,17,-1
 132 0 l 1,18,-1
 60 0 l 1,19,-1
 60 383 l 1,20,-1
 58 448 l 1,21,-1
 124 448 l 1,22,-1
 130 400 l 1,23,24
 158 424 158 424 192 438 c 128,-1,25
 226 452 226 452 261 452 c 0,26,0
 318 452 318 452 353 417 c 128,-1,1
EndSplineSet
EndChar

StartChar: o
Encoding: 111 111 209
Width: 448
GlyphClass: 2
Flags: W
LayerCount: 2
UndoRedoHistory
Layer: 1
Undoes
EndUndoes
Redoes
RedoOperation
Index: 0
Type: 3
WasModified: 0
WasOrder2: 1
Layer: 2
EndRedoOperation
EndRedoes
EndUndoRedoHistory
Fore
SplineSet
91.5 52 m 128,-1,1
 50 117 50 117 50 224 c 256,2,3
 50 331 50 331 91.5 396 c 128,-1,4
 133 461 133 461 224 461 c 256,5,6
 315 461 315 461 356.5 396 c 128,-1,7
 398 331 398 331 398 224 c 0,8,9
 398 118 398 118 355.5 52.5 c 128,-1,10
 313 -13 313 -13 224 -13 c 0,11,0
 133 -13 133 -13 91.5 52 c 128,-1,1
299.5 90 m 128,-1,13
 322 129 322 129 322 224 c 0,14,15
 322 318 322 318 299 357.5 c 128,-1,16
 276 397 276 397 224 397 c 256,17,18
 172 397 172 397 149 357.5 c 128,-1,19
 126 318 126 318 126 224 c 0,20,21
 126 129 126 129 148.5 90 c 128,-1,22
 171 51 171 51 224 51 c 256,23,12
 277 51 277 51 299.5 90 c 128,-1,13
EndSplineSet
EndChar

StartChar: oslash
Encoding: 248 248 217
Width: 448
GlyphClass: 2
Flags: W
LayerCount: 2
UndoRedoHistory
Layer: 1
Undoes
EndUndoes
Redoes
RedoOperation
Index: 0
Type: 3
WasModified: 0
WasOrder2: 1
Layer: 2
EndRedoOperation
EndRedoes
EndUndoRedoHistory
Fore
SplineSet
421 418 m 1,0,-1
 375 361 l 1,1,2
 398 305 398 305 398 224 c 0,3,4
 398 118 398 118 355.5 52.5 c 128,-1,5
 313 -13 313 -13 224 -13 c 0,6,7
 154 -13 154 -13 110 29 c 1,8,-1
 79 -10 l 1,9,-1
 28 32 l 1,10,-1
 73 88 l 1,11,12
 50 143 50 143 50 224 c 0,13,14
 50 331 50 331 91.5 396 c 128,-1,15
 133 461 133 461 224 461 c 0,16,17
 294 461 294 461 338 419 c 1,18,-1
 369 458 l 1,19,-1
 421 418 l 1,0,-1
129 159 m 1,21,-1
 295 365 l 1,22,23
 272 397 272 397 224 397 c 0,24,25
 172 397 172 397 149 357.5 c 128,-1,26
 126 318 126 318 126 224 c 0,27,20
 126 186 126 186 129 159 c 1,21,-1
319 290 m 1,29,-1
 153 83 l 1,30,31
 175 51 175 51 224 51 c 0,32,33
 277 51 277 51 299.5 90 c 128,-1,34
 322 129 322 129 322 224 c 0,35,28
 322 262 322 262 319 290 c 1,29,-1
EndSplineSet
EndChar

StartChar: oe
Encoding: 339 339 220
Width: 448
Flags: W
CounterMasks: 1 1c
LayerCount: 2
UndoRedoHistory
Layer: 1
Undoes
EndUndoes
Redoes
RedoOperation
Index: 0
Type: 3
WasModified: 0
WasOrder2: 1
Layer: 2
EndRedoOperation
EndRedoes
EndUndoRedoHistory
Fore
SplineSet
320 384 m 1,0,-1
 384 384 l 1,1,-1
 384 192 l 1,2,-1
 256 192 l 1,3,-1
 256 64 l 1,4,-1
 384 64 l 1,5,-1
 384 0 l 1,6,-1
 128 0 l 1,7,-1
 128 64 l 1,8,-1
 192 64 l 1,9,-1
 192 384 l 1,10,-1
 128 384 l 1,11,-1
 128 448 l 1,12,-1
 320 448 l 1,13,-1
 320 384 l 1,14,-1
 256 384 l 1,15,-1
 256 256 l 1,16,-1
 320 256 l 1,17,-1
 320 384 l 1,0,-1
128 64 m 1,18,-1
 64 64 l 1,19,-1
 64 384 l 1,20,-1
 128 384 l 1,21,-1
 128 64 l 1,18,-1
EndSplineSet
EndChar

StartChar: p
Encoding: 112 112 221
Width: 448
GlyphClass: 2
Flags: W
LayerCount: 2
UndoRedoHistory
Layer: 1
Undoes
EndUndoes
Redoes
RedoOperation
Index: 0
Type: 3
WasModified: 0
WasOrder2: 1
Layer: 2
EndRedoOperation
EndRedoes
EndUndoRedoHistory
Fore
SplineSet
355.5 392 m 128,-1,1
 397 328 397 328 397 224 c 256,2,3
 397 120 397 120 356 56 c 128,-1,4
 315 -8 315 -8 233 -8 c 0,5,6
 170 -8 170 -8 132 28 c 1,7,-1
 132 -192 l 1,8,-1
 60 -192 l 1,9,-1
 62 361 l 1,10,-1
 62 333 l 1,11,-1
 78 373 l 1,12,-1
 92 401 l 1,13,14
 141 456 141 456 232 456 c 0,15,0
 314 456 314 456 355.5 392 c 128,-1,1
279.5 71.5 m 128,-1,17
 300 87 300 87 309.5 123.5 c 128,-1,18
 319 160 319 160 319 224 c 0,19,20
 319 289 319 289 309.5 325 c 128,-1,21
 300 361 300 361 279.5 376.5 c 128,-1,22
 259 392 259 392 224 392 c 0,23,24
 160 392 160 392 132 350 c 1,25,-1
 132 99 l 1,26,27
 161 56 161 56 224 56 c 0,28,16
 259 56 259 56 279.5 71.5 c 128,-1,17
EndSplineSet
EndChar

StartChar: thorn
Encoding: 254 254 222
Width: 448
Flags: W
LayerCount: 2
UndoRedoHistory
Layer: 1
Undoes
EndUndoes
Redoes
RedoOperation
Index: 0
Type: 3
WasModified: 0
WasOrder2: 1
Layer: 2
EndRedoOperation
EndRedoes
EndUndoRedoHistory
Fore
SplineSet
355.5 392 m 128,-1,1
 397 328 397 328 397 224 c 256,2,3
 397 120 397 120 356 56 c 128,-1,4
 315 -8 315 -8 233 -8 c 0,5,6
 170 -8 170 -8 132 28 c 1,7,-1
 132 -192 l 1,8,-1
 60 -192 l 1,9,-1
 60 640 l 1,10,-1
 132 640 l 1,11,-1
 132 421 l 1,12,13
 169 456 169 456 232 456 c 0,14,0
 314 456 314 456 355.5 392 c 128,-1,1
279.5 71.5 m 128,-1,16
 300 87 300 87 309.5 123.5 c 128,-1,17
 319 160 319 160 319 224 c 0,18,19
 319 289 319 289 309.5 325 c 128,-1,20
 300 361 300 361 279.5 376.5 c 128,-1,21
 259 392 259 392 224 392 c 0,22,23
 160 392 160 392 132 350 c 1,24,-1
 132 99 l 1,25,26
 161 56 161 56 224 56 c 0,27,15
 259 56 259 56 279.5 71.5 c 128,-1,16
EndSplineSet
EndChar

StartChar: q
Encoding: 113 113 223
Width: 448
Flags: W
LayerCount: 2
UndoRedoHistory
Layer: 1
Undoes
EndUndoes
Redoes
RedoOperation
Index: 0
Type: 1
WasModified: 1
WasOrder2: 1
Layer: 2
Width: 448
VWidth: 1024
LBearingChange: 0
UnicodeEnc: 0
InstructionsLength: 0
SplineSet
336 -204 m 1,0,-1
 336 -173 l 1,1,-1
 334 -136 l 1,2,-1
 316 28 l 1,3,4
 278 -8 278 -8 215 -8 c 0,5,6
 133 -8 133 -8 92 56 c 128,-1,7
 51 120 51 120 51 224 c 256,8,9
 51 328 51 328 92.5 392 c 128,-1,10
 134 456 134 456 216 456 c 0,11,12
 308 456 308 456 334 426 c 1,13,-1
 370 390 l 1,14,-1
 384 362 l 1,15,-1
 386 325 l 1,16,-1
 387.760742188 -105.068359375 l 1,17,-1
 401 -143 l 1,18,-1
 408 -196 l 1,19,-1
 336 -204 l 1,0,-1
316 99 m 1,20,-1
 316 350 l 1,21,22
 288 392 288 392 224 392 c 0,23,24
 189 392 189 392 168.5 376.5 c 128,-1,25
 148 361 148 361 138.5 325 c 128,-1,26
 129 289 129 289 129 224 c 0,27,28
 129 160 129 160 138.5 123.5 c 128,-1,29
 148 87 148 87 168.5 71.5 c 128,-1,30
 189 56 189 56 224 56 c 0,31,32
 287 56 287 56 316 99 c 1,20,-1
EndSplineSet
EndRedoOperation
EndRedoes
EndUndoRedoHistory
Fore
SplineSet
336 -204 m 1,0,-1
 336 -173 l 1,1,-1
 324 -136 l 5,2,-1
 316 28 l 1,3,4
 278 -8 278 -8 215 -8 c 0,5,6
 133 -8 133 -8 92 56 c 128,-1,7
 51 120 51 120 51 224 c 256,8,9
 51 328 51 328 92.5 392 c 128,-1,10
 134 456 134 456 216 456 c 0,11,12
 308 456 308 456 334 426 c 1,13,-1
 370 390 l 1,14,-1
 384 362 l 1,15,-1
 386 325 l 1,16,-1
 387.760742188 -105.068359375 l 1,17,-1
 401 -143 l 1,18,-1
 408 -196 l 1,19,-1
 336 -204 l 1,0,-1
316 99 m 1,20,-1
 316 350 l 1,21,22
 288 392 288 392 224 392 c 0,23,24
 189 392 189 392 168.5 376.5 c 128,-1,25
 148 361 148 361 138.5 325 c 128,-1,26
 129 289 129 289 129 224 c 0,27,28
 129 160 129 160 138.5 123.5 c 128,-1,29
 148 87 148 87 168.5 71.5 c 128,-1,30
 189 56 189 56 224 56 c 0,31,32
 287 56 287 56 316 99 c 1,20,-1
EndSplineSet
EndChar

StartChar: r
Encoding: 114 114 224
Width: 448
GlyphClass: 2
Flags: W
LayerCount: 2
UndoRedoHistory
Layer: 1
Undoes
EndUndoes
Redoes
RedoOperation
Index: 0
Type: 1
WasModified: 1
WasOrder2: 1
Layer: 2
Width: 448
VWidth: 1024
LBearingChange: 0
UnicodeEnc: 0
InstructionsLength: 0
SplineSet
107 365 m 1,0,-1
 105 -20 l 1,1,-1
 177 -20 l 1,2,-1
 177 324 l 1,3,4
 223 389 223 389 288 384 c 0,5,6
 350 380 350 380 372 367 c 5,7,-1
 385 435 l 5,8,9
 361 452 361 452 304 452 c 0,10,11
 171 452 171 452 131 403 c 1,12,-1
 107 365 l 1,0,-1
EndSplineSet
EndRedoOperation
EndRedoes
EndUndoRedoHistory
Fore
SplineSet
107 365 m 1,0,-1
 105 -20 l 1,1,-1
 177 -20 l 1,2,-1
 177 324 l 1,3,4
 223.368663594 388.700460829 223.368663594 388.700460829 288 384 c 0,5,6
 331 381 331 381 372 357 c 5,7,-1
 385 425 l 5,8,9
 346.379240201 452 346.379240201 452 304 452 c 0,10,11
 171 452 171 452 131 403 c 1,12,-1
 107 365 l 1,0,-1
EndSplineSet
EndChar

StartChar: s
Encoding: 115 115 228
Width: 448
GlyphClass: 2
Flags: W
LayerCount: 2
UndoRedoHistory
Layer: 1
Undoes
EndUndoes
Redoes
RedoOperation
Index: 0
Type: 3
WasModified: 0
WasOrder2: 1
Layer: 2
EndRedoOperation
EndRedoes
EndUndoRedoHistory
Fore
SplineSet
60 18 m 1,1,-1
 76 77 l 1,2,3
 147 56 147 56 209 56 c 0,4,5
 307 56 307 56 307 112 c 0,6,7
 307 140 307 140 283.5 155.5 c 128,-1,8
 260 171 260 171 211 188 c 0,9,10
 166 204 166 204 137.5 219 c 128,-1,11
 109 234 109 234 89 261 c 128,-1,12
 69 288 69 288 69 330 c 0,13,14
 69 386 69 386 114.5 421 c 128,-1,15
 160 456 160 456 238 456 c 0,16,17
 302 456 302 456 364 439 c 1,18,-1
 351 378 l 1,19,20
 298 392 298 392 242 392 c 0,21,22
 143 392 143 392 143 334 c 0,23,24
 143 305 143 305 166.5 290 c 128,-1,25
 190 275 190 275 241 257 c 0,26,27
 286 242 286 242 313.5 228 c 128,-1,28
 341 214 341 214 361 188 c 128,-1,29
 381 162 381 162 381 120 c 0,30,31
 381 58 381 58 333.5 25 c 128,-1,32
 286 -8 286 -8 212 -8 c 0,33,0
 135 -8 135 -8 60 18 c 1,1,-1
EndSplineSet
EndChar

StartChar: scedilla
Encoding: 351 351 231
Width: 448
GlyphClass: 2
Flags: W
LayerCount: 2
UndoRedoHistory
Layer: 1
Undoes
EndUndoes
Redoes
RedoOperation
Index: 0
Type: 3
WasModified: 0
WasOrder2: 1
Layer: 2
EndRedoOperation
EndRedoes
EndUndoRedoHistory
Fore
SplineSet
361.5 53.5 m 128,-1,1
 342 26 342 26 307 10 c 1,2,-1
 322 10 l 1,3,4
 322 -85 322 -85 282 -138.5 c 128,-1,5
 242 -192 242 -192 128 -192 c 1,6,-1
 126 -128 l 1,7,8
 175 -126 175 -126 201.5 -115 c 128,-1,9
 228 -104 228 -104 240 -78.5 c 128,-1,10
 252 -53 252 -53 254 -5 c 1,11,12
 233 -8 233 -8 212 -8 c 0,13,14
 135 -8 135 -8 60 18 c 1,15,-1
 76 77 l 1,16,17
 147 56 147 56 209 56 c 0,18,19
 307 56 307 56 307 112 c 0,20,21
 307 140 307 140 283.5 155.5 c 128,-1,22
 260 171 260 171 211 188 c 0,23,24
 166 204 166 204 137.5 219 c 128,-1,25
 109 234 109 234 89 261 c 128,-1,26
 69 288 69 288 69 330 c 0,27,28
 69 386 69 386 114.5 421 c 128,-1,29
 160 456 160 456 238 456 c 0,30,31
 302 456 302 456 364 439 c 1,32,-1
 351 378 l 1,33,34
 298 392 298 392 242 392 c 0,35,36
 143 392 143 392 143 334 c 0,37,38
 143 305 143 305 166.5 290 c 128,-1,39
 190 275 190 275 241 257 c 0,40,41
 286 242 286 242 313.5 228 c 128,-1,42
 341 214 341 214 361 188 c 128,-1,43
 381 162 381 162 381 120 c 0,44,0
 381 81 381 81 361.5 53.5 c 128,-1,1
EndSplineSet
Substitution2: "'locl' Localized Forms in Latin lookup 6 subtable" uni0219
Substitution2: "'aalt' Access All Alternates in Latin lookup 0 subtable" uni0219
EndChar

StartChar: germandbls
Encoding: 223 223 234
Width: 448
Flags: W
LayerCount: 2
UndoRedoHistory
Layer: 1
Undoes
EndUndoes
Redoes
RedoOperation
Index: 0
Type: 3
WasModified: 0
WasOrder2: 1
Layer: 2
EndRedoOperation
EndRedoes
EndUndoRedoHistory
Fore
SplineSet
281.5 468.5 m 128,-1,1
 269 451 269 451 244 431 c 0,2,3
 216 408 216 408 201 386 c 128,-1,4
 186 364 186 364 186 327 c 0,5,6
 186 280 186 280 208 253 c 128,-1,7
 230 226 230 226 270 199 c 0,8,9
 303 176 303 176 317.5 159.5 c 128,-1,10
 332 143 332 143 332 117 c 0,11,12
 332 86 332 86 316.5 72 c 128,-1,13
 301 58 301 58 267 58 c 0,14,15
 238 58 238 58 200 67 c 1,16,-1
 188 4 l 1,17,18
 229 -8 229 -8 274 -8 c 0,19,20
 332 -8 332 -8 370 24 c 128,-1,21
 408 56 408 56 408 117 c 0,22,23
 408 162 408 162 386 189.5 c 128,-1,24
 364 217 364 217 324 246 c 0,25,26
 293 269 293 269 277.5 286.5 c 128,-1,27
 262 304 262 304 262 328 c 0,28,29
 262 348 262 348 272.5 362 c 128,-1,30
 283 376 283 376 306 396 c 0,31,32
 337 423 337 423 353.5 448.5 c 128,-1,33
 370 474 370 474 370 516 c 0,34,35
 370 579 370 579 327 613.5 c 128,-1,36
 284 648 284 648 217 648 c 0,37,38
 146 648 146 648 103 611 c 128,-1,39
 60 574 60 574 60 496 c 2,40,-1
 60 0 l 1,41,-1
 132 0 l 1,42,-1
 132 502 l 2,43,44
 132 584 132 584 215 584 c 0,45,46
 294 584 294 584 294 513 c 0,47,0
 294 486 294 486 281.5 468.5 c 128,-1,1
EndSplineSet
EndChar

StartChar: longs
Encoding: 383 383 235
Width: 448
GlyphClass: 2
Flags: W
LayerCount: 2
UndoRedoHistory
Layer: 1
Undoes
EndUndoes
Redoes
RedoOperation
Index: 0
Type: 3
WasModified: 0
WasOrder2: 1
Layer: 2
EndRedoOperation
EndRedoes
EndUndoRedoHistory
Fore
SplineSet
134 0 m 1,0,-1
 134 383 l 1,1,-1
 59 386 l 1,2,-1
 59 448 l 1,3,-1
 134 448 l 1,4,-1
 134 504 l 2,5,6
 134 577 134 577 171 612.5 c 128,-1,7
 208 648 208 648 270 648 c 0,8,9
 324 648 324 648 378 638 c 1,10,-1
 367 575 l 1,11,12
 308 584 308 584 274 584 c 0,13,14
 206 584 206 584 206 509 c 2,15,-1
 206 0 l 1,16,-1
 134 0 l 1,0,-1
EndSplineSet
EndChar

StartChar: t
Encoding: 116 116 236
Width: 448
GlyphClass: 2
Flags: W
LayerCount: 2
UndoRedoHistory
Layer: 1
Undoes
EndUndoes
Redoes
RedoOperation
Index: 0
Type: 1
WasModified: 1
WasOrder2: 1
Layer: 2
Width: 448
VWidth: 1024
LBearingChange: 0
UnicodeEnc: 0
InstructionsLength: 0
SplineSet
272 25 m 1,0,1
 272 25 272 25 276 16 c 1,2,3
 276 16 276 16 262 0 c 5,4,-1
 224 -30 l 1,5,6
 224 -30 224 -30 194 62 c 1,7,-1
 190 90 l 1,8,-1
 184 369 l 1,9,-1
 57 366 l 1,10,-1
 57 441 l 1,11,-1
 184 443 l 1,12,-1
 183 585 l 1,13,-1
 255 584 l 1,14,-1
 256 443 l 1,15,-1
 401 440 l 1,16,-1
 401 369 l 1,17,-1
 263 371 l 1,18,19
 245 94 245 94 272 25 c 1,0,1
EndSplineSet
EndRedoOperation
EndRedoes
EndUndoRedoHistory
Fore
SplineSet
272 25 m 1,0,1
 272 25 272 25 276 16 c 1,2,3
 276 16 276 16 298 -30 c 5,4,-1
 224 -30 l 1,5,6
 224 -30 224 -30 194 62 c 1,7,-1
 190 90 l 1,8,-1
 184 369 l 1,9,-1
 57 366 l 1,10,-1
 57 441 l 1,11,-1
 184 443 l 1,12,-1
 183 585 l 1,13,-1
 255 584 l 1,14,-1
 256 443 l 1,15,-1
 401 440 l 1,16,-1
 401 369 l 1,17,-1
 263 371 l 1,18,19
 245 94 245 94 272 25 c 1,0,1
EndSplineSet
EndChar

StartChar: tbar
Encoding: 359 359 237
Width: 448
GlyphClass: 2
Flags: W
LayerCount: 2
UndoRedoHistory
Layer: 1
Undoes
EndUndoes
Redoes
RedoOperation
Index: 0
Type: 3
WasModified: 0
WasOrder2: 1
Layer: 2
EndRedoOperation
EndRedoes
EndUndoRedoHistory
Fore
SplineSet
358 2 m 1,0,1
 304 -8 304 -8 255 -8 c 0,2,3
 114 -8 114 -8 114 139 c 2,4,-1
 114 189 l 1,5,-1
 67 189 l 1,6,-1
 67 249 l 1,7,-1
 114 249 l 1,8,-1
 114 383 l 1,9,-1
 39 387 l 1,10,-1
 39 448 l 1,11,-1
 114 448 l 1,12,-1
 114 576 l 1,13,-1
 186 576 l 1,14,-1
 186 448 l 1,15,-1
 344 448 l 1,16,-1
 344 384 l 1,17,-1
 186 384 l 1,18,-1
 186 249 l 1,19,-1
 323 249 l 1,20,-1
 323 189 l 1,21,-1
 186 189 l 1,22,-1
 186 133 l 2,23,24
 186 57 186 57 259 57 c 0,25,26
 302 57 302 57 349 65 c 1,27,-1
 358 2 l 1,0,1
EndSplineSet
EndChar

StartChar: tcaron
Encoding: 357 357 238
Width: 448
Flags: W
LayerCount: 2
UndoRedoHistory
Layer: 1
Undoes
EndUndoes
Redoes
RedoOperation
Index: 0
Type: 3
WasModified: 0
WasOrder2: 1
Layer: 2
EndRedoOperation
EndRedoes
EndUndoRedoHistory
Fore
SplineSet
330 457 m 1,0,1
 348 502 348 502 356 544.5 c 128,-1,2
 364 587 364 587 364 640 c 1,3,-1
 436 640 l 1,4,5
 436 580 436 580 422.5 531 c 128,-1,6
 409 482 409 482 382 436 c 1,7,-1
 330 457 l 1,0,1
124 576 m 1,8,-1
 196 576 l 1,9,-1
 196 448 l 1,10,-1
 286 448 l 1,11,-1
 286 384 l 1,12,-1
 196 384 l 1,13,-1
 196 133 l 2,14,15
 196 57 196 57 269 57 c 0,16,17
 312 57 312 57 359 65 c 1,18,-1
 368 2 l 1,19,20
 314 -8 314 -8 265 -8 c 0,21,22
 124 -8 124 -8 124 139 c 2,23,-1
 124 383 l 1,24,-1
 49 387 l 1,25,-1
 49 448 l 1,26,-1
 124 448 l 1,27,-1
 124 576 l 1,8,-1
EndSplineSet
EndChar

StartChar: uni0163
Encoding: 355 355 239
Width: 448
GlyphClass: 2
Flags: W
LayerCount: 2
UndoRedoHistory
Layer: 1
Undoes
EndUndoes
Redoes
RedoOperation
Index: 0
Type: 3
WasModified: 0
WasOrder2: 1
Layer: 2
EndRedoOperation
EndRedoes
EndUndoRedoHistory
Fore
SplineSet
358 2 m 1,0,-1
 322 -4 l 1,1,2
 319 -92 319 -92 278 -142 c 128,-1,3
 237 -192 237 -192 128 -192 c 1,4,-1
 126 -128 l 1,5,6
 174 -126 174 -126 200.5 -115 c 128,-1,7
 227 -104 227 -104 239.5 -79 c 128,-1,8
 252 -54 252 -54 254 -8 c 1,9,10
 114 -8 114 -8 114 139 c 2,11,-1
 114 383 l 1,12,-1
 39 387 l 1,13,-1
 39 448 l 1,14,-1
 114 448 l 1,15,-1
 114 576 l 1,16,-1
 186 576 l 1,17,-1
 186 448 l 1,18,-1
 344 448 l 1,19,-1
 344 384 l 1,20,-1
 186 384 l 1,21,-1
 186 133 l 2,22,23
 186 57 186 57 259 57 c 0,24,25
 302 57 302 57 349 65 c 1,26,-1
 358 2 l 1,0,-1
EndSplineSet
Substitution2: "'locl' Localized Forms in Latin lookup 6 subtable" uni021B
Substitution2: "'aalt' Access All Alternates in Latin lookup 0 subtable" uni021B
EndChar

StartChar: u
Encoding: 117 117 241
Width: 448
GlyphClass: 2
Flags: W
LayerCount: 2
UndoRedoHistory
Layer: 1
Undoes
EndUndoes
Redoes
RedoOperation
Index: 0
Type: 3
WasModified: 0
WasOrder2: 1
Layer: 2
EndRedoOperation
EndRedoes
EndUndoRedoHistory
Fore
SplineSet
388 107 m 1,0,-1
 388 107 l 1,1,-1
 387 80 l 1,2,3
 387 80 387 80 300 20 c 0,4,5
 242 -4 242 -4 186.5 -4 c 128,-1,6
 131 -4 131 -4 95.5 31.5 c 128,-1,7
 60 67 60 67 60 151 c 2,8,-1
 60 448 l 1,9,-1
 132 448 l 1,10,-1
 132 159 l 2,11,12
 132 106 132 106 147 83 c 128,-1,13
 162 60 162 60 201 60 c 0,14,15
 230 60 230 60 260 76 c 128,-1,16
 290 92 290 92 316 118 c 1,17,-1
 316 448 l 1,18,-1
 388 448 l 1,19,-1
 388 107 l 1,20,-1
 388 107 l 1,0,-1
EndSplineSet
EndChar

StartChar: uogonek
Encoding: 371 371 249
Width: 448
GlyphClass: 2
Flags: W
LayerCount: 2
UndoRedoHistory
Layer: 1
Undoes
EndUndoes
Redoes
RedoOperation
Index: 0
Type: 3
WasModified: 0
WasOrder2: 1
Layer: 2
EndRedoOperation
EndRedoes
EndUndoRedoHistory
Fore
SplineSet
407 -181 m 1,0,1
 379 -197 379 -197 343 -197 c 0,2,3
 302 -197 302 -197 280.5 -176 c 128,-1,4
 259 -155 259 -155 259 -118 c 0,5,6
 259 -57 259 -57 324 2 c 1,7,-1
 318 48 l 1,8,9
 290 24 290 24 256 10 c 128,-1,10
 222 -4 222 -4 187 -4 c 0,11,12
 131 -4 131 -4 95.5 31.5 c 128,-1,13
 60 67 60 67 60 151 c 2,14,-1
 60 448 l 1,15,-1
 132 448 l 1,16,-1
 132 159 l 2,17,18
 132 106 132 106 147 83 c 128,-1,19
 162 60 162 60 201 60 c 0,20,21
 230 60 230 60 260 76 c 128,-1,22
 290 92 290 92 316 118 c 1,23,-1
 316 448 l 1,24,-1
 388 448 l 1,25,-1
 388 65 l 1,26,-1
 390 0 l 1,27,28
 359 -34 359 -34 344 -59.5 c 128,-1,29
 329 -85 329 -85 329 -108 c 0,30,31
 329 -136 329 -136 357 -136 c 0,32,33
 372 -136 372 -136 390 -128 c 1,34,-1
 407 -181 l 1,0,1
EndSplineSet
EndChar

StartChar: v
Encoding: 118 118 252
Width: 448
GlyphClass: 2
Flags: W
LayerCount: 2
UndoRedoHistory
Layer: 1
Undoes
EndUndoes
Redoes
RedoOperation
Index: 0
Type: 3
WasModified: 0
WasOrder2: 1
Layer: 2
EndRedoOperation
EndRedoes
EndUndoRedoHistory
Fore
SplineSet
406 448 m 1,0,1
 394 308 394 308 355 203 c 128,-1,2
 316 98 316 98 249 -2 c 1,3,-1
 199 -2 l 1,4,5
 132 98 132 98 93 203 c 128,-1,6
 54 308 54 308 42 448 c 1,7,-1
 117 448 l 1,8,9
 128 323 128 323 153 244 c 128,-1,10
 178 165 178 165 224 86 c 1,11,12
 270 165 270 165 295 244 c 128,-1,13
 320 323 320 323 331 448 c 1,14,-1
 406 448 l 1,0,1
EndSplineSet
EndChar

StartChar: x
Encoding: 120 120 258
Width: 448
GlyphClass: 2
Flags: W
LayerCount: 2
UndoRedoHistory
Layer: 1
Undoes
EndUndoes
Redoes
RedoOperation
Index: 0
Type: 1
WasModified: 0
WasOrder2: 1
Layer: 2
Width: 448
VWidth: 1024
LBearingChange: 0
UnicodeEnc: 0
InstructionsLength: 0
SplineSet
359.444292559 133.55383084 m 0,0,1
 388 78 388 78 392 0 c 1,2,-1
 320 0 l 1,3,4
 315 64 315 64 292.561775939 107.380566519 c 0,5,6
 270 151 270 151 224 185 c 1,7,8
 178 151 178 151 155.438224061 107.380566519 c 0,9,10
 133 64 133 64 128 0 c 1,11,-1
 56 0 l 1,12,13
 60 78 60 78 88.555707441 133.55383084 c 0,14,15
 115 185 115 185 166 224 c 1,16,17
 118 259 118 259 92.4707484559 314.063091566 c 128,-1,18
 67 369 67 369 62 448 c 1,19,-1
 134 448 l 1,20,21
 140 373 140 373 159.795149569 332.902132924 c 0,22,23
 179 294 179 294 224 262 c 1,24,25
 269 294 269 294 288.204850431 332.902132924 c 0,26,27
 308 373 308 373 314 448 c 1,28,-1
 386 448 l 1,29,30
 381 369 381 369 355.529251544 314.063091566 c 128,-1,31
 330 259 330 259 282 224 c 1,32,33
 333 185 333 185 359.444292559 133.55383084 c 0,0,1
EndSplineSet
EndRedoOperation
EndRedoes
EndUndoRedoHistory
Fore
SplineSet
360.5 131.5 m 128,-1,1
 388 78 388 78 392 0 c 1,2,-1
 320 0 l 1,3,4
 315 64 315 64 292.5 107.5 c 128,-1,5
 270 151 270 151 224 185 c 1,6,7
 178 151 178 151 155.5 107.5 c 128,-1,8
 133 64 133 64 128 0 c 1,9,-1
 56 0 l 1,10,11
 60 78 60 78 87.5 131.5 c 128,-1,12
 115 185 115 185 166 224 c 1,13,14
 118 259 118 259 92.5 314 c 128,-1,15
 67 369 67 369 62 448 c 1,16,-1
 134 448 l 1,17,18
 140 373 140 373 159.5 333.5 c 128,-1,19
 179 294 179 294 224 262 c 1,20,21
 269 294 269 294 288.5 333.5 c 128,-1,22
 308 373 308 373 314 448 c 1,23,-1
 386 448 l 1,24,25
 381 369 381 369 355.5 314 c 128,-1,26
 330 259 330 259 282 224 c 1,27,0
 333 185 333 185 360.5 131.5 c 128,-1,1
EndSplineSet
EndChar

StartChar: y
Encoding: 121 121 259
Width: 448
GlyphClass: 2
Flags: W
LayerCount: 2
UndoRedoHistory
Layer: 1
Undoes
EndUndoes
Redoes
RedoOperation
Index: 0
Type: 3
WasModified: 0
WasOrder2: 1
Layer: 2
EndRedoOperation
EndRedoes
EndUndoRedoHistory
Fore
SplineSet
390 448 m 1,0,1
 390 273 390 273 385 184 c 128,-1,2
 380 95 380 95 369 34 c 0,3,4
 350 -69 350 -69 289.5 -124 c 128,-1,5
 229 -179 229 -179 112 -199 c 1,6,-1
 97 -137 l 1,7,8
 191 -120 191 -120 232.5 -84.5 c 128,-1,9
 274 -49 274 -49 290 10 c 1,10,11
 192 25 192 25 142 72.5 c 128,-1,12
 92 120 92 120 71 202.5 c 128,-1,13
 50 285 50 285 32 448 c 1,14,-1
 103 448 l 1,15,16
 120 292 120 292 139 220 c 128,-1,17
 158 148 158 148 193.5 117 c 128,-1,18
 229 86 229 86 303 73 c 1,19,20
 312 135 312 135 315 218 c 128,-1,21
 318 301 318 301 318 448 c 1,22,-1
 390 448 l 1,0,1
EndSplineSet
EndChar

StartChar: z
Encoding: 122 122 264
Width: 448
GlyphClass: 2
Flags: W
LayerCount: 2
UndoRedoHistory
Layer: 1
Undoes
EndUndoes
Redoes
RedoOperation
Index: 0
Type: 1
WasModified: 1
WasOrder2: 1
Layer: 2
Width: 448
VWidth: 1024
LBearingChange: 0
UnicodeEnc: 0
InstructionsLength: 0
SplineSet
262.170898438 221 m 1,0,-1
 150 64 l 1,1,-1
 388 64 l 1,2,-1
 388 0 l 1,3,-1
 55 0 l 1,4,-1
 55 56 l 1,5,-1
 173.877929688 221 l 1,6,-1
 35 221 l 1,7,-1
 35 236 l 1,8,-1
 185.682617188 236 l 1,9,-1
 289 384 l 1,10,-1
 70 384 l 1,11,-1
 70 448 l 1,12,-1
 384 448 l 1,13,-1
 384 392 l 1,14,-1
 272.975585938 236 l 1,15,-1
 418 236 l 1,16,-1
 418 221 l 1,17,-1
 262.170898438 221 l 1,0,-1
EndSplineSet
EndRedoOperation
EndRedoes
EndUndoRedoHistory
Fore
SplineSet
262.170898438 221 m 1,0,-1
 150 64 l 1,1,-1
 388 64 l 1,2,-1
 388 0 l 1,3,-1
 55 0 l 1,4,-1
 55 56 l 1,5,-1
 173.877929688 221 l 1,6,-1
 35 221 l 1,7,-1
 35 237 l 5,8,-1
 185.682617188 237 l 5,9,-1
 289 384 l 1,10,-1
 70 384 l 1,11,-1
 70 448 l 1,12,-1
 384 448 l 1,13,-1
 384 392 l 1,14,-1
 272.975585938 237 l 5,15,-1
 418 237 l 5,16,-1
 418 221 l 1,17,-1
 262.170898438 221 l 1,0,-1
EndSplineSet
EndChar

StartChar: g.ss01
Encoding: 1114113 -1 268
Width: 448
GlyphClass: 2
Flags: W
LayerCount: 2
UndoRedoHistory
Layer: 1
Undoes
EndUndoes
Redoes
RedoOperation
Index: 0
Type: 3
WasModified: 0
WasOrder2: 1
Layer: 2
EndRedoOperation
EndRedoes
EndUndoRedoHistory
Fore
SplineSet
268 75 m 2,0,1
 349 75 349 75 389 38.5 c 128,-1,2
 429 2 429 2 429 -57 c 0,3,4
 429 -127 429 -127 380 -163.5 c 128,-1,5
 331 -200 331 -200 233 -200 c 0,6,7
 129 -200 129 -200 83 -162 c 128,-1,8
 37 -124 37 -124 37 -68 c 0,9,10
 37 -43 37 -43 48 -18 c 128,-1,11
 59 7 59 7 81 25 c 1,12,13
 47 50 47 50 47 97 c 0,14,15
 47 122 47 122 61 144.5 c 128,-1,16
 75 167 75 167 98 183 c 1,17,18
 53 225 53 225 53 299 c 0,19,20
 53 368 53 368 96.5 412 c 128,-1,21
 140 456 140 456 220 456 c 0,22,23
 253 456 253 456 280 448 c 1,24,-1
 428 448 l 1,25,-1
 428 390 l 1,26,-1
 364 387 l 1,27,28
 387 349 387 349 387 299 c 0,29,30
 387 232 387 232 343.5 187 c 128,-1,31
 300 142 300 142 220 142 c 0,32,33
 175 142 175 142 145 155 c 1,34,35
 132 146 132 146 125 133 c 128,-1,36
 118 120 118 120 118 107 c 0,37,38
 118 75 118 75 162 75 c 2,39,-1
 268 75 l 2,0,1
152.5 371 m 128,-1,41
 130 346 130 346 130 299 c 0,42,43
 130 202 130 202 220 202 c 256,44,45
 310 202 310 202 310 299 c 0,46,47
 310 346 310 346 287.5 371 c 128,-1,48
 265 396 265 396 220 396 c 256,49,40
 175 396 175 396 152.5 371 c 128,-1,41
328.5 -116.5 m 128,-1,51
 355 -97 355 -97 355 -62 c 0,52,53
 355 3 355 3 265 3 c 2,54,-1
 168 3 l 2,55,56
 146 3 146 3 129 6 c 1,57,58
 119 -9 119 -9 114 -26 c 128,-1,59
 109 -43 109 -43 109 -57 c 0,60,61
 109 -93 109 -93 134.5 -114.5 c 128,-1,62
 160 -136 160 -136 233 -136 c 0,63,50
 302 -136 302 -136 328.5 -116.5 c 128,-1,51
EndSplineSet
EndChar

StartChar: ordfeminine
Encoding: 170 170 269
Width: 448
Flags: W
LayerCount: 2
UndoRedoHistory
Layer: 1
Undoes
EndUndoes
Redoes
RedoOperation
Index: 0
Type: 3
WasModified: 0
WasOrder2: 1
Layer: 2
EndRedoOperation
EndRedoes
EndUndoRedoHistory
Fore
SplineSet
324 320 m 1,0,-1
 264 320 l 1,1,-1
 259 349 l 1,2,3
 230 332 230 332 206 324.5 c 128,-1,4
 182 317 182 317 155 317 c 0,5,6
 115 317 115 317 89 341 c 128,-1,7
 63 365 63 365 63 405 c 0,8,9
 63 459 63 459 107.5 485.5 c 128,-1,10
 152 512 152 512 256 516 c 1,11,-1
 256 525 l 2,12,13
 256 564 256 564 243 577.5 c 128,-1,14
 230 591 230 591 192 591 c 0,15,16
 150 591 150 591 100 579 c 1,17,-1
 88 631 l 1,18,19
 150 646 150 646 198 646 c 0,20,21
 260 646 260 646 290 620 c 128,-1,22
 320 594 320 594 320 531 c 2,23,-1
 320 366 l 1,24,-1
 324 320 l 1,0,-1
139.5 382 m 128,-1,26
 150 373 150 373 168 373 c 0,27,28
 210 373 210 373 256 400 c 1,29,-1
 256 463 l 1,30,31
 189 461 189 461 159 448 c 128,-1,32
 129 435 129 435 129 409 c 0,33,25
 129 391 129 391 139.5 382 c 128,-1,26
EndSplineSet
EndChar

StartChar: ordmasculine
Encoding: 186 186 270
Width: 448
Flags: W
LayerCount: 2
UndoRedoHistory
Layer: 1
Undoes
EndUndoes
Redoes
RedoOperation
Index: 0
Type: 3
WasModified: 0
WasOrder2: 1
Layer: 2
EndRedoOperation
EndRedoes
EndUndoRedoHistory
Fore
SplineSet
86.5 358 m 128,-1,1
 51 404 51 404 51 480 c 256,2,3
 51 556 51 556 86.5 602 c 128,-1,4
 122 648 122 648 192 648 c 256,5,6
 262 648 262 648 298 602 c 128,-1,7
 334 556 334 556 334 480 c 256,8,9
 334 404 334 404 298 358 c 128,-1,10
 262 312 262 312 192 312 c 256,11,0
 122 312 122 312 86.5 358 c 128,-1,1
134.5 565 m 128,-1,13
 117 537 117 537 117 480 c 0,14,15
 117 422 117 422 134.5 394.5 c 128,-1,16
 152 367 152 367 192 367 c 0,17,18
 233 367 233 367 250.5 394.5 c 128,-1,19
 268 422 268 422 268 480 c 0,20,21
 268 537 268 537 250 565 c 128,-1,22
 232 593 232 593 192 593 c 256,23,12
 152 593 152 593 134.5 565 c 128,-1,13
EndSplineSet
EndChar

StartChar: uni207F
Encoding: 8319 8319 271
Width: 448
Flags: W
LayerCount: 2
UndoRedoHistory
Layer: 1
Undoes
EndUndoes
Redoes
RedoOperation
Index: 0
Type: 3
WasModified: 0
WasOrder2: 1
Layer: 2
EndRedoOperation
EndRedoes
EndUndoRedoHistory
Fore
SplineSet
320 519 m 2,1,-1
 320 320 l 1,2,-1
 256 320 l 1,3,-1
 256 514 l 2,4,5
 256 554 256 554 246.5 570.5 c 128,-1,6
 237 587 237 587 209 587 c 0,7,8
 171 587 171 587 128 548 c 1,9,-1
 128 320 l 1,10,-1
 64 320 l 1,11,-1
 64 589 l 1,12,-1
 60 640 l 1,13,-1
 120 640 l 1,14,-1
 125 608 l 1,15,16
 170 643 170 643 221 643 c 0,17,0
 320 643 320 643 320 519 c 2,1,-1
EndSplineSet
EndChar

StartChar: A.sups
Encoding: 1114114 -1 272
Width: 448
Flags: W
LayerCount: 2
UndoRedoHistory
Layer: 1
Undoes
EndUndoes
Redoes
RedoOperation
Index: 0
Type: 3
WasModified: 0
WasOrder2: 1
Layer: 2
EndRedoOperation
EndRedoes
EndUndoRedoHistory
Fore
SplineSet
320 640 m 1,0,-1
 320 320 l 1,1,-1
 256 320 l 1,2,-1
 256 448 l 1,3,-1
 192 448 l 1,4,-1
 192 320 l 1,5,-1
 128 320 l 1,6,-1
 128 640 l 1,7,-1
 320 640 l 1,0,-1
192 512 m 1,8,-1
 256 512 l 1,9,-1
 256 576 l 1,10,-1
 192 576 l 1,11,-1
 192 512 l 1,8,-1
EndSplineSet
EndChar

StartChar: B.sups
Encoding: 1114115 -1 273
Width: 448
Flags: W
LayerCount: 2
UndoRedoHistory
Layer: 1
Undoes
EndUndoes
Redoes
RedoOperation
Index: 0
Type: 3
WasModified: 0
WasOrder2: 1
Layer: 2
EndRedoOperation
EndRedoes
EndUndoRedoHistory
Fore
SplineSet
320 640 m 1,0,-1
 320 512 l 1,1,-1
 256 512 l 1,2,-1
 256 576 l 1,3,-1
 192 576 l 1,4,-1
 192 512 l 1,5,-1
 256 512 l 1,6,-1
 256 448 l 1,7,-1
 192 448 l 1,8,-1
 192 384 l 1,9,-1
 256 384 l 1,10,-1
 256 448 l 1,11,-1
 320 448 l 1,12,-1
 320 320 l 1,13,-1
 128 320 l 1,14,-1
 128 640 l 1,15,-1
 320 640 l 1,0,-1
EndSplineSet
EndChar

StartChar: C.sups
Encoding: 1114116 -1 274
Width: 448
Flags: W
LayerCount: 2
UndoRedoHistory
Layer: 1
Undoes
EndUndoes
Redoes
RedoOperation
Index: 0
Type: 3
WasModified: 0
WasOrder2: 1
Layer: 2
EndRedoOperation
EndRedoes
EndUndoRedoHistory
Fore
SplineSet
316 377 m 1,1,-1
 326 326 l 1,2,3
 291 316 291 316 252 316 c 0,4,5
 193 316 193 316 160.5 358 c 128,-1,6
 128 400 128 400 128 480 c 256,7,8
 128 560 128 560 160.5 602 c 128,-1,9
 193 644 193 644 252 644 c 0,10,11
 291 644 291 644 326 634 c 1,12,-1
 316 583 l 1,13,14
 281 590 281 590 256 590 c 0,15,16
 223 590 223 590 207.5 568 c 128,-1,17
 192 546 192 546 192 480 c 256,18,19
 192 414 192 414 207.5 392 c 128,-1,20
 223 370 223 370 256 370 c 0,21,0
 281 370 281 370 316 377 c 1,1,-1
EndSplineSet
EndChar

StartChar: D.sups
Encoding: 1114117 -1 275
Width: 448
Flags: W
LayerCount: 2
UndoRedoHistory
Layer: 1
Undoes
EndUndoes
Redoes
RedoOperation
Index: 0
Type: 3
WasModified: 0
WasOrder2: 1
Layer: 2
EndRedoOperation
EndRedoes
EndUndoRedoHistory
Fore
SplineSet
192 384 m 1,0,-1
 256 384 l 1,1,-1
 256 320 l 1,2,-1
 128 320 l 1,3,-1
 128 640 l 1,4,-1
 256 640 l 1,5,-1
 256 576 l 1,6,-1
 192 576 l 1,7,-1
 192 384 l 1,0,-1
256 576 m 1,8,-1
 320 576 l 1,9,-1
 320 384 l 1,10,-1
 256 384 l 1,11,-1
 256 576 l 1,8,-1
EndSplineSet
EndChar

StartChar: E.sups
Encoding: 1114118 -1 276
Width: 448
Flags: W
CounterMasks: 1 e0
LayerCount: 2
UndoRedoHistory
Layer: 1
Undoes
EndUndoes
Redoes
RedoOperation
Index: 0
Type: 3
WasModified: 0
WasOrder2: 1
Layer: 2
EndRedoOperation
EndRedoes
EndUndoRedoHistory
Fore
SplineSet
320 576 m 1,0,-1
 192 576 l 1,1,-1
 192 512 l 1,2,-1
 320 512 l 1,3,-1
 320 448 l 1,4,-1
 192 448 l 1,5,-1
 192 384 l 1,6,-1
 320 384 l 1,7,-1
 320 320 l 1,8,-1
 128 320 l 1,9,-1
 128 640 l 1,10,-1
 320 640 l 1,11,-1
 320 576 l 1,0,-1
EndSplineSet
EndChar

StartChar: F.sups
Encoding: 1114119 -1 277
Width: 448
Flags: W
LayerCount: 2
UndoRedoHistory
Layer: 1
Undoes
EndUndoes
Redoes
RedoOperation
Index: 0
Type: 3
WasModified: 0
WasOrder2: 1
Layer: 2
EndRedoOperation
EndRedoes
EndUndoRedoHistory
Fore
SplineSet
192 320 m 1,0,-1
 128 320 l 1,1,-1
 128 640 l 1,2,-1
 320 640 l 1,3,-1
 320 584 l 1,4,-1
 192 584 l 1,5,-1
 192 504 l 1,6,-1
 300 504 l 1,7,-1
 300 448 l 1,8,-1
 192 448 l 1,9,-1
 192 320 l 1,0,-1
EndSplineSet
EndChar

StartChar: G.sups
Encoding: 1114120 -1 278
Width: 448
Flags: W
LayerCount: 2
UndoRedoHistory
Layer: 1
Undoes
EndUndoes
Redoes
RedoOperation
Index: 0
Type: 3
WasModified: 0
WasOrder2: 1
Layer: 2
EndRedoOperation
EndRedoes
EndUndoRedoHistory
Fore
SplineSet
320 640 m 1,0,-1
 320 576 l 1,1,-1
 192 576 l 1,2,-1
 192 640 l 1,3,-1
 320 640 l 1,0,-1
192 576 m 1,4,-1
 192 384 l 1,5,-1
 128 384 l 1,6,-1
 128 576 l 1,7,-1
 192 576 l 1,4,-1
320 320 m 1,8,-1
 192 320 l 1,9,-1
 192 384 l 1,10,-1
 256 384 l 1,11,-1
 256 512 l 1,12,-1
 320 512 l 1,13,-1
 320 320 l 1,8,-1
EndSplineSet
EndChar

StartChar: H.sups
Encoding: 1114121 -1 279
Width: 448
Flags: W
LayerCount: 2
UndoRedoHistory
Layer: 1
Undoes
EndUndoes
Redoes
RedoOperation
Index: 0
Type: 3
WasModified: 0
WasOrder2: 1
Layer: 2
EndRedoOperation
EndRedoes
EndUndoRedoHistory
Fore
SplineSet
128 640 m 1,0,-1
 192 640 l 1,1,-1
 192 508 l 1,2,-1
 256 508 l 1,3,-1
 256 640 l 1,4,-1
 320 640 l 1,5,-1
 320 320 l 1,6,-1
 256 320 l 1,7,-1
 256 452 l 1,8,-1
 192 452 l 1,9,-1
 192 320 l 1,10,-1
 128 320 l 1,11,-1
 128 640 l 1,0,-1
EndSplineSet
EndChar

StartChar: I.sups
Encoding: 1114122 -1 280
Width: 448
Flags: W
LayerCount: 2
UndoRedoHistory
Layer: 1
Undoes
EndUndoes
Redoes
RedoOperation
Index: 0
Type: 3
WasModified: 0
WasOrder2: 1
Layer: 2
EndRedoOperation
EndRedoes
EndUndoRedoHistory
Fore
SplineSet
256 376 m 1,0,-1
 320 368 l 1,1,-1
 320 320 l 1,2,-1
 128 320 l 1,3,-1
 128 368 l 1,4,-1
 192 376 l 1,5,-1
 192 584 l 1,6,-1
 128 592 l 1,7,-1
 128 640 l 1,8,-1
 320 640 l 1,9,-1
 320 592 l 1,10,-1
 256 584 l 1,11,-1
 256 376 l 1,0,-1
EndSplineSet
EndChar

StartChar: J.sups
Encoding: 1114123 -1 281
Width: 448
Flags: W
LayerCount: 2
UndoRedoHistory
Layer: 1
Undoes
EndUndoes
Redoes
RedoOperation
Index: 0
Type: 3
WasModified: 0
WasOrder2: 1
Layer: 2
EndRedoOperation
EndRedoes
EndUndoRedoHistory
Fore
SplineSet
320 640 m 1,0,-1
 320 384 l 1,1,-1
 256 384 l 1,2,-1
 256 576 l 1,3,-1
 128 576 l 1,4,-1
 128 640 l 1,5,-1
 320 640 l 1,0,-1
128 320 m 1,6,-1
 128 384 l 1,7,-1
 256 384 l 1,8,-1
 256 320 l 1,9,-1
 128 320 l 1,6,-1
EndSplineSet
EndChar

StartChar: K.sups
Encoding: 1114124 -1 282
Width: 448
Flags: W
LayerCount: 2
UndoRedoHistory
Layer: 1
Undoes
EndUndoes
Redoes
RedoOperation
Index: 0
Type: 3
WasModified: 0
WasOrder2: 1
Layer: 2
EndRedoOperation
EndRedoes
EndUndoRedoHistory
Fore
SplineSet
192 640 m 1,0,-1
 192 512 l 1,1,-1
 256 512 l 1,2,-1
 256 448 l 1,3,-1
 192 448 l 1,4,-1
 192 320 l 1,5,-1
 128 320 l 1,6,-1
 128 640 l 1,7,-1
 192 640 l 1,0,-1
256 640 m 1,8,-1
 320 640 l 1,9,-1
 320 512 l 1,10,-1
 256 512 l 1,11,-1
 256 640 l 1,8,-1
320 320 m 1,12,-1
 256 320 l 1,13,-1
 256 448 l 1,14,-1
 320 448 l 1,15,-1
 320 320 l 1,12,-1
EndSplineSet
EndChar

StartChar: L.sups
Encoding: 1114125 -1 283
Width: 448
Flags: W
LayerCount: 2
UndoRedoHistory
Layer: 1
Undoes
EndUndoes
Redoes
RedoOperation
Index: 0
Type: 3
WasModified: 0
WasOrder2: 1
Layer: 2
EndRedoOperation
EndRedoes
EndUndoRedoHistory
Fore
SplineSet
192 376 m 1,0,-1
 320 376 l 1,1,-1
 320 320 l 1,2,-1
 128 320 l 1,3,-1
 128 640 l 1,4,-1
 192 640 l 1,5,-1
 192 376 l 1,0,-1
EndSplineSet
EndChar

StartChar: M.sups
Encoding: 1114126 -1 284
Width: 448
Flags: W
LayerCount: 2
UndoRedoHistory
Layer: 1
Undoes
EndUndoes
Redoes
RedoOperation
Index: 0
Type: 3
WasModified: 0
WasOrder2: 1
Layer: 2
EndRedoOperation
EndRedoes
EndUndoRedoHistory
Fore
SplineSet
320 640 m 1,0,-1
 320 320 l 1,1,-1
 256 320 l 1,2,-1
 256 384 l 1,3,-1
 192 384 l 1,4,-1
 192 320 l 1,5,-1
 128 320 l 1,6,-1
 128 640 l 1,7,-1
 320 640 l 1,0,-1
EndSplineSet
EndChar

StartChar: N.sups
Encoding: 1114127 -1 285
Width: 448
Flags: W
LayerCount: 2
UndoRedoHistory
Layer: 1
Undoes
EndUndoes
Redoes
RedoOperation
Index: 0
Type: 3
WasModified: 0
WasOrder2: 1
Layer: 2
EndRedoOperation
EndRedoes
EndUndoRedoHistory
Fore
SplineSet
128 640 m 1,0,-1
 256 640 l 1,1,-1
 256 576 l 1,2,-1
 192 576 l 1,3,-1
 192 320 l 1,4,-1
 128 320 l 1,5,-1
 128 640 l 1,0,-1
256 576 m 1,6,-1
 320 576 l 1,7,-1
 320 320 l 1,8,-1
 256 320 l 1,9,-1
 256 576 l 1,6,-1
EndSplineSet
EndChar

StartChar: O.sups
Encoding: 1114128 -1 286
Width: 448
Flags: W
LayerCount: 2
UndoRedoHistory
Layer: 1
Undoes
EndUndoes
Redoes
RedoOperation
Index: 0
Type: 3
WasModified: 0
WasOrder2: 1
Layer: 2
EndRedoOperation
EndRedoes
EndUndoRedoHistory
Fore
SplineSet
320 640 m 1,0,-1
 320 320 l 1,1,-1
 128 320 l 1,2,-1
 128 640 l 1,3,-1
 320 640 l 1,0,-1
256 576 m 1,4,-1
 192 576 l 1,5,-1
 192 384 l 1,6,-1
 256 384 l 1,7,-1
 256 576 l 1,4,-1
EndSplineSet
EndChar

StartChar: P.sups
Encoding: 1114129 -1 287
Width: 448
Flags: W
LayerCount: 2
UndoRedoHistory
Layer: 1
Undoes
EndUndoes
Redoes
RedoOperation
Index: 0
Type: 3
WasModified: 0
WasOrder2: 1
Layer: 2
EndRedoOperation
EndRedoes
EndUndoRedoHistory
Fore
SplineSet
320 640 m 1,0,-1
 320 448 l 1,1,-1
 192 448 l 1,2,-1
 192 320 l 1,3,-1
 128 320 l 1,4,-1
 128 640 l 1,5,-1
 320 640 l 1,0,-1
192 512 m 1,6,-1
 256 512 l 1,7,-1
 256 576 l 1,8,-1
 192 576 l 1,9,-1
 192 512 l 1,6,-1
EndSplineSet
EndChar

StartChar: Q.sups
Encoding: 1114130 -1 288
Width: 448
Flags: W
LayerCount: 2
UndoRedoHistory
Layer: 1
Undoes
EndUndoes
Redoes
RedoOperation
Index: 0
Type: 3
WasModified: 0
WasOrder2: 1
Layer: 2
EndRedoOperation
EndRedoes
EndUndoRedoHistory
Fore
SplineSet
320 640 m 1,0,-1
 320 320 l 1,1,-1
 256 320 l 1,2,-1
 256 256 l 1,3,-1
 192 256 l 1,4,-1
 192 320 l 1,5,-1
 128 320 l 1,6,-1
 128 640 l 1,7,-1
 320 640 l 1,0,-1
256 576 m 1,8,-1
 192 576 l 1,9,-1
 192 384 l 1,10,-1
 256 384 l 1,11,-1
 256 576 l 1,8,-1
EndSplineSet
EndChar

StartChar: R.sups
Encoding: 1114131 -1 289
Width: 448
Flags: W
LayerCount: 2
UndoRedoHistory
Layer: 1
Undoes
EndUndoes
Redoes
RedoOperation
Index: 0
Type: 3
WasModified: 0
WasOrder2: 1
Layer: 2
EndRedoOperation
EndRedoes
EndUndoRedoHistory
Fore
SplineSet
320 640 m 1,0,-1
 320 512 l 1,1,-1
 256 512 l 1,2,-1
 256 576 l 1,3,-1
 192 576 l 1,4,-1
 192 512 l 1,5,-1
 256 512 l 1,6,-1
 256 448 l 1,7,-1
 192 448 l 1,8,-1
 192 320 l 1,9,-1
 128 320 l 1,10,-1
 128 640 l 1,11,-1
 320 640 l 1,0,-1
320 320 m 1,12,-1
 256 320 l 1,13,-1
 256 448 l 1,14,-1
 320 448 l 1,15,-1
 320 320 l 1,12,-1
EndSplineSet
EndChar

StartChar: S.sups
Encoding: 1114132 -1 290
Width: 448
Flags: W
LayerCount: 2
UndoRedoHistory
Layer: 1
Undoes
EndUndoes
Redoes
RedoOperation
Index: 0
Type: 3
WasModified: 0
WasOrder2: 1
Layer: 2
EndRedoOperation
EndRedoes
EndUndoRedoHistory
Fore
SplineSet
125 326 m 1,1,-1
 134 377 l 1,2,3
 174 370 174 370 208 370 c 0,4,5
 234 370 234 370 245 380 c 128,-1,6
 256 390 256 390 256 410 c 0,7,8
 256 431 256 431 245.5 439 c 128,-1,9
 235 447 235 447 201 458 c 0,10,11
 164 471 164 471 146 491.5 c 128,-1,12
 128 512 128 512 128 550 c 0,13,14
 128 591 128 591 153 617.5 c 128,-1,15
 178 644 178 644 234 644 c 0,16,17
 275 644 275 644 315 634 c 1,18,-1
 305 583 l 1,19,20
 265 590 265 590 238 590 c 0,21,22
 192 590 192 590 192 552 c 0,23,24
 192 533 192 533 202 526 c 128,-1,25
 212 519 212 519 240 510 c 0,26,27
 282 497 282 497 301 476.5 c 128,-1,28
 320 456 320 456 320 412 c 0,29,30
 320 367 320 367 293 341.5 c 128,-1,31
 266 316 266 316 214 316 c 0,32,0
 171 316 171 316 125 326 c 1,1,-1
EndSplineSet
EndChar

StartChar: T.sups
Encoding: 1114133 -1 291
Width: 448
Flags: W
LayerCount: 2
UndoRedoHistory
Layer: 1
Undoes
EndUndoes
Redoes
RedoOperation
Index: 0
Type: 3
WasModified: 0
WasOrder2: 1
Layer: 2
EndRedoOperation
EndRedoes
EndUndoRedoHistory
Fore
SplineSet
120 640 m 1,0,-1
 328 640 l 1,1,-1
 328 584 l 1,2,-1
 256 584 l 1,3,-1
 256 320 l 1,4,-1
 192 320 l 1,5,-1
 192 584 l 1,6,-1
 120 584 l 1,7,-1
 120 640 l 1,0,-1
EndSplineSet
EndChar

StartChar: U.sups
Encoding: 1114134 -1 292
Width: 448
Flags: W
LayerCount: 2
UndoRedoHistory
Layer: 1
Undoes
EndUndoes
Redoes
RedoOperation
Index: 0
Type: 3
WasModified: 0
WasOrder2: 1
Layer: 2
EndRedoOperation
EndRedoes
EndUndoRedoHistory
Fore
SplineSet
192 384 m 1,0,-1
 128 384 l 1,1,-1
 128 640 l 1,2,-1
 192 640 l 1,3,-1
 192 384 l 1,0,-1
256 640 m 1,4,-1
 320 640 l 1,5,-1
 320 320 l 1,6,-1
 192 320 l 1,7,-1
 192 384 l 1,8,-1
 256 384 l 1,9,-1
 256 640 l 1,4,-1
EndSplineSet
EndChar

StartChar: V.sups
Encoding: 1114135 -1 293
Width: 448
Flags: W
LayerCount: 2
UndoRedoHistory
Layer: 1
Undoes
EndUndoes
Redoes
RedoOperation
Index: 0
Type: 3
WasModified: 0
WasOrder2: 1
Layer: 2
EndRedoOperation
EndRedoes
EndUndoRedoHistory
Fore
SplineSet
341 640 m 1,0,1
 320 477 320 477 252 320 c 1,2,-1
 196 320 l 1,3,4
 126 486 126 486 106 640 c 1,5,-1
 168 640 l 1,6,7
 184 515 184 515 224 384 c 1,8,9
 264 518 264 518 280 640 c 1,10,-1
 341 640 l 1,0,1
EndSplineSet
EndChar

StartChar: W.sups
Encoding: 1114136 -1 294
Width: 448
Flags: W
LayerCount: 2
UndoRedoHistory
Layer: 1
Undoes
EndUndoes
Redoes
RedoOperation
Index: 0
Type: 3
WasModified: 0
WasOrder2: 1
Layer: 2
EndRedoOperation
EndRedoes
EndUndoRedoHistory
Fore
SplineSet
256 576 m 1,0,-1
 256 640 l 1,1,-1
 320 640 l 1,2,-1
 320 320 l 1,3,-1
 128 320 l 1,4,-1
 128 640 l 1,5,-1
 192 640 l 1,6,-1
 192 576 l 1,7,-1
 256 576 l 1,0,-1
EndSplineSet
EndChar

StartChar: X.sups
Encoding: 1114137 -1 295
Width: 448
Flags: W
LayerCount: 2
UndoRedoHistory
Layer: 1
Undoes
EndUndoes
Redoes
RedoOperation
Index: 0
Type: 3
WasModified: 0
WasOrder2: 1
Layer: 2
EndRedoOperation
EndRedoes
EndUndoRedoHistory
Fore
SplineSet
128 640 m 1,0,-1
 192 640 l 1,1,-1
 192 512 l 1,2,-1
 128 512 l 1,3,-1
 128 640 l 1,0,-1
256 640 m 1,4,-1
 320 640 l 1,5,-1
 320 512 l 1,6,-1
 256 512 l 1,7,-1
 256 640 l 1,4,-1
256 448 m 1,8,-1
 192 448 l 1,9,-1
 192 512 l 1,10,-1
 256 512 l 1,11,-1
 256 448 l 1,8,-1
128 320 m 1,12,-1
 128 448 l 1,13,-1
 192 448 l 1,14,-1
 192 320 l 1,15,-1
 128 320 l 1,12,-1
320 320 m 1,16,-1
 256 320 l 1,17,-1
 256 448 l 1,18,-1
 320 448 l 1,19,-1
 320 320 l 1,16,-1
EndSplineSet
EndChar

StartChar: Y.sups
Encoding: 1114138 -1 296
Width: 448
Flags: W
LayerCount: 2
UndoRedoHistory
Layer: 1
Undoes
EndUndoes
Redoes
RedoOperation
Index: 0
Type: 3
WasModified: 0
WasOrder2: 1
Layer: 2
EndRedoOperation
EndRedoes
EndUndoRedoHistory
Fore
SplineSet
256 640 m 1,0,-1
 320 640 l 1,1,-1
 320 384 l 1,2,-1
 256 384 l 1,3,-1
 256 448 l 1,4,-1
 128 448 l 1,5,-1
 128 640 l 1,6,-1
 192 640 l 1,7,-1
 192 512 l 1,8,-1
 256 512 l 1,9,-1
 256 640 l 1,0,-1
128 320 m 1,10,-1
 128 384 l 1,11,-1
 256 384 l 1,12,-1
 256 320 l 1,13,-1
 128 320 l 1,10,-1
EndSplineSet
EndChar

StartChar: Z.sups
Encoding: 1114139 -1 297
Width: 448
Flags: W
LayerCount: 2
UndoRedoHistory
Layer: 1
Undoes
EndUndoes
Redoes
RedoOperation
Index: 0
Type: 3
WasModified: 0
WasOrder2: 1
Layer: 2
EndRedoOperation
EndRedoes
EndUndoRedoHistory
Fore
SplineSet
320 640 m 1,0,-1
 320 512 l 1,1,-1
 256 512 l 1,2,-1
 256 576 l 1,3,-1
 128 576 l 1,4,-1
 128 640 l 1,5,-1
 320 640 l 1,0,-1
256 448 m 1,6,-1
 192 448 l 1,7,-1
 192 512 l 1,8,-1
 256 512 l 1,9,-1
 256 448 l 1,6,-1
128 320 m 1,10,-1
 128 448 l 1,11,-1
 192 448 l 1,12,-1
 192 384 l 1,13,-1
 320 384 l 1,14,-1
 320 320 l 1,15,-1
 128 320 l 1,10,-1
EndSplineSet
EndChar

StartChar: uni0411
Encoding: 1041 1041 299
Width: 448
Flags: W
LayerCount: 2
UndoRedoHistory
Layer: 1
Undoes
EndUndoes
Redoes
RedoOperation
Index: 0
Type: 3
WasModified: 0
WasOrder2: 1
Layer: 2
EndRedoOperation
EndRedoes
EndUndoRedoHistory
Fore
SplineSet
215 384 m 2,0,1
 300 384 300 384 350.5 333.5 c 128,-1,2
 401 283 401 283 401 192 c 0,3,4
 401 100 401 100 351 50 c 128,-1,5
 301 0 301 0 215 0 c 2,6,-1
 60 0 l 1,7,-1
 60 640 l 1,8,-1
 362 640 l 1,9,-1
 362 576 l 1,10,-1
 132 576 l 1,11,-1
 132 384 l 1,12,-1
 215 384 l 2,0,1
208 64 m 2,13,14
 274 64 274 64 299.5 97 c 128,-1,15
 325 130 325 130 325 192 c 0,16,17
 325 253 325 253 299 286.5 c 128,-1,18
 273 320 273 320 208 320 c 2,19,-1
 132 320 l 1,20,-1
 132 64 l 1,21,-1
 208 64 l 2,13,14
EndSplineSet
EndChar

StartChar: uni0413
Encoding: 1043 1043 301
Width: 448
Flags: W
LayerCount: 2
UndoRedoHistory
Layer: 1
Undoes
EndUndoes
Redoes
RedoOperation
Index: 0
Type: 3
WasModified: 0
WasOrder2: 1
Layer: 2
EndRedoOperation
EndRedoes
EndUndoRedoHistory
Fore
SplineSet
384 640 m 1,0,-1
 384 576 l 1,1,-1
 132 576 l 1,2,-1
 132 0 l 1,3,-1
 60 0 l 1,4,-1
 60 640 l 1,5,-1
 384 640 l 1,0,-1
EndSplineSet
EndChar

StartChar: uni0490
Encoding: 1168 1168 303
Width: 448
Flags: W
LayerCount: 2
UndoRedoHistory
Layer: 1
Undoes
EndUndoes
Redoes
RedoOperation
Index: 0
Type: 3
WasModified: 0
WasOrder2: 1
Layer: 2
EndRedoOperation
EndRedoes
EndUndoRedoHistory
Fore
SplineSet
320 768 m 1,0,-1
 384 768 l 1,1,-1
 384 576 l 1,2,-1
 132 576 l 1,3,-1
 132 0 l 1,4,-1
 60 0 l 1,5,-1
 60 640 l 1,6,-1
 320 640 l 1,7,-1
 320 768 l 1,0,-1
EndSplineSet
EndChar

StartChar: uni0414
Encoding: 1044 1044 304
Width: 448
Flags: W
LayerCount: 2
UndoRedoHistory
Layer: 1
Undoes
EndUndoes
Redoes
RedoOperation
Index: 0
Type: 3
WasModified: 0
WasOrder2: 1
Layer: 2
EndRedoOperation
EndRedoes
EndUndoRedoHistory
Fore
SplineSet
384 64 m 1,0,-1
 448 64 l 1,1,-1
 448 -128 l 1,2,-1
 384 -128 l 1,3,-1
 384 0 l 1,4,-1
 128 0 l 1,5,-1
 128 -128 l 1,6,-1
 64 -128 l 1,7,-1
 64 64 l 1,8,-1
 128 64 l 1,9,-1
 128 320 l 1,10,-1
 192 320 l 1,11,-1
 192 64 l 1,12,-1
 320 64 l 1,13,-1
 320 576 l 1,14,-1
 256 576 l 1,15,-1
 256 320 l 1,16,-1
 192 320 l 1,17,-1
 192 640 l 1,18,-1
 384 640 l 1,19,-1
 384 64 l 1,0,-1
EndSplineSet
EndChar

StartChar: uni0416
Encoding: 1046 1046 308
Width: 448
Flags: W
CounterMasks: 1 1c
LayerCount: 2
UndoRedoHistory
Layer: 1
Undoes
EndUndoes
Redoes
RedoOperation
Index: 0
Type: 3
WasModified: 0
WasOrder2: 1
Layer: 2
EndRedoOperation
EndRedoes
EndUndoRedoHistory
Fore
SplineSet
128 320 m 1,0,-1
 64 320 l 1,1,-1
 64 640 l 1,2,-1
 128 640 l 1,3,-1
 128 320 l 1,0,-1
256 320 m 1,4,-1
 320 320 l 1,5,-1
 320 256 l 1,6,-1
 256 256 l 1,7,-1
 256 0 l 1,8,-1
 192 0 l 1,9,-1
 192 256 l 1,10,-1
 128 256 l 1,11,-1
 128 320 l 1,12,-1
 192 320 l 1,13,-1
 192 640 l 1,14,-1
 256 640 l 1,15,-1
 256 320 l 1,4,-1
320 640 m 1,16,-1
 384 640 l 1,17,-1
 384 320 l 1,18,-1
 320 320 l 1,19,-1
 320 640 l 1,16,-1
64 256 m 1,20,-1
 128 256 l 1,21,-1
 128 0 l 1,22,-1
 64 0 l 1,23,-1
 64 256 l 1,20,-1
320 256 m 1,24,-1
 384 256 l 1,25,-1
 384 0 l 1,26,-1
 320 0 l 1,27,-1
 320 256 l 1,24,-1
EndSplineSet
EndChar

StartChar: uni0417
Encoding: 1047 1047 309
Width: 448
Flags: W
LayerCount: 2
UndoRedoHistory
Layer: 1
Undoes
EndUndoes
Redoes
RedoOperation
Index: 0
Type: 3
WasModified: 0
WasOrder2: 1
Layer: 2
EndRedoOperation
EndRedoes
EndUndoRedoHistory
Fore
SplineSet
320 640 m 1,0,-1
 320 576 l 1,1,-1
 64 576 l 1,2,-1
 64 640 l 1,3,-1
 320 640 l 1,0,-1
320 576 m 1,4,-1
 384 576 l 1,5,-1
 384 384 l 1,6,-1
 320 384 l 1,7,-1
 320 576 l 1,4,-1
256 320 m 1,8,-1
 256 384 l 1,9,-1
 320 384 l 1,10,-1
 320 256 l 1,11,-1
 128 256 l 1,12,-1
 128 320 l 1,13,-1
 256 320 l 1,8,-1
320 64 m 1,14,-1
 320 256 l 1,15,-1
 384 256 l 1,16,-1
 384 64 l 1,17,-1
 320 64 l 1,14,-1
320 64 m 1,18,-1
 320 0 l 1,19,-1
 64 0 l 1,20,-1
 64 64 l 1,21,-1
 320 64 l 1,18,-1
EndSplineSet
EndChar

StartChar: uni0418
Encoding: 1048 1048 310
Width: 448
GlyphClass: 2
Flags: W
LayerCount: 2
UndoRedoHistory
Layer: 1
Undoes
EndUndoes
Redoes
RedoOperation
Index: 0
Type: 3
WasModified: 0
WasOrder2: 1
Layer: 2
EndRedoOperation
EndRedoes
EndUndoRedoHistory
Fore
SplineSet
162 256 m 1,0,-1
 306 640 l 1,1,-1
 388 640 l 1,2,-1
 388 0 l 1,3,-1
 316 0 l 1,4,-1
 316 506 l 1,5,-1
 286 384 l 1,6,-1
 142 0 l 1,7,-1
 60 0 l 1,8,-1
 60 640 l 1,9,-1
 132 640 l 1,10,-1
 132 132 l 1,11,-1
 162 256 l 1,0,-1
EndSplineSet
EndChar

StartChar: uni041B
Encoding: 1051 1051 315
Width: 448
Flags: W
LayerCount: 2
UndoRedoHistory
Layer: 1
Undoes
EndUndoes
Redoes
RedoOperation
Index: 0
Type: 3
WasModified: 0
WasOrder2: 1
Layer: 2
EndRedoOperation
EndRedoes
EndUndoRedoHistory
Fore
SplineSet
388 0 m 1,0,-1
 316 0 l 1,1,-1
 316 576 l 1,2,-1
 196 576 l 1,3,-1
 196 448 l 2,4,5
 196 278 196 278 160 172.5 c 128,-1,6
 124 67 124 67 62 -15 c 1,7,-1
 4 24 l 1,8,9
 42 76 42 76 67 126.5 c 128,-1,10
 92 177 92 177 108 259 c 128,-1,11
 124 341 124 341 124 462 c 2,12,-1
 124 640 l 1,13,-1
 388 640 l 1,14,-1
 388 0 l 1,0,-1
EndSplineSet
EndChar

StartChar: uni041F
Encoding: 1055 1055 319
Width: 448
Flags: W
LayerCount: 2
UndoRedoHistory
Layer: 1
Undoes
EndUndoes
Redoes
RedoOperation
Index: 0
Type: 3
WasModified: 0
WasOrder2: 1
Layer: 2
EndRedoOperation
EndRedoes
EndUndoRedoHistory
Fore
SplineSet
388 640 m 1,0,-1
 388 0 l 1,1,-1
 316 0 l 1,2,-1
 316 576 l 1,3,-1
 132 576 l 1,4,-1
 132 0 l 1,5,-1
 60 0 l 1,6,-1
 60 640 l 1,7,-1
 388 640 l 1,0,-1
EndSplineSet
EndChar

StartChar: uni0424
Encoding: 1060 1060 325
Width: 448
Flags: W
LayerCount: 2
UndoRedoHistory
Layer: 1
Undoes
EndUndoes
Redoes
RedoOperation
Index: 0
Type: 3
WasModified: 0
WasOrder2: 1
Layer: 2
EndRedoOperation
EndRedoes
EndUndoRedoHistory
Fore
SplineSet
256 128 m 1,0,-1
 320 128 l 1,1,-1
 320 64 l 1,2,-1
 256 64 l 1,3,-1
 256 0 l 1,4,-1
 192 0 l 1,5,-1
 192 64 l 1,6,-1
 128 64 l 1,7,-1
 128 128 l 1,8,-1
 192 128 l 1,9,-1
 192 512 l 1,10,-1
 128 512 l 1,11,-1
 128 576 l 1,12,-1
 192 576 l 1,13,-1
 192 640 l 1,14,-1
 256 640 l 1,15,-1
 256 576 l 1,16,-1
 320 576 l 1,17,-1
 320 512 l 1,18,-1
 256 512 l 1,19,-1
 256 128 l 1,0,-1
128 128 m 1,20,-1
 64 128 l 1,21,-1
 64 512 l 1,22,-1
 128 512 l 1,23,-1
 128 128 l 1,20,-1
320 512 m 1,24,-1
 384 512 l 1,25,-1
 384 128 l 1,26,-1
 320 128 l 1,27,-1
 320 512 l 1,24,-1
EndSplineSet
EndChar

StartChar: uni0427
Encoding: 1063 1063 327
Width: 448
Flags: W
LayerCount: 2
UndoRedoHistory
Layer: 1
Undoes
EndUndoes
Redoes
RedoOperation
Index: 0
Type: 3
WasModified: 0
WasOrder2: 1
Layer: 2
EndRedoOperation
EndRedoes
EndUndoRedoHistory
Fore
SplineSet
316 640 m 1,0,-1
 388 640 l 1,1,-1
 388 0 l 1,2,-1
 316 0 l 1,3,-1
 316 302 l 1,4,5
 288 279 288 279 254.5 265.5 c 128,-1,6
 221 252 221 252 187 252 c 0,7,8
 131 252 131 252 95.5 287.5 c 128,-1,9
 60 323 60 323 60 407 c 2,10,-1
 60 640 l 1,11,-1
 132 640 l 1,12,-1
 132 415 l 2,13,14
 132 362 132 362 147 339 c 128,-1,15
 162 316 162 316 201 316 c 0,16,17
 230 316 230 316 260 332 c 128,-1,18
 290 348 290 348 316 374 c 1,19,-1
 316 640 l 1,0,-1
EndSplineSet
EndChar

StartChar: uni0426
Encoding: 1062 1062 328
Width: 448
Flags: W
LayerCount: 2
UndoRedoHistory
Layer: 1
Undoes
EndUndoes
Redoes
RedoOperation
Index: 0
Type: 3
WasModified: 0
WasOrder2: 1
Layer: 2
EndRedoOperation
EndRedoes
EndUndoRedoHistory
Fore
SplineSet
60 0 m 1,0,-1
 60 640 l 1,1,-1
 132 640 l 1,2,-1
 132 64 l 1,3,-1
 316 64 l 1,4,-1
 316 640 l 1,5,-1
 388 640 l 1,6,-1
 388 64 l 1,7,-1
 452 64 l 1,8,-1
 452 -128 l 1,9,-1
 380 -128 l 1,10,-1
 380 0 l 1,11,-1
 60 0 l 1,0,-1
EndSplineSet
EndChar

StartChar: uni0428
Encoding: 1064 1064 329
Width: 448
Flags: W
LayerCount: 2
UndoRedoHistory
Layer: 1
Undoes
EndUndoes
Redoes
RedoOperation
Index: 0
Type: 3
WasModified: 0
WasOrder2: 1
Layer: 2
EndRedoOperation
EndRedoes
EndUndoRedoHistory
Fore
SplineSet
30 0 m 1,0,-1
 30 640 l 1,1,-1
 94 640 l 1,2,-1
 94 64 l 1,3,-1
 192 64 l 1,4,-1
 192 640 l 1,5,-1
 256 640 l 1,6,-1
 256 64 l 1,7,-1
 354 64 l 1,8,-1
 354 640 l 1,9,-1
 418 640 l 1,10,-1
 418 0 l 1,11,-1
 30 0 l 1,0,-1
EndSplineSet
EndChar

StartChar: uni0429
Encoding: 1065 1065 330
Width: 448
Flags: W
LayerCount: 2
UndoRedoHistory
Layer: 1
Undoes
EndUndoes
Redoes
RedoOperation
Index: 0
Type: 3
WasModified: 0
WasOrder2: 1
Layer: 2
EndRedoOperation
EndRedoes
EndUndoRedoHistory
Fore
SplineSet
30 0 m 1,0,-1
 30 640 l 1,1,-1
 94 640 l 1,2,-1
 94 64 l 1,3,-1
 192 64 l 1,4,-1
 192 640 l 1,5,-1
 256 640 l 1,6,-1
 256 64 l 1,7,-1
 354 64 l 1,8,-1
 354 640 l 1,9,-1
 418 640 l 1,10,-1
 418 64 l 1,11,-1
 452 64 l 1,12,-1
 452 -128 l 1,13,-1
 380 -128 l 1,14,-1
 380 0 l 1,15,-1
 30 0 l 1,0,-1
EndSplineSet
EndChar

StartChar: uni040F
Encoding: 1039 1039 331
Width: 448
Flags: W
CounterMasks: 1 38
LayerCount: 2
UndoRedoHistory
Layer: 1
Undoes
EndUndoes
Redoes
RedoOperation
Index: 0
Type: 3
WasModified: 0
WasOrder2: 1
Layer: 2
EndRedoOperation
EndRedoes
EndUndoRedoHistory
Fore
SplineSet
60 0 m 1,0,-1
 60 640 l 1,1,-1
 132 640 l 1,2,-1
 132 64 l 1,3,-1
 316 64 l 1,4,-1
 316 640 l 1,5,-1
 388 640 l 1,6,-1
 388 0 l 1,7,-1
 260 0 l 1,8,-1
 260 -128 l 1,9,-1
 188 -128 l 1,10,-1
 188 0 l 1,11,-1
 60 0 l 1,0,-1
EndSplineSet
EndChar

StartChar: uni042C
Encoding: 1068 1068 332
Width: 448
Flags: W
LayerCount: 2
UndoRedoHistory
Layer: 1
Undoes
EndUndoes
Redoes
RedoOperation
Index: 0
Type: 3
WasModified: 0
WasOrder2: 1
Layer: 2
EndRedoOperation
EndRedoes
EndUndoRedoHistory
Fore
SplineSet
215 384 m 2,0,1
 300 384 300 384 350.5 333.5 c 128,-1,2
 401 283 401 283 401 192 c 0,3,4
 401 100 401 100 351 50 c 128,-1,5
 301 0 301 0 215 0 c 2,6,-1
 60 0 l 1,7,-1
 60 640 l 1,8,-1
 132 640 l 1,9,-1
 132 384 l 1,10,-1
 215 384 l 2,0,1
208 64 m 2,11,12
 274 64 274 64 299.5 97 c 128,-1,13
 325 130 325 130 325 192 c 0,14,15
 325 253 325 253 299 286.5 c 128,-1,16
 273 320 273 320 208 320 c 2,17,-1
 132 320 l 1,18,-1
 132 64 l 1,19,-1
 208 64 l 2,11,12
EndSplineSet
EndChar

StartChar: uni042A
Encoding: 1066 1066 333
Width: 448
Flags: W
LayerCount: 2
UndoRedoHistory
Layer: 1
Undoes
EndUndoes
Redoes
RedoOperation
Index: 0
Type: 3
WasModified: 0
WasOrder2: 1
Layer: 2
EndRedoOperation
EndRedoes
EndUndoRedoHistory
Fore
SplineSet
215 384 m 2,0,1
 300 384 300 384 350.5 333.5 c 128,-1,2
 401 283 401 283 401 192 c 0,3,4
 401 100 401 100 351 50 c 128,-1,5
 301 0 301 0 215 0 c 2,6,-1
 60 0 l 1,7,-1
 60 576 l 1,8,-1
 -10 576 l 1,9,-1
 -10 640 l 1,10,-1
 132 640 l 1,11,-1
 132 384 l 1,12,-1
 215 384 l 2,0,1
208 64 m 2,13,14
 274 64 274 64 299.5 97 c 128,-1,15
 325 130 325 130 325 192 c 0,16,17
 325 253 325 253 299 286.5 c 128,-1,18
 273 320 273 320 208 320 c 2,19,-1
 132 320 l 1,20,-1
 132 64 l 1,21,-1
 208 64 l 2,13,14
EndSplineSet
EndChar

StartChar: uni042B
Encoding: 1067 1067 334
Width: 448
Flags: W
LayerCount: 2
UndoRedoHistory
Layer: 1
Undoes
EndUndoes
Redoes
RedoOperation
Index: 0
Type: 3
WasModified: 0
WasOrder2: 1
Layer: 2
EndRedoOperation
EndRedoes
EndUndoRedoHistory
Fore
SplineSet
128 64 m 1,0,-1
 192 64 l 1,1,-1
 192 0 l 1,2,-1
 64 0 l 1,3,-1
 64 640 l 1,4,-1
 128 640 l 1,5,-1
 128 384 l 1,6,-1
 192 384 l 1,7,-1
 192 320 l 1,8,-1
 128 320 l 1,9,-1
 128 64 l 1,0,-1
320 640 m 1,10,-1
 384 640 l 1,11,-1
 384 0 l 1,12,-1
 320 0 l 1,13,-1
 320 640 l 1,10,-1
192 320 m 1,14,-1
 256 320 l 1,15,-1
 256 64 l 1,16,-1
 192 64 l 1,17,-1
 192 320 l 1,14,-1
EndSplineSet
EndChar

StartChar: uni0409
Encoding: 1033 1033 335
Width: 448
Flags: W
LayerCount: 2
UndoRedoHistory
Layer: 1
Undoes
EndUndoes
Redoes
RedoOperation
Index: 0
Type: 3
WasModified: 0
WasOrder2: 1
Layer: 2
EndRedoOperation
EndRedoes
EndUndoRedoHistory
Fore
SplineSet
256 64 m 1,0,-1
 320 64 l 1,1,-1
 320 0 l 1,2,-1
 192 0 l 1,3,-1
 192 576 l 1,4,-1
 128 576 l 1,5,-1
 128 128 l 1,6,-1
 64 128 l 1,7,-1
 64 640 l 1,8,-1
 256 640 l 1,9,-1
 256 384 l 1,10,-1
 320 384 l 1,11,-1
 320 320 l 1,12,-1
 256 320 l 1,13,-1
 256 64 l 1,0,-1
320 320 m 1,14,-1
 384 320 l 1,15,-1
 384 64 l 1,16,-1
 320 64 l 1,17,-1
 320 320 l 1,14,-1
0 0 m 1,18,-1
 0 128 l 1,19,-1
 64 128 l 1,20,-1
 64 0 l 1,21,-1
 0 0 l 1,18,-1
EndSplineSet
EndChar

StartChar: uni040A
Encoding: 1034 1034 336
Width: 448
Flags: W
LayerCount: 2
UndoRedoHistory
Layer: 1
Undoes
EndUndoes
Redoes
RedoOperation
Index: 0
Type: 3
WasModified: 0
WasOrder2: 1
Layer: 2
EndRedoOperation
EndRedoes
EndUndoRedoHistory
Fore
SplineSet
256 64 m 1,0,-1
 320 64 l 1,1,-1
 320 0 l 1,2,-1
 192 0 l 1,3,-1
 192 256 l 1,4,-1
 128 256 l 1,5,-1
 128 0 l 1,6,-1
 64 0 l 1,7,-1
 64 640 l 1,8,-1
 128 640 l 1,9,-1
 128 320 l 1,10,-1
 192 320 l 1,11,-1
 192 640 l 1,12,-1
 256 640 l 1,13,-1
 256 384 l 1,14,-1
 320 384 l 1,15,-1
 320 320 l 1,16,-1
 256 320 l 1,17,-1
 256 64 l 1,0,-1
320 320 m 1,18,-1
 384 320 l 1,19,-1
 384 64 l 1,20,-1
 320 64 l 1,21,-1
 320 320 l 1,18,-1
EndSplineSet
EndChar

StartChar: uni0404
Encoding: 1028 1028 338
Width: 448
GlyphClass: 2
Flags: W
LayerCount: 2
UndoRedoHistory
Layer: 1
Undoes
EndUndoes
Redoes
RedoOperation
Index: 0
Type: 3
WasModified: 0
WasOrder2: 1
Layer: 2
EndRedoOperation
EndRedoes
EndUndoRedoHistory
Fore
SplineSet
384 5 m 1,0,1
 333 -9 333 -9 274 -9 c 0,2,3
 195 -9 195 -9 148.5 23 c 128,-1,4
 102 55 102 55 81 126 c 128,-1,5
 60 197 60 197 60 319 c 256,6,7
 60 441 60 441 81 512 c 128,-1,8
 102 583 102 583 148.5 615 c 128,-1,9
 195 647 195 647 274 647 c 0,10,11
 328 647 328 647 378 635 c 1,12,-1
 364 574 l 1,13,14
 320 583 320 583 280 583 c 0,15,16
 216 583 216 583 186 557 c 128,-1,17
 156 531 156 531 147 478 c 128,-1,18
 138 425 138 425 138 320 c 1,19,-1
 336 320 l 1,20,-1
 336 256 l 1,21,-1
 139 256 l 1,22,23
 141 180 141 180 152.5 138 c 128,-1,24
 164 96 164 96 193.5 75.5 c 128,-1,25
 223 55 223 55 280 55 c 0,26,27
 325 55 325 55 370 66 c 1,28,-1
 384 5 l 1,0,1
EndSplineSet
EndChar

StartChar: uni042D
Encoding: 1069 1069 339
Width: 448
GlyphClass: 2
Flags: W
LayerCount: 2
UndoRedoHistory
Layer: 1
Undoes
EndUndoes
Redoes
RedoOperation
Index: 0
Type: 3
WasModified: 0
WasOrder2: 1
Layer: 2
EndRedoOperation
EndRedoes
EndUndoRedoHistory
Fore
SplineSet
299.5 615 m 128,-1,1
 346 583 346 583 367 512 c 128,-1,2
 388 441 388 441 388 319 c 256,3,4
 388 197 388 197 367 126 c 128,-1,5
 346 55 346 55 299.5 23 c 128,-1,6
 253 -9 253 -9 174 -9 c 0,7,8
 115 -9 115 -9 64 5 c 1,9,-1
 78 66 l 1,10,11
 123 55 123 55 168 55 c 0,12,13
 225 55 225 55 254.5 75.5 c 128,-1,14
 284 96 284 96 295.5 138 c 128,-1,15
 307 180 307 180 309 256 c 1,16,-1
 128 256 l 1,17,-1
 128 320 l 1,18,-1
 310 320 l 1,19,20
 310 425 310 425 301 478 c 128,-1,21
 292 531 292 531 262 557 c 128,-1,22
 232 583 232 583 168 583 c 0,23,24
 127 583 127 583 84 574 c 1,25,-1
 70 635 l 1,26,27
 120 647 120 647 174 647 c 0,28,0
 253 647 253 647 299.5 615 c 128,-1,1
EndSplineSet
EndChar

StartChar: uni040B
Encoding: 1035 1035 343
Width: 448
Flags: W
LayerCount: 2
UndoRedoHistory
Layer: 1
Undoes
EndUndoes
Redoes
RedoOperation
Index: 0
Type: 3
WasModified: 0
WasOrder2: 1
Layer: 2
EndRedoOperation
EndRedoes
EndUndoRedoHistory
Fore
SplineSet
192 384 m 1,0,-1
 320 384 l 1,1,-1
 320 320 l 1,2,-1
 192 320 l 1,3,-1
 192 0 l 1,4,-1
 128 0 l 1,5,-1
 128 576 l 1,6,-1
 0 576 l 1,7,-1
 0 640 l 1,8,-1
 320 640 l 1,9,-1
 320 576 l 1,10,-1
 192 576 l 1,11,-1
 192 384 l 1,0,-1
320 320 m 1,12,-1
 384 320 l 1,13,-1
 384 0 l 1,14,-1
 320 0 l 1,15,-1
 320 320 l 1,12,-1
EndSplineSet
EndChar

StartChar: uni042E
Encoding: 1070 1070 344
Width: 448
Flags: W
LayerCount: 2
UndoRedoHistory
Layer: 1
Undoes
EndUndoes
Redoes
RedoOperation
Index: 0
Type: 3
WasModified: 0
WasOrder2: 1
Layer: 2
EndRedoOperation
EndRedoes
EndUndoRedoHistory
Fore
SplineSet
256 64 m 1,0,-1
 192 64 l 1,1,-1
 192 256 l 1,2,-1
 128 256 l 1,3,-1
 128 0 l 1,4,-1
 64 0 l 1,5,-1
 64 640 l 1,6,-1
 128 640 l 1,7,-1
 128 320 l 1,8,-1
 192 320 l 1,9,-1
 192 576 l 1,10,-1
 256 576 l 1,11,-1
 256 64 l 1,0,-1
256 640 m 1,12,-1
 320 640 l 1,13,-1
 320 576 l 1,14,-1
 256 576 l 1,15,-1
 256 640 l 1,12,-1
320 576 m 1,16,-1
 384 576 l 1,17,-1
 384 64 l 1,18,-1
 320 64 l 1,19,-1
 320 576 l 1,16,-1
320 0 m 1,20,-1
 256 0 l 1,21,-1
 256 64 l 1,22,-1
 320 64 l 1,23,-1
 320 0 l 1,20,-1
EndSplineSet
EndChar

StartChar: uni042F
Encoding: 1071 1071 345
Width: 448
GlyphClass: 2
Flags: W
LayerCount: 2
UndoRedoHistory
Layer: 1
Undoes
EndUndoes
Redoes
RedoOperation
Index: 0
Type: 3
WasModified: 0
WasOrder2: 1
Layer: 2
EndRedoOperation
EndRedoes
EndUndoRedoHistory
Fore
SplineSet
388 640 m 1,0,-1
 388 0 l 1,1,-1
 316 0 l 1,2,-1
 316 241 l 1,3,-1
 266 241 l 1,4,5
 196 208 196 208 158.5 152 c 128,-1,6
 121 96 121 96 111 0 c 1,7,-1
 37 0 l 1,8,9
 46 96 46 96 85 162 c 128,-1,10
 124 228 124 228 187 255 c 1,11,12
 121 267 121 267 84 313.5 c 128,-1,13
 47 360 47 360 47 440 c 0,14,15
 47 535 47 535 97.5 587.5 c 128,-1,16
 148 640 148 640 233 640 c 2,17,-1
 388 640 l 1,0,-1
316 305 m 1,18,-1
 316 576 l 1,19,-1
 240 576 l 2,20,21
 174 576 174 576 148.5 541.5 c 128,-1,22
 123 507 123 507 123 440 c 256,23,24
 123 373 123 373 148 339 c 128,-1,25
 173 305 173 305 240 305 c 2,26,-1
 316 305 l 1,18,-1
EndSplineSet
EndChar

StartChar: uni0402
Encoding: 1026 1026 346
Width: 448
Flags: W
LayerCount: 2
UndoRedoHistory
Layer: 1
Undoes
EndUndoes
Redoes
RedoOperation
Index: 0
Type: 3
WasModified: 0
WasOrder2: 1
Layer: 2
EndRedoOperation
EndRedoes
EndUndoRedoHistory
Fore
SplineSet
192 384 m 1,0,-1
 320 384 l 1,1,-1
 320 320 l 1,2,-1
 192 320 l 1,3,-1
 192 0 l 1,4,-1
 128 0 l 1,5,-1
 128 576 l 1,6,-1
 0 576 l 1,7,-1
 0 640 l 1,8,-1
 320 640 l 1,9,-1
 320 576 l 1,10,-1
 192 576 l 1,11,-1
 192 384 l 1,0,-1
320 320 m 1,12,-1
 384 320 l 1,13,-1
 384 64 l 1,14,-1
 320 64 l 1,15,-1
 320 320 l 1,12,-1
320 0 m 1,16,-1
 256 0 l 1,17,-1
 256 64 l 1,18,-1
 320 64 l 1,19,-1
 320 0 l 1,16,-1
EndSplineSet
EndChar

StartChar: uni0431
Encoding: 1073 1073 348
Width: 448
Flags: W
LayerCount: 2
UndoRedoHistory
Layer: 1
Undoes
EndUndoes
Redoes
RedoOperation
Index: 0
Type: 3
WasModified: 0
WasOrder2: 1
Layer: 2
EndRedoOperation
EndRedoes
EndUndoRedoHistory
Fore
SplineSet
350.5 359.5 m 128,-1,1
 395 305 395 305 395 209 c 0,2,3
 395 108 395 108 347.5 50 c 128,-1,4
 300 -8 300 -8 220 -8 c 0,5,6
 130 -8 130 -8 85 56.5 c 128,-1,7
 40 121 40 121 40 271 c 0,8,9
 40 377 40 377 55 441 c 128,-1,10
 70 505 70 505 118 546.5 c 128,-1,11
 166 588 166 588 263 602 c 0,12,13
 289 605 289 605 317.5 610.5 c 128,-1,14
 346 616 346 616 373 625 c 1,15,-1
 383 569 l 1,16,17
 358 557 358 557 330 550 c 128,-1,18
 302 543 302 543 263 538 c 0,19,20
 187 527 187 527 155.5 491.5 c 128,-1,21
 124 456 124 456 117 381 c 1,22,23
 170 414 170 414 231 414 c 0,24,0
 306 414 306 414 350.5 359.5 c 128,-1,1
296.5 96.5 m 128,-1,26
 320 137 320 137 320 209 c 0,27,28
 320 273 320 273 299.5 311.5 c 128,-1,29
 279 350 279 350 224 350 c 0,30,31
 164 350 164 350 114 317 c 1,32,-1
 114 271 l 2,33,34
 114 191 114 191 122.5 145 c 128,-1,35
 131 99 131 99 153.5 77.5 c 128,-1,36
 176 56 176 56 217 56 c 0,37,25
 273 56 273 56 296.5 96.5 c 128,-1,26
EndSplineSet
EndChar

StartChar: uni0432
Encoding: 1074 1074 349
Width: 448
Flags: W
LayerCount: 2
UndoRedoHistory
Layer: 1
Undoes
EndUndoes
Redoes
RedoOperation
Index: 0
Type: 3
WasModified: 0
WasOrder2: 1
Layer: 2
EndRedoOperation
EndRedoes
EndUndoRedoHistory
Fore
SplineSet
128 256 m 1,0,-1
 320 256 l 1,1,-1
 320 192 l 1,2,-1
 128 192 l 1,3,-1
 128 64 l 1,4,-1
 320 64 l 1,5,-1
 320 0 l 1,6,-1
 64 0 l 1,7,-1
 64 448 l 1,8,-1
 320 448 l 1,9,-1
 320 384 l 1,10,-1
 128 384 l 1,11,-1
 128 256 l 1,0,-1
320 384 m 1,12,-1
 384 384 l 1,13,-1
 384 256 l 1,14,-1
 320 256 l 1,15,-1
 320 384 l 1,12,-1
384 64 m 1,16,-1
 320 64 l 1,17,-1
 320 192 l 1,18,-1
 384 192 l 1,19,-1
 384 64 l 1,16,-1
EndSplineSet
EndChar

StartChar: uni0433
Encoding: 1075 1075 350
Width: 448
Flags: W
LayerCount: 2
UndoRedoHistory
Layer: 1
Undoes
EndUndoes
Redoes
RedoOperation
Index: 0
Type: 12
WasModified: 0
WasOrder2: 0
Layer: 0
HStem: 0 21G<60 132> 384 64<132 384>
VStem: 60 72<0 384>
EndRedoOperation
EndRedoes
EndUndoRedoHistory
Fore
SplineSet
384 448 m 1,0,-1
 384 384 l 1,1,-1
 132 384 l 1,2,-1
 132 0 l 1,3,-1
 60 0 l 1,4,-1
 60 448 l 1,5,-1
 384 448 l 1,0,-1
EndSplineSet
EndChar

StartChar: uni0491
Encoding: 1169 1169 352
Width: 448
Flags: W
LayerCount: 2
UndoRedoHistory
Layer: 1
Undoes
EndUndoes
Redoes
RedoOperation
Index: 0
Type: 3
WasModified: 0
WasOrder2: 1
Layer: 2
EndRedoOperation
EndRedoes
EndUndoRedoHistory
Fore
SplineSet
320 576 m 1,0,-1
 384 576 l 1,1,-1
 384 384 l 1,2,-1
 132 384 l 1,3,-1
 132 0 l 1,4,-1
 60 0 l 1,5,-1
 60 448 l 1,6,-1
 320 448 l 1,7,-1
 320 576 l 1,0,-1
EndSplineSet
EndChar

StartChar: uni0434
Encoding: 1076 1076 353
Width: 448
Flags: W
LayerCount: 2
UndoRedoHistory
Layer: 1
Undoes
EndUndoes
Redoes
RedoOperation
Index: 0
Type: 3
WasModified: 0
WasOrder2: 1
Layer: 2
EndRedoOperation
EndRedoes
EndUndoRedoHistory
Fore
SplineSet
364 64 m 1,0,-1
 428 64 l 1,1,-1
 428 -128 l 1,2,-1
 356 -128 l 1,3,-1
 356 0 l 1,4,-1
 80 0 l 1,5,-1
 80 -128 l 1,6,-1
 8 -128 l 1,7,-1
 8 64 l 1,8,-1
 62 64 l 1,9,10
 100 143 100 143 113.5 224.5 c 128,-1,11
 127 306 127 306 131 448 c 1,12,-1
 364 448 l 1,13,-1
 364 64 l 1,0,-1
292 64 m 1,14,-1
 292 384 l 1,15,-1
 200 384 l 1,16,17
 195 278 195 278 180.5 203.5 c 128,-1,18
 166 129 166 129 136 64 c 1,19,-1
 292 64 l 1,14,-1
EndSplineSet
EndChar

StartChar: uni0436
Encoding: 1078 1078 357
Width: 448
Flags: W
CounterMasks: 1 0e
LayerCount: 2
UndoRedoHistory
Layer: 1
Undoes
EndUndoes
Redoes
RedoOperation
Index: 0
Type: 3
WasModified: 0
WasOrder2: 1
Layer: 2
EndRedoOperation
EndRedoes
EndUndoRedoHistory
Fore
SplineSet
128 448 m 1,0,-1
 128 256 l 1,1,-1
 64 256 l 1,2,-1
 64 448 l 1,3,-1
 128 448 l 1,0,-1
256 256 m 1,4,-1
 320 256 l 1,5,-1
 320 192 l 1,6,-1
 256 192 l 1,7,-1
 256 0 l 1,8,-1
 192 0 l 1,9,-1
 192 192 l 1,10,-1
 128 192 l 1,11,-1
 128 256 l 1,12,-1
 192 256 l 1,13,-1
 192 448 l 1,14,-1
 256 448 l 1,15,-1
 256 256 l 1,4,-1
320 448 m 1,16,-1
 384 448 l 1,17,-1
 384 256 l 1,18,-1
 320 256 l 1,19,-1
 320 448 l 1,16,-1
64 192 m 1,20,-1
 128 192 l 1,21,-1
 128 0 l 1,22,-1
 64 0 l 1,23,-1
 64 192 l 1,20,-1
320 0 m 1,24,-1
 320 192 l 1,25,-1
 384 192 l 1,26,-1
 384 0 l 1,27,-1
 320 0 l 1,24,-1
EndSplineSet
EndChar

StartChar: uni0437
Encoding: 1079 1079 358
Width: 448
Flags: W
LayerCount: 2
UndoRedoHistory
Layer: 1
Undoes
EndUndoes
Redoes
RedoOperation
Index: 0
Type: 3
WasModified: 0
WasOrder2: 1
Layer: 2
EndRedoOperation
EndRedoes
EndUndoRedoHistory
Fore
SplineSet
320 448 m 1,0,-1
 320 384 l 1,1,-1
 64 384 l 1,2,-1
 64 448 l 1,3,-1
 320 448 l 1,0,-1
320 384 m 1,4,-1
 384 384 l 1,5,-1
 384 256 l 1,6,-1
 320 256 l 1,7,-1
 320 384 l 1,4,-1
128 256 m 1,8,-1
 320 256 l 1,9,-1
 320 192 l 1,10,-1
 128 192 l 1,11,-1
 128 256 l 1,8,-1
384 64 m 1,12,-1
 320 64 l 1,13,-1
 320 192 l 1,14,-1
 384 192 l 1,15,-1
 384 64 l 1,12,-1
320 64 m 1,16,-1
 320 0 l 1,17,-1
 64 0 l 1,18,-1
 64 64 l 1,19,-1
 320 64 l 1,16,-1
EndSplineSet
EndChar

StartChar: uni0438
Encoding: 1080 1080 359
Width: 448
GlyphClass: 2
Flags: W
LayerCount: 2
UndoRedoHistory
Layer: 1
Undoes
EndUndoes
Redoes
RedoOperation
Index: 0
Type: 3
WasModified: 0
WasOrder2: 1
Layer: 2
EndRedoOperation
EndRedoes
EndUndoRedoHistory
Fore
SplineSet
388 448 m 1,0,-1
 388 0 l 1,1,-1
 316 0 l 1,2,-1
 316 343 l 1,3,-1
 280 255 l 1,4,-1
 140 0 l 1,5,-1
 60 0 l 1,6,-1
 60 448 l 1,7,-1
 132 448 l 1,8,-1
 132 104 l 1,9,-1
 168 191 l 1,10,-1
 310 448 l 1,11,-1
 388 448 l 1,0,-1
EndSplineSet
EndChar

StartChar: uni043A
Encoding: 1082 1082 362
Width: 448
Flags: W
LayerCount: 2
UndoRedoHistory
Layer: 1
Undoes
EndUndoes
Redoes
RedoOperation
Index: 0
Type: 12
WasModified: 0
WasOrder2: 0
Layer: 0
HStem: 0 128<320 384> 128 64<256 320> 256 64<256 320> 320 128<320 384>
VStem: 64 64<0 192 256 448> 256 64<128 192 256 320> 320 64<0 128 320 448>
EndRedoOperation
EndRedoes
EndUndoRedoHistory
Fore
SplineSet
128 256 m 1,0,-1
 256 256 l 1,1,-1
 256 192 l 1,2,-1
 128 192 l 1,3,-1
 128 0 l 1,4,-1
 64 0 l 1,5,-1
 64 448 l 1,6,-1
 128 448 l 1,7,-1
 128 256 l 1,0,-1
320 448 m 1,8,-1
 384 448 l 1,9,-1
 384 320 l 1,10,-1
 320 320 l 1,11,-1
 320 448 l 1,8,-1
320 256 m 1,12,-1
 256 256 l 1,13,-1
 256 320 l 1,14,-1
 320 320 l 1,15,-1
 320 256 l 1,12,-1
320 192 m 1,16,-1
 320 128 l 1,17,-1
 256 128 l 1,18,-1
 256 192 l 1,19,-1
 320 192 l 1,16,-1
384 0 m 1,20,-1
 320 0 l 1,21,-1
 320 128 l 1,22,-1
 384 128 l 1,23,-1
 384 0 l 1,20,-1
EndSplineSet
EndChar

StartChar: uni043B
Encoding: 1083 1083 364
Width: 448
Flags: W
LayerCount: 2
UndoRedoHistory
Layer: 1
Undoes
EndUndoes
Redoes
RedoOperation
Index: 0
Type: 3
WasModified: 0
WasOrder2: 1
Layer: 2
EndRedoOperation
EndRedoes
EndUndoRedoHistory
Fore
SplineSet
384 448 m 1,0,-1
 384 0 l 1,1,-1
 320 0 l 1,2,-1
 320 384 l 1,3,-1
 192 384 l 1,4,-1
 192 192 l 1,5,-1
 128 192 l 1,6,-1
 128 448 l 1,7,-1
 384 448 l 1,0,-1
64 64 m 1,8,-1
 64 192 l 1,9,-1
 128 192 l 1,10,-1
 128 64 l 1,11,-1
 64 64 l 1,8,-1
64 0 m 1,12,-1
 0 0 l 1,13,-1
 0 64 l 1,14,-1
 64 64 l 1,15,-1
 64 0 l 1,12,-1
EndSplineSet
EndChar

StartChar: uni043C
Encoding: 1084 1084 365
Width: 448
Flags: W
LayerCount: 2
UndoRedoHistory
Layer: 1
Undoes
EndUndoes
Redoes
RedoOperation
Index: 0
Type: 3
WasModified: 0
WasOrder2: 1
Layer: 2
EndRedoOperation
EndRedoes
EndUndoRedoHistory
Fore
SplineSet
64 448 m 1,0,-1
 192 448 l 1,1,-1
 192 384 l 1,2,-1
 128 384 l 1,3,-1
 128 0 l 1,4,-1
 64 0 l 1,5,-1
 64 448 l 1,0,-1
256 448 m 1,6,-1
 384 448 l 1,7,-1
 384 0 l 1,8,-1
 320 0 l 1,9,-1
 320 384 l 1,10,-1
 256 384 l 1,11,-1
 256 448 l 1,6,-1
192 384 m 1,12,-1
 256 384 l 1,13,-1
 256 128 l 1,14,-1
 192 128 l 1,15,-1
 192 384 l 1,12,-1
EndSplineSet
EndChar

StartChar: uni043D
Encoding: 1085 1085 366
Width: 448
Flags: W
LayerCount: 2
UndoRedoHistory
Layer: 1
Undoes
EndUndoes
Redoes
RedoOperation
Index: 0
Type: 3
WasModified: 0
WasOrder2: 1
Layer: 2
EndRedoOperation
EndRedoes
EndUndoRedoHistory
Fore
SplineSet
388 448 m 1,0,-1
 388 0 l 1,1,-1
 316 0 l 1,2,-1
 316 192 l 1,3,-1
 132 192 l 1,4,-1
 132 0 l 1,5,-1
 60 0 l 1,6,-1
 60 448 l 1,7,-1
 132 448 l 1,8,-1
 132 256 l 1,9,-1
 316 256 l 1,10,-1
 316 448 l 1,11,-1
 388 448 l 1,0,-1
EndSplineSet
EndChar

StartChar: uni0442
Encoding: 1090 1090 371
Width: 448
Flags: W
LayerCount: 2
UndoRedoHistory
Layer: 1
Undoes
EndUndoes
Redoes
RedoOperation
Index: 0
Type: 12
WasModified: 0
WasOrder2: 0
Layer: 0
HStem: 0 21G<188 260> 384 64<54 188 260 394>
VStem: 188 72<0 384>
EndRedoOperation
EndRedoes
EndUndoRedoHistory
Fore
SplineSet
394 448 m 1,0,-1
 394 384 l 1,1,-1
 260 384 l 1,2,-1
 260 0 l 1,3,-1
 188 0 l 1,4,-1
 188 384 l 1,5,-1
 54 384 l 1,6,-1
 54 448 l 1,7,-1
 394 448 l 1,0,-1
EndSplineSet
EndChar

StartChar: uni0444
Encoding: 1092 1092 374
Width: 448
Flags: W
LayerCount: 2
UndoRedoHistory
Layer: 1
Undoes
EndUndoes
Redoes
RedoOperation
Index: 0
Type: 12
WasModified: 0
WasOrder2: 0
Layer: 0
HStem: 0 64<128 192 256 320> 384 64<128 192 256 320> 620 20G<192 256>
VStem: 64 64<64 384> 128 192<0 64 384 448> 192 64<-192 0 64 384 448 640> 320 64<64 384>
EndRedoOperation
EndRedoes
EndUndoRedoHistory
Fore
SplineSet
256 64 m 1,0,-1
 320 64 l 1,1,-1
 320 0 l 1,2,-1
 256 0 l 1,3,-1
 256 -192 l 1,4,-1
 192 -192 l 1,5,-1
 192 0 l 1,6,-1
 128 0 l 1,7,-1
 128 64 l 1,8,-1
 192 64 l 1,9,-1
 192 384 l 1,10,-1
 128 384 l 1,11,-1
 128 448 l 1,12,-1
 192 448 l 1,13,-1
 192 640 l 1,14,-1
 256 640 l 1,15,-1
 256 448 l 1,16,-1
 320 448 l 1,17,-1
 320 384 l 1,18,-1
 256 384 l 1,19,-1
 256 64 l 1,0,-1
128 64 m 1,20,-1
 64 64 l 1,21,-1
 64 384 l 1,22,-1
 128 384 l 1,23,-1
 128 64 l 1,20,-1
320 384 m 1,24,-1
 384 384 l 1,25,-1
 384 64 l 1,26,-1
 320 64 l 1,27,-1
 320 384 l 1,24,-1
EndSplineSet
EndChar

StartChar: uni0447
Encoding: 1095 1095 376
Width: 448
Flags: W
LayerCount: 2
UndoRedoHistory
Layer: 1
Undoes
EndUndoes
Redoes
RedoOperation
Index: 0
Type: 3
WasModified: 0
WasOrder2: 1
Layer: 2
EndRedoOperation
EndRedoes
EndUndoRedoHistory
Fore
SplineSet
316 448 m 1,0,-1
 388 448 l 1,1,-1
 388 0 l 1,2,-1
 316 0 l 1,3,-1
 316 174 l 1,4,5
 288 151 288 151 254.5 137.5 c 128,-1,6
 221 124 221 124 187 124 c 0,7,8
 131 124 131 124 95.5 159.5 c 128,-1,9
 60 195 60 195 60 279 c 2,10,-1
 60 448 l 1,11,-1
 132 448 l 1,12,-1
 132 287 l 2,13,14
 132 234 132 234 147 211 c 128,-1,15
 162 188 162 188 201 188 c 0,16,17
 230 188 230 188 260 204 c 128,-1,18
 290 220 290 220 316 246 c 1,19,-1
 316 448 l 1,0,-1
EndSplineSet
EndChar

StartChar: uni0446
Encoding: 1094 1094 377
Width: 448
Flags: W
LayerCount: 2
UndoRedoHistory
Layer: 1
Undoes
EndUndoes
Redoes
RedoOperation
Index: 0
Type: 3
WasModified: 0
WasOrder2: 1
Layer: 2
EndRedoOperation
EndRedoes
EndUndoRedoHistory
Fore
SplineSet
378 448 m 1,0,-1
 378 64 l 1,1,-1
 442 64 l 1,2,-1
 442 -128 l 1,3,-1
 370 -128 l 1,4,-1
 370 0 l 1,5,-1
 60 0 l 1,6,-1
 60 448 l 1,7,-1
 132 448 l 1,8,-1
 132 64 l 1,9,-1
 306 64 l 1,10,-1
 306 448 l 1,11,-1
 378 448 l 1,0,-1
EndSplineSet
EndChar

StartChar: uni0448
Encoding: 1096 1096 378
Width: 448
Flags: W
LayerCount: 2
UndoRedoHistory
Layer: 1
Undoes
EndUndoes
Redoes
RedoOperation
Index: 0
Type: 3
WasModified: 0
WasOrder2: 1
Layer: 2
EndRedoOperation
EndRedoes
EndUndoRedoHistory
Fore
SplineSet
30 0 m 1,0,-1
 30 448 l 1,1,-1
 94 448 l 1,2,-1
 94 64 l 1,3,-1
 192 64 l 1,4,-1
 192 448 l 1,5,-1
 256 448 l 1,6,-1
 256 64 l 1,7,-1
 354 64 l 1,8,-1
 354 448 l 1,9,-1
 418 448 l 1,10,-1
 418 0 l 1,11,-1
 30 0 l 1,0,-1
EndSplineSet
EndChar

StartChar: uni0449
Encoding: 1097 1097 379
Width: 448
Flags: W
LayerCount: 2
UndoRedoHistory
Layer: 1
Undoes
EndUndoes
Redoes
RedoOperation
Index: 0
Type: 3
WasModified: 0
WasOrder2: 1
Layer: 2
EndRedoOperation
EndRedoes
EndUndoRedoHistory
Fore
SplineSet
30 448 m 1,0,-1
 94 448 l 1,1,-1
 94 64 l 1,2,-1
 192 64 l 1,3,-1
 192 448 l 1,4,-1
 256 448 l 1,5,-1
 256 64 l 1,6,-1
 354 64 l 1,7,-1
 354 448 l 1,8,-1
 418 448 l 1,9,-1
 418 64 l 1,10,-1
 452 64 l 1,11,-1
 452 -128 l 1,12,-1
 380 -128 l 1,13,-1
 380 0 l 1,14,-1
 30 0 l 1,15,-1
 30 448 l 1,0,-1
EndSplineSet
EndChar

StartChar: uni045F
Encoding: 1119 1119 380
Width: 448
Flags: W
LayerCount: 2
UndoRedoHistory
Layer: 1
Undoes
EndUndoes
Redoes
RedoOperation
Index: 0
Type: 3
WasModified: 0
WasOrder2: 1
Layer: 2
EndRedoOperation
EndRedoes
EndUndoRedoHistory
Fore
SplineSet
60 0 m 1,0,-1
 60 448 l 1,1,-1
 132 448 l 1,2,-1
 132 64 l 1,3,-1
 316 64 l 1,4,-1
 316 448 l 1,5,-1
 388 448 l 1,6,-1
 388 0 l 1,7,-1
 260 0 l 1,8,-1
 260 -128 l 1,9,-1
 188 -128 l 1,10,-1
 188 0 l 1,11,-1
 60 0 l 1,0,-1
EndSplineSet
EndChar

StartChar: uni044C
Encoding: 1100 1100 381
Width: 448
Flags: W
LayerCount: 2
UndoRedoHistory
Layer: 1
Undoes
EndUndoes
Redoes
RedoOperation
Index: 0
Type: 3
WasModified: 0
WasOrder2: 1
Layer: 2
EndRedoOperation
EndRedoes
EndUndoRedoHistory
Fore
SplineSet
128 64 m 1,0,-1
 320 64 l 1,1,-1
 320 0 l 1,2,-1
 64 0 l 1,3,-1
 64 448 l 1,4,-1
 128 448 l 1,5,-1
 128 320 l 1,6,-1
 320 320 l 1,7,-1
 320 256 l 1,8,-1
 128 256 l 1,9,-1
 128 64 l 1,0,-1
320 256 m 1,10,-1
 384 256 l 1,11,-1
 384 64 l 1,12,-1
 320 64 l 1,13,-1
 320 256 l 1,10,-1
EndSplineSet
EndChar

StartChar: uni044A
Encoding: 1098 1098 382
Width: 448
Flags: W
LayerCount: 2
UndoRedoHistory
Layer: 1
Undoes
EndUndoes
Redoes
RedoOperation
Index: 0
Type: 3
WasModified: 0
WasOrder2: 1
Layer: 2
EndRedoOperation
EndRedoes
EndUndoRedoHistory
Fore
SplineSet
128 64 m 1,0,-1
 320 64 l 1,1,-1
 320 0 l 1,2,-1
 64 0 l 1,3,-1
 64 384 l 1,4,-1
 0 384 l 1,5,-1
 0 448 l 1,6,-1
 128 448 l 1,7,-1
 128 320 l 1,8,-1
 320 320 l 1,9,-1
 320 256 l 1,10,-1
 128 256 l 1,11,-1
 128 64 l 1,0,-1
320 256 m 1,12,-1
 384 256 l 1,13,-1
 384 64 l 1,14,-1
 320 64 l 1,15,-1
 320 256 l 1,12,-1
EndSplineSet
EndChar

StartChar: uni044B
Encoding: 1099 1099 383
Width: 448
Flags: W
LayerCount: 2
UndoRedoHistory
Layer: 1
Undoes
EndUndoes
Redoes
RedoOperation
Index: 0
Type: 3
WasModified: 0
WasOrder2: 1
Layer: 2
EndRedoOperation
EndRedoes
EndUndoRedoHistory
Fore
SplineSet
128 64 m 1,0,-1
 192 64 l 1,1,-1
 192 0 l 1,2,-1
 64 0 l 1,3,-1
 64 448 l 1,4,-1
 128 448 l 1,5,-1
 128 320 l 1,6,-1
 192 320 l 1,7,-1
 192 256 l 1,8,-1
 128 256 l 1,9,-1
 128 64 l 1,0,-1
320 448 m 1,10,-1
 384 448 l 1,11,-1
 384 0 l 1,12,-1
 320 0 l 1,13,-1
 320 448 l 1,10,-1
192 256 m 1,14,-1
 256 256 l 1,15,-1
 256 64 l 1,16,-1
 192 64 l 1,17,-1
 192 256 l 1,14,-1
EndSplineSet
EndChar

StartChar: uni0459
Encoding: 1113 1113 384
Width: 448
Flags: W
LayerCount: 2
UndoRedoHistory
Layer: 1
Undoes
EndUndoes
Redoes
RedoOperation
Index: 0
Type: 3
WasModified: 0
WasOrder2: 1
Layer: 2
EndRedoOperation
EndRedoes
EndUndoRedoHistory
Fore
SplineSet
256 64 m 1,0,-1
 320 64 l 1,1,-1
 320 0 l 1,2,-1
 192 0 l 1,3,-1
 192 384 l 1,4,-1
 128 384 l 1,5,-1
 128 128 l 1,6,-1
 64 128 l 1,7,-1
 64 448 l 1,8,-1
 256 448 l 1,9,-1
 256 320 l 1,10,-1
 320 320 l 1,11,-1
 320 256 l 1,12,-1
 256 256 l 1,13,-1
 256 64 l 1,0,-1
320 256 m 1,14,-1
 384 256 l 1,15,-1
 384 64 l 1,16,-1
 320 64 l 1,17,-1
 320 256 l 1,14,-1
0 0 m 1,18,-1
 0 128 l 1,19,-1
 64 128 l 1,20,-1
 64 0 l 1,21,-1
 0 0 l 1,18,-1
EndSplineSet
EndChar

StartChar: uni045A
Encoding: 1114 1114 385
Width: 448
Flags: W
LayerCount: 2
UndoRedoHistory
Layer: 1
Undoes
EndUndoes
Redoes
RedoOperation
Index: 0
Type: 3
WasModified: 0
WasOrder2: 1
Layer: 2
EndRedoOperation
EndRedoes
EndUndoRedoHistory
Fore
SplineSet
256 64 m 1,0,-1
 320 64 l 1,1,-1
 320 0 l 1,2,-1
 192 0 l 1,3,-1
 192 192 l 1,4,-1
 128 192 l 1,5,-1
 128 0 l 1,6,-1
 64 0 l 1,7,-1
 64 448 l 1,8,-1
 128 448 l 1,9,-1
 128 256 l 1,10,-1
 192 256 l 1,11,-1
 192 448 l 1,12,-1
 256 448 l 1,13,-1
 256 320 l 1,14,-1
 320 320 l 1,15,-1
 320 256 l 1,16,-1
 256 256 l 1,17,-1
 256 64 l 1,0,-1
320 256 m 1,18,-1
 384 256 l 1,19,-1
 384 64 l 1,20,-1
 320 64 l 1,21,-1
 320 256 l 1,18,-1
EndSplineSet
EndChar

StartChar: uni0454
Encoding: 1108 1108 387
Width: 448
GlyphClass: 2
Flags: W
CounterMasks: 1 e0
LayerCount: 2
UndoRedoHistory
Layer: 1
Undoes
EndUndoes
Redoes
RedoOperation
Index: 0
Type: 3
WasModified: 0
WasOrder2: 1
Layer: 2
EndRedoOperation
EndRedoes
EndUndoRedoHistory
Fore
SplineSet
345 72 m 1,1,-1
 358 12 l 1,2,3
 302 -7 302 -7 238 -7 c 0,4,5
 50 -7 50 -7 50 224 c 256,6,7
 50 455 50 455 238 455 c 0,8,9
 302 455 302 455 358 436 c 1,10,-1
 345 376 l 1,11,12
 291 391 291 391 242 391 c 0,13,14
 183 391 183 391 157 361 c 128,-1,15
 131 331 131 331 127 256 c 1,16,-1
 328 256 l 1,17,-1
 328 192 l 1,18,-1
 127 192 l 1,19,20
 131 117 131 117 157 87 c 128,-1,21
 183 57 183 57 242 57 c 0,22,0
 291 57 291 57 345 72 c 1,1,-1
EndSplineSet
EndChar

StartChar: uni044D
Encoding: 1101 1101 388
Width: 448
GlyphClass: 2
Flags: W
CounterMasks: 1 e0
LayerCount: 2
UndoRedoHistory
Layer: 1
Undoes
EndUndoes
Redoes
RedoOperation
Index: 0
Type: 3
WasModified: 0
WasOrder2: 1
Layer: 2
EndRedoOperation
EndRedoes
EndUndoRedoHistory
Fore
SplineSet
398 224 m 256,1,2
 398 -7 398 -7 210 -7 c 0,3,4
 146 -7 146 -7 90 12 c 1,5,-1
 103 72 l 1,6,7
 157 57 157 57 206 57 c 0,8,9
 265 57 265 57 291 87 c 128,-1,10
 317 117 317 117 321 192 c 1,11,-1
 120 192 l 1,12,-1
 120 256 l 1,13,-1
 321 256 l 1,14,15
 317 331 317 331 291 361 c 128,-1,16
 265 391 265 391 206 391 c 0,17,18
 157 391 157 391 103 376 c 1,19,-1
 90 436 l 1,20,21
 146 455 146 455 210 455 c 0,22,0
 398 455 398 455 398 224 c 256,1,2
EndSplineSet
EndChar

StartChar: uni045B
Encoding: 1115 1115 392
Width: 448
GlyphClass: 2
Flags: W
LayerCount: 2
UndoRedoHistory
Layer: 1
Undoes
EndUndoes
Redoes
RedoOperation
Index: 0
Type: 3
WasModified: 0
WasOrder2: 1
Layer: 2
EndRedoOperation
EndRedoes
EndUndoRedoHistory
Fore
SplineSet
353 417 m 128,-1,1
 388 382 388 382 388 297 c 2,2,-1
 388 0 l 1,3,-1
 316 0 l 1,4,-1
 316 289 l 2,5,6
 316 342 316 342 301 365 c 128,-1,7
 286 388 286 388 247 388 c 0,8,9
 218 388 218 388 188 372 c 128,-1,10
 158 356 158 356 132 330 c 1,11,-1
 132 0 l 1,12,-1
 60 0 l 1,13,-1
 60 504 l 1,14,-1
 10 504 l 1,15,-1
 10 564 l 1,16,-1
 60 564 l 1,17,-1
 60 640 l 1,18,-1
 132 640 l 1,19,-1
 132 564 l 1,20,-1
 266 564 l 1,21,-1
 266 504 l 1,22,-1
 132 504 l 1,23,-1
 132 402 l 1,24,25
 160 425 160 425 193.5 438.5 c 128,-1,26
 227 452 227 452 261 452 c 0,27,0
 318 452 318 452 353 417 c 128,-1,1
EndSplineSet
EndChar

StartChar: uni044E
Encoding: 1102 1102 393
Width: 448
Flags: W
CounterMasks: 1 e0
LayerCount: 2
UndoRedoHistory
Layer: 1
Undoes
EndUndoes
Redoes
RedoOperation
Index: 0
Type: 3
WasModified: 0
WasOrder2: 1
Layer: 2
EndRedoOperation
EndRedoes
EndUndoRedoHistory
Fore
SplineSet
256 64 m 1,0,-1
 192 64 l 1,1,-1
 192 192 l 1,2,-1
 128 192 l 1,3,-1
 128 0 l 1,4,-1
 64 0 l 1,5,-1
 64 448 l 1,6,-1
 128 448 l 1,7,-1
 128 256 l 1,8,-1
 192 256 l 1,9,-1
 192 384 l 1,10,-1
 256 384 l 1,11,-1
 256 64 l 1,0,-1
256 448 m 1,12,-1
 320 448 l 1,13,-1
 320 384 l 1,14,-1
 256 384 l 1,15,-1
 256 448 l 1,12,-1
320 384 m 1,16,-1
 384 384 l 1,17,-1
 384 64 l 1,18,-1
 320 64 l 1,19,-1
 320 384 l 1,16,-1
320 0 m 1,20,-1
 256 0 l 1,21,-1
 256 64 l 1,22,-1
 320 64 l 1,23,-1
 320 0 l 1,20,-1
EndSplineSet
EndChar

StartChar: uni044F
Encoding: 1103 1103 394
Width: 448
Flags: W
LayerCount: 2
UndoRedoHistory
Layer: 1
Undoes
EndUndoes
Redoes
RedoOperation
Index: 0
Type: 3
WasModified: 0
WasOrder2: 1
Layer: 2
EndRedoOperation
EndRedoes
EndUndoRedoHistory
Fore
SplineSet
384 448 m 1,0,-1
 384 0 l 1,1,-1
 320 0 l 1,2,-1
 320 128 l 1,3,-1
 192 128 l 1,4,-1
 192 64 l 1,5,-1
 128 64 l 1,6,-1
 128 192 l 1,7,-1
 320 192 l 1,8,-1
 320 384 l 1,9,-1
 128 384 l 1,10,-1
 128 448 l 1,11,-1
 384 448 l 1,0,-1
128 384 m 1,12,-1
 128 192 l 1,13,-1
 64 192 l 1,14,-1
 64 384 l 1,15,-1
 128 384 l 1,12,-1
128 0 m 1,16,-1
 64 0 l 1,17,-1
 64 64 l 1,18,-1
 128 64 l 1,19,-1
 128 0 l 1,16,-1
EndSplineSet
EndChar

StartChar: uni0452
Encoding: 1106 1106 395
Width: 448
GlyphClass: 2
Flags: W
LayerCount: 2
UndoRedoHistory
Layer: 1
Undoes
EndUndoes
Redoes
RedoOperation
Index: 0
Type: 3
WasModified: 0
WasOrder2: 1
Layer: 2
EndRedoOperation
EndRedoes
EndUndoRedoHistory
Fore
SplineSet
353 417 m 128,-1,1
 388 382 388 382 388 297 c 2,2,-1
 388 0 l 1,3,-1
 384 0 l 1,4,-1
 384 -128 l 1,5,-1
 320 -128 l 1,6,-1
 320 0 l 1,7,-1
 316 0 l 1,8,-1
 316 289 l 2,9,10
 316 342 316 342 301 365 c 128,-1,11
 286 388 286 388 247 388 c 0,12,13
 218 388 218 388 188 372 c 128,-1,14
 158 356 158 356 132 330 c 1,15,-1
 132 0 l 1,16,-1
 60 0 l 1,17,-1
 60 504 l 1,18,-1
 10 504 l 1,19,-1
 10 564 l 1,20,-1
 60 564 l 1,21,-1
 60 640 l 1,22,-1
 132 640 l 1,23,-1
 132 564 l 1,24,-1
 266 564 l 1,25,-1
 266 504 l 1,26,-1
 132 504 l 1,27,-1
 132 402 l 1,28,29
 160 425 160 425 193.5 438.5 c 128,-1,30
 227 452 227 452 261 452 c 0,31,0
 318 452 318 452 353 417 c 128,-1,1
320 -192 m 1,32,-1
 256 -192 l 1,33,-1
 256 -128 l 1,34,-1
 320 -128 l 1,35,-1
 320 -192 l 1,32,-1
EndSplineSet
EndChar

StartChar: uni0394
Encoding: 916 916 399
Width: 448
Flags: W
LayerCount: 2
UndoRedoHistory
Layer: 1
Undoes
EndUndoes
Redoes
RedoOperation
Index: 0
Type: 3
WasModified: 0
WasOrder2: 1
Layer: 2
EndRedoOperation
EndRedoes
EndUndoRedoHistory
Fore
SplineSet
256 643 m 1,0,1
 317 521 317 521 357 354.5 c 128,-1,2
 397 188 397 188 412 0 c 1,3,-1
 36 0 l 1,4,5
 51 188 51 188 91 354.5 c 128,-1,6
 131 521 131 521 192 643 c 1,7,-1
 256 643 l 1,0,1
332 64 m 1,8,9
 298 362 298 362 224 551 c 1,10,11
 150 362 150 362 116 64 c 1,12,-1
 332 64 l 1,8,9
EndSplineSet
EndChar

StartChar: Theta
Encoding: 920 920 403
Width: 448
GlyphClass: 2
Flags: W
LayerCount: 2
UndoRedoHistory
Layer: 1
Undoes
EndUndoes
Redoes
RedoOperation
Index: 0
Type: 3
WasModified: 0
WasOrder2: 1
Layer: 2
EndRedoOperation
EndRedoes
EndUndoRedoHistory
Fore
SplineSet
365.5 568.5 m 128,-1,1
 411 487 411 487 411 319 c 0,2,3
 411 154 411 154 365.5 72 c 128,-1,4
 320 -10 320 -10 224 -10 c 0,5,6
 37 -10 37 -10 37 319 c 0,7,8
 37 486 37 486 83.5 568 c 128,-1,9
 130 650 130 650 224 650 c 0,10,0
 320 650 320 650 365.5 568.5 c 128,-1,1
159 558 m 128,-1,12
 135 532 135 532 124 474.5 c 128,-1,13
 113 417 113 417 113 320 c 1,14,-1
 335 320 l 1,15,16
 335 417 335 417 324 474.5 c 128,-1,17
 313 532 313 532 289 558 c 128,-1,18
 265 584 265 584 224 584 c 256,19,11
 183 584 183 584 159 558 c 128,-1,12
303 102 m 128,-1,21
 329 148 329 148 334 256 c 1,22,-1
 114 256 l 1,23,24
 119 148 119 148 145 102 c 128,-1,25
 171 56 171 56 224 56 c 256,26,20
 277 56 277 56 303 102 c 128,-1,21
EndSplineSet
EndChar

StartChar: Lambda
Encoding: 923 923 406
Width: 448
GlyphClass: 2
Flags: W
LayerCount: 2
UndoRedoHistory
Layer: 1
Undoes
EndUndoes
Redoes
RedoOperation
Index: 0
Type: 3
WasModified: 0
WasOrder2: 1
Layer: 2
EndRedoOperation
EndRedoes
EndUndoRedoHistory
Fore
SplineSet
338 0 m 1,0,1
 323 166 323 166 294 307 c 128,-1,2
 265 448 265 448 224 551 c 1,3,4
 183 448 183 448 154 307 c 128,-1,5
 125 166 125 166 110 0 c 1,6,-1
 35 0 l 1,7,8
 50 187 50 187 90 353.5 c 128,-1,9
 130 520 130 520 192 643 c 1,10,-1
 256 643 l 1,11,12
 318 520 318 520 358 353.5 c 128,-1,13
 398 187 398 187 413 0 c 1,14,-1
 338 0 l 1,0,1
EndSplineSet
EndChar

StartChar: Xi
Encoding: 926 926 409
Width: 448
Flags: W
LayerCount: 2
UndoRedoHistory
Layer: 1
Undoes
EndUndoes
Redoes
RedoOperation
Index: 0
Type: 3
WasModified: 0
WasOrder2: 1
Layer: 2
EndRedoOperation
EndRedoes
EndUndoRedoHistory
Fore
SplineSet
55 576 m 1,0,-1
 55 640 l 1,1,-1
 393 640 l 1,2,-1
 393 576 l 1,3,-1
 55 576 l 1,0,-1
104 256 m 1,4,-1
 104 320 l 1,5,-1
 344 320 l 1,6,-1
 344 256 l 1,7,-1
 104 256 l 1,4,-1
50 0 m 1,8,-1
 50 64 l 1,9,-1
 398 64 l 1,10,-1
 398 0 l 1,11,-1
 50 0 l 1,8,-1
EndSplineSet
EndChar

StartChar: Sigma
Encoding: 931 931 413
Width: 448
Flags: W
LayerCount: 2
UndoRedoHistory
Layer: 1
Undoes
EndUndoes
Redoes
RedoOperation
Index: 0
Type: 3
WasModified: 0
WasOrder2: 1
Layer: 2
EndRedoOperation
EndRedoes
EndUndoRedoHistory
Fore
SplineSet
128 576 m 1,0,-1
 128 512 l 1,1,-1
 64 512 l 1,2,-1
 64 640 l 1,3,-1
 384 640 l 1,4,-1
 384 576 l 1,5,-1
 128 576 l 1,0,-1
192 384 m 1,6,-1
 128 384 l 1,7,-1
 128 512 l 1,8,-1
 192 512 l 1,9,-1
 192 384 l 1,6,-1
256 256 m 1,10,-1
 192 256 l 1,11,-1
 192 384 l 1,12,-1
 256 384 l 1,13,-1
 256 256 l 1,10,-1
128 128 m 1,14,-1
 128 256 l 1,15,-1
 192 256 l 1,16,-1
 192 128 l 1,17,-1
 128 128 l 1,14,-1
64 0 m 1,18,-1
 64 128 l 1,19,-1
 128 128 l 1,20,-1
 128 64 l 1,21,-1
 384 64 l 1,22,-1
 384 0 l 1,23,-1
 64 0 l 1,18,-1
EndSplineSet
EndChar

StartChar: Psi
Encoding: 936 936 418
Width: 448
Flags: W
CounterMasks: 1 1c
LayerCount: 2
UndoRedoHistory
Layer: 1
Undoes
EndUndoes
Redoes
RedoOperation
Index: 0
Type: 3
WasModified: 0
WasOrder2: 1
Layer: 2
EndRedoOperation
EndRedoes
EndUndoRedoHistory
Fore
SplineSet
128 320 m 1,0,-1
 64 320 l 1,1,-1
 64 640 l 1,2,-1
 128 640 l 1,3,-1
 128 320 l 1,0,-1
256 320 m 1,4,-1
 320 320 l 1,5,-1
 320 256 l 1,6,-1
 256 256 l 1,7,-1
 256 0 l 1,8,-1
 192 0 l 1,9,-1
 192 256 l 1,10,-1
 128 256 l 1,11,-1
 128 320 l 1,12,-1
 192 320 l 1,13,-1
 192 640 l 1,14,-1
 256 640 l 1,15,-1
 256 320 l 1,4,-1
320 640 m 1,16,-1
 384 640 l 1,17,-1
 384 320 l 1,18,-1
 320 320 l 1,19,-1
 320 640 l 1,16,-1
EndSplineSet
EndChar

StartChar: uni03A9
Encoding: 937 937 419
Width: 448
Flags: W
LayerCount: 2
UndoRedoHistory
Layer: 1
Undoes
EndUndoes
Redoes
RedoOperation
Index: 0
Type: 3
WasModified: 0
WasOrder2: 1
Layer: 2
EndRedoOperation
EndRedoes
EndUndoRedoHistory
Fore
SplineSet
324 64 m 1,0,-1
 404 64 l 1,1,-1
 404 0 l 1,2,-1
 252 0 l 1,3,-1
 252 187 l 1,4,5
 298 197 298 197 316.5 243 c 128,-1,6
 335 289 335 289 335 383 c 0,7,8
 335 493 335 493 310 538.5 c 128,-1,9
 285 584 285 584 224 584 c 256,10,11
 163 584 163 584 138 538.5 c 128,-1,12
 113 493 113 493 113 383 c 0,13,14
 113 289 113 289 131.5 243 c 128,-1,15
 150 197 150 197 196 187 c 1,16,-1
 196 0 l 1,17,-1
 44 0 l 1,18,-1
 44 64 l 1,19,-1
 124 64 l 1,20,-1
 124 153 l 1,21,22
 37 207 37 207 37 383 c 0,23,24
 37 517 37 517 83.5 583.5 c 128,-1,25
 130 650 130 650 224 650 c 0,26,27
 320 650 320 650 365.5 584 c 128,-1,28
 411 518 411 518 411 383 c 0,29,30
 411 292 411 292 390 235 c 128,-1,31
 369 178 369 178 324 152 c 1,32,-1
 324 64 l 1,0,-1
EndSplineSet
EndChar

StartChar: uni03D2
Encoding: 978 978 429
Width: 448
Flags: W
LayerCount: 2
UndoRedoHistory
Layer: 1
Undoes
EndUndoes
Redoes
RedoOperation
Index: 0
Type: 3
WasModified: 0
WasOrder2: 1
Layer: 2
EndRedoOperation
EndRedoes
EndUndoRedoHistory
Fore
SplineSet
64 576 m 1,0,-1
 64 640 l 1,1,-1
 128 640 l 1,2,-1
 128 576 l 1,3,-1
 64 576 l 1,0,-1
320 576 m 1,4,-1
 320 640 l 1,5,-1
 384 640 l 1,6,-1
 384 576 l 1,7,-1
 320 576 l 1,4,-1
128 576 m 1,8,-1
 192 576 l 1,9,-1
 192 448 l 1,10,-1
 128 448 l 1,11,-1
 128 576 l 1,8,-1
256 448 m 1,12,-1
 256 576 l 1,13,-1
 320 576 l 1,14,-1
 320 448 l 1,15,-1
 256 448 l 1,12,-1
192 448 m 1,16,-1
 256 448 l 1,17,-1
 256 0 l 1,18,-1
 192 0 l 1,19,-1
 192 448 l 1,16,-1
EndSplineSet
EndChar

StartChar: alpha
Encoding: 945 945 430
Width: 448
Flags: W
LayerCount: 2
UndoRedoHistory
Layer: 1
Undoes
EndUndoes
Redoes
RedoOperation
Index: 0
Type: 3
WasModified: 0
WasOrder2: 1
Layer: 2
EndRedoOperation
EndRedoes
EndUndoRedoHistory
Fore
SplineSet
393 91 m 2,1,-1
 400 2 l 1,2,-1
 328 -3 l 1,3,-1
 325 84 l 1,4,5
 272 -8 272 -8 194 -8 c 0,6,7
 118 -8 118 -8 84.5 54.5 c 128,-1,8
 51 117 51 117 51 224 c 256,9,10
 51 331 51 331 84.5 393.5 c 128,-1,11
 118 456 118 456 194 456 c 0,12,13
 272 456 272 456 325 364 c 1,14,-1
 328 451 l 1,15,-1
 400 446 l 1,16,-1
 393 357 l 2,17,18
 387 279 387 279 374 224 c 1,19,0
 387 169 387 169 393 91 c 2,1,-1
267.5 99 m 128,-1,21
 299 142 299 142 313 224 c 1,22,23
 299 306 299 306 267.5 349 c 128,-1,24
 236 392 236 392 199 392 c 256,25,26
 162 392 162 392 145.5 355 c 128,-1,27
 129 318 129 318 129 224 c 256,28,29
 129 130 129 130 145.5 93 c 128,-1,30
 162 56 162 56 199 56 c 256,31,20
 236 56 236 56 267.5 99 c 128,-1,21
EndSplineSet
EndChar

StartChar: beta
Encoding: 946 946 431
Width: 448
Flags: W
LayerCount: 2
UndoRedoHistory
Layer: 1
Undoes
EndUndoes
Redoes
RedoOperation
Index: 0
Type: 3
WasModified: 0
WasOrder2: 1
Layer: 2
EndRedoOperation
EndRedoes
EndUndoRedoHistory
Fore
SplineSet
320 576 m 1,0,-1
 128 576 l 1,1,-1
 128 640 l 1,2,-1
 320 640 l 1,3,-1
 320 576 l 1,0,-1
128 128 m 1,4,-1
 192 128 l 1,5,-1
 192 64 l 1,6,-1
 128 64 l 1,7,-1
 128 -192 l 1,8,-1
 64 -192 l 1,9,-1
 64 576 l 1,10,-1
 128 576 l 1,11,-1
 128 128 l 1,4,-1
320 576 m 1,12,-1
 384 576 l 1,13,-1
 384 384 l 1,14,-1
 320 384 l 1,15,-1
 320 576 l 1,12,-1
192 320 m 1,16,-1
 192 384 l 1,17,-1
 320 384 l 1,18,-1
 320 320 l 1,19,-1
 192 320 l 1,16,-1
320 320 m 1,20,-1
 384 320 l 1,21,-1
 384 64 l 1,22,-1
 320 64 l 1,23,-1
 320 320 l 1,20,-1
192 0 m 1,24,-1
 192 64 l 1,25,-1
 320 64 l 1,26,-1
 320 0 l 1,27,-1
 192 0 l 1,24,-1
EndSplineSet
EndChar

StartChar: gamma
Encoding: 947 947 432
Width: 448
Flags: W
LayerCount: 2
UndoRedoHistory
Layer: 1
Undoes
EndUndoes
Redoes
RedoOperation
Index: 0
Type: 3
WasModified: 0
WasOrder2: 1
Layer: 2
EndRedoOperation
EndRedoes
EndUndoRedoHistory
Fore
SplineSet
406 447 m 1,0,1
 395 313 395 313 358.5 212 c 128,-1,2
 322 111 322 111 260 15 c 1,3,-1
 260 -192 l 1,4,-1
 188 -192 l 1,5,-1
 188 15 l 1,6,7
 126 111 126 111 89.5 212 c 128,-1,8
 53 313 53 313 42 447 c 1,9,-1
 117 451 l 1,10,11
 128 325 128 325 153 245.5 c 128,-1,12
 178 166 178 166 224 86 c 1,13,14
 270 166 270 166 295 245.5 c 128,-1,15
 320 325 320 325 331 451 c 1,16,-1
 406 447 l 1,0,1
EndSplineSet
EndChar

StartChar: delta
Encoding: 948 948 433
Width: 448
Flags: W
LayerCount: 2
UndoRedoHistory
Layer: 1
Undoes
EndUndoes
Redoes
RedoOperation
Index: 0
Type: 3
WasModified: 0
WasOrder2: 1
Layer: 2
EndRedoOperation
EndRedoes
EndUndoRedoHistory
Fore
SplineSet
357.5 331 m 128,-1,1
 398 276 398 276 398 192 c 0,2,3
 398 139 398 139 380 92.5 c 128,-1,4
 362 46 362 46 322 16.5 c 128,-1,5
 282 -13 282 -13 221 -13 c 0,6,7
 162 -13 162 -13 123.5 15.5 c 128,-1,8
 85 44 85 44 67.5 87.5 c 128,-1,9
 50 131 50 131 50 177 c 0,10,11
 50 247 50 247 85.5 303.5 c 128,-1,12
 121 360 121 360 184 396 c 1,13,14
 151 421 151 421 134 449.5 c 128,-1,15
 117 478 117 478 117 518 c 0,16,17
 117 572 117 572 155 607 c 128,-1,18
 193 642 193 642 278 642 c 0,19,20
 323 642 323 642 384 635 c 1,21,-1
 378 573 l 1,22,23
 315 578 315 578 278 578 c 0,24,25
 192 578 192 578 192 516 c 0,26,27
 192 492 192 492 205 474.5 c 128,-1,28
 218 457 218 457 257 429 c 0,29,0
 317 386 317 386 357.5 331 c 128,-1,1
298 86.5 m 128,-1,31
 324 122 324 122 324 192 c 0,32,33
 324 291 324 291 240 357 c 1,34,35
 175 320 175 320 150 278 c 128,-1,36
 125 236 125 236 125 176 c 0,37,38
 125 118 125 118 150 84.5 c 128,-1,39
 175 51 175 51 221 51 c 0,40,30
 272 51 272 51 298 86.5 c 128,-1,31
EndSplineSet
EndChar

StartChar: epsilon
Encoding: 949 949 434
Width: 448
Flags: W
LayerCount: 2
UndoRedoHistory
Layer: 1
Undoes
EndUndoes
Redoes
RedoOperation
Index: 0
Type: 3
WasModified: 0
WasOrder2: 1
Layer: 2
EndRedoOperation
EndRedoes
EndUndoRedoHistory
Fore
SplineSet
128 384 m 1,0,-1
 128 448 l 1,1,-1
 384 448 l 1,2,-1
 384 384 l 1,3,-1
 128 384 l 1,0,-1
64 384 m 1,4,-1
 128 384 l 1,5,-1
 128 256 l 1,6,-1
 64 256 l 1,7,-1
 64 384 l 1,4,-1
128 192 m 1,8,-1
 128 256 l 1,9,-1
 320 256 l 1,10,-1
 320 192 l 1,11,-1
 128 192 l 1,8,-1
64 64 m 1,12,-1
 64 192 l 1,13,-1
 128 192 l 1,14,-1
 128 64 l 1,15,-1
 64 64 l 1,12,-1
128 0 m 1,16,-1
 128 64 l 1,17,-1
 384 64 l 1,18,-1
 384 0 l 1,19,-1
 128 0 l 1,16,-1
EndSplineSet
EndChar

StartChar: zeta
Encoding: 950 950 435
Width: 448
Flags: W
LayerCount: 2
UndoRedoHistory
Layer: 1
Undoes
EndUndoes
Redoes
RedoOperation
Index: 0
Type: 3
WasModified: 0
WasOrder2: 1
Layer: 2
EndRedoOperation
EndRedoes
EndUndoRedoHistory
Fore
SplineSet
348 22 m 128,-1,1
 388 -5 388 -5 388 -71 c 0,2,3
 388 -128 388 -128 350.5 -160 c 128,-1,4
 313 -192 313 -192 250 -192 c 0,5,6
 213 -192 213 -192 184 -184 c 1,7,-1
 192 -125 l 1,8,9
 225 -128 225 -128 246 -128 c 0,10,11
 285 -128 285 -128 300.5 -114.5 c 128,-1,12
 316 -101 316 -101 316 -71 c 0,13,14
 316 -40 316 -40 295.5 -25.5 c 128,-1,15
 275 -11 275 -11 224 -7 c 0,16,17
 130 0 130 0 88 61 c 128,-1,18
 46 122 46 122 46 229 c 0,19,20
 46 337 46 337 109.5 428.5 c 128,-1,21
 173 520 173 520 267 576 c 1,22,-1
 64 576 l 1,23,-1
 64 640 l 1,24,-1
 384 640 l 1,25,-1
 384 576 l 1,26,27
 252 515 252 515 189 426.5 c 128,-1,28
 126 338 126 338 126 217 c 0,29,30
 126 159 126 159 136 126 c 128,-1,31
 146 93 146 93 171.5 76.5 c 128,-1,32
 197 60 197 60 246 55 c 0,33,0
 308 49 308 49 348 22 c 128,-1,1
EndSplineSet
EndChar

StartChar: eta
Encoding: 951 951 436
Width: 448
Flags: W
LayerCount: 2
UndoRedoHistory
Layer: 1
Undoes
EndUndoes
Redoes
RedoOperation
Index: 0
Type: 3
WasModified: 0
WasOrder2: 1
Layer: 2
EndRedoOperation
EndRedoes
EndUndoRedoHistory
Fore
SplineSet
353 417 m 128,-1,1
 388 382 388 382 388 297 c 2,2,-1
 388 -192 l 1,3,-1
 316 -192 l 1,4,-1
 316 289 l 2,5,6
 316 342 316 342 301 365 c 128,-1,7
 286 388 286 388 247 388 c 0,8,9
 218 388 218 388 188 372 c 128,-1,10
 158 356 158 356 132 330 c 1,11,-1
 132 0 l 1,12,-1
 60 0 l 1,13,-1
 60 383 l 1,14,-1
 58 448 l 1,15,-1
 124 448 l 1,16,-1
 130 400 l 1,17,18
 158 424 158 424 192 438 c 128,-1,19
 226 452 226 452 261 452 c 0,20,0
 318 452 318 452 353 417 c 128,-1,1
EndSplineSet
EndChar

StartChar: theta
Encoding: 952 952 437
Width: 448
Flags: W
LayerCount: 2
UndoRedoHistory
Layer: 1
Undoes
EndUndoes
Redoes
RedoOperation
Index: 0
Type: 3
WasModified: 0
WasOrder2: 1
Layer: 2
EndRedoOperation
EndRedoes
EndUndoRedoHistory
Fore
SplineSet
320 640 m 1,0,-1
 320 576 l 1,1,-1
 192 576 l 1,2,-1
 192 640 l 1,3,-1
 320 640 l 1,0,-1
192 576 m 1,4,-1
 192 384 l 1,5,-1
 128 384 l 1,6,-1
 128 576 l 1,7,-1
 192 576 l 1,4,-1
320 576 m 1,8,-1
 384 576 l 1,9,-1
 384 64 l 1,10,-1
 320 64 l 1,11,-1
 320 320 l 1,12,-1
 192 320 l 1,13,-1
 192 384 l 1,14,-1
 320 384 l 1,15,-1
 320 576 l 1,8,-1
128 64 m 1,16,-1
 64 64 l 1,17,-1
 64 320 l 1,18,-1
 128 320 l 1,19,-1
 128 64 l 1,16,-1
128 64 m 1,20,-1
 320 64 l 1,21,-1
 320 0 l 1,22,-1
 128 0 l 1,23,-1
 128 64 l 1,20,-1
EndSplineSet
EndChar

StartChar: iota
Encoding: 953 953 438
Width: 448
Flags: W
LayerCount: 2
UndoRedoHistory
Layer: 1
Undoes
EndUndoes
Redoes
RedoOperation
Index: 0
Type: 12
WasModified: 0
WasOrder2: 0
Layer: 0
HStem: -4 64<255.083 362.347> 389 59<98 173>
VStem: 173 72<70.1772 384>
EndRedoOperation
EndRedoes
EndUndoRedoHistory
Fore
SplineSet
98 448 m 1,0,-1
 245 448 l 1,1,-1
 245 119 l 2,2,3
 245 60 245 60 308 60 c 0,4,5
 332 60 332 60 362 63 c 1,6,-1
 367 0 l 1,7,8
 336 -4 336 -4 305 -4 c 0,9,10
 245 -4 245 -4 209 26 c 128,-1,11
 173 56 173 56 173 124 c 2,12,-1
 173 384 l 1,13,-1
 98 389 l 1,14,-1
 98 448 l 1,0,-1
EndSplineSet
EndChar

StartChar: lambda
Encoding: 955 955 440
Width: 448
Flags: W
LayerCount: 2
UndoRedoHistory
Layer: 1
Undoes
EndUndoes
Redoes
RedoOperation
Index: 0
Type: 3
WasModified: 0
WasOrder2: 1
Layer: 2
EndRedoOperation
EndRedoes
EndUndoRedoHistory
Fore
SplineSet
64 640 m 1,0,-1
 192 640 l 1,1,-1
 192 576 l 1,2,-1
 64 576 l 1,3,-1
 64 640 l 1,0,-1
192 576 m 1,4,-1
 256 576 l 1,5,-1
 256 448 l 1,6,-1
 192 448 l 1,7,-1
 192 576 l 1,4,-1
320 448 m 1,8,-1
 320 256 l 1,9,-1
 256 256 l 1,10,-1
 256 320 l 1,11,-1
 192 320 l 1,12,-1
 192 384 l 1,13,-1
 256 384 l 1,14,-1
 256 448 l 1,15,-1
 320 448 l 1,8,-1
128 192 m 1,16,-1
 128 320 l 1,17,-1
 192 320 l 1,18,-1
 192 192 l 1,19,-1
 128 192 l 1,16,-1
320 256 m 1,20,-1
 384 256 l 1,21,-1
 384 0 l 1,22,-1
 320 0 l 1,23,-1
 320 256 l 1,20,-1
64 192 m 1,24,-1
 128 192 l 1,25,-1
 128 0 l 1,26,-1
 64 0 l 1,27,-1
 64 192 l 1,24,-1
EndSplineSet
EndChar

StartChar: xi
Encoding: 958 958 443
Width: 448
Flags: W
LayerCount: 2
UndoRedoHistory
Layer: 1
Undoes
EndUndoes
Redoes
RedoOperation
Index: 0
Type: 3
WasModified: 0
WasOrder2: 1
Layer: 2
EndRedoOperation
EndRedoes
EndUndoRedoHistory
Fore
SplineSet
316 36 m 128,-1,1
 347 25 347 25 367.5 -0.5 c 128,-1,2
 388 -26 388 -26 388 -71 c 0,3,4
 388 -128 388 -128 350.5 -160 c 128,-1,5
 313 -192 313 -192 250 -192 c 0,6,7
 213 -192 213 -192 184 -184 c 1,8,-1
 192 -125 l 1,9,10
 225 -128 225 -128 246 -128 c 0,11,12
 285 -128 285 -128 300.5 -115 c 128,-1,13
 316 -102 316 -102 316 -74 c 0,14,15
 316 -51 316 -51 307.5 -38.5 c 128,-1,16
 299 -26 299 -26 276.5 -17.5 c 128,-1,17
 254 -9 254 -9 210 -2 c 0,18,19
 133 11 133 11 94.5 47.5 c 128,-1,20
 56 84 56 84 56 149 c 0,21,22
 56 202 56 202 89 239 c 128,-1,23
 122 276 122 276 175 294 c 1,24,25
 125 311 125 311 97.5 348.5 c 128,-1,26
 70 386 70 386 70 440 c 0,27,28
 70 482 70 482 91.5 517.5 c 128,-1,29
 113 553 113 553 153 576 c 1,30,-1
 74 576 l 1,31,-1
 74 640 l 1,32,-1
 379 640 l 1,33,-1
 379 576 l 1,34,-1
 285 576 l 2,35,36
 245 576 245 576 212 558 c 128,-1,37
 179 540 179 540 160.5 510.5 c 128,-1,38
 142 481 142 481 142 446 c 0,39,40
 142 382 142 382 178.5 351 c 128,-1,41
 215 320 215 320 310 320 c 1,42,-1
 310 256 l 1,43,44
 205 256 205 256 166.5 230 c 128,-1,45
 128 204 128 204 128 154 c 0,46,47
 128 114 128 114 153.5 90 c 128,-1,48
 179 66 179 66 236 56 c 0,49,0
 285 47 285 47 316 36 c 128,-1,1
EndSplineSet
EndChar

StartChar: pi
Encoding: 960 960 445
Width: 448
Flags: W
LayerCount: 2
UndoRedoHistory
Layer: 1
Undoes
EndUndoes
Redoes
RedoOperation
Index: 0
Type: 12
WasModified: 0
WasOrder2: 0
Layer: 0
HStem: 0 21G<60 132 316 388> 384 64<132 316>
VStem: 60 72<0 384> 316 72<0 384>
EndRedoOperation
EndRedoes
EndUndoRedoHistory
Fore
SplineSet
388 448 m 1,0,-1
 388 0 l 1,1,-1
 316 0 l 1,2,-1
 316 384 l 1,3,-1
 132 384 l 1,4,-1
 132 0 l 1,5,-1
 60 0 l 1,6,-1
 60 448 l 1,7,-1
 388 448 l 1,0,-1
EndSplineSet
EndChar

StartChar: rho
Encoding: 961 961 446
Width: 448
Flags: W
LayerCount: 2
UndoRedoHistory
Layer: 1
Undoes
EndUndoes
Redoes
RedoOperation
Index: 0
Type: 3
WasModified: 0
WasOrder2: 1
Layer: 2
EndRedoOperation
EndRedoes
EndUndoRedoHistory
Fore
SplineSet
354.5 393.5 m 128,-1,1
 397 329 397 329 397 224 c 0,2,3
 397 120 397 120 356 56 c 128,-1,4
 315 -8 315 -8 233 -8 c 0,5,6
 170 -8 170 -8 132 28 c 1,7,-1
 132 -192 l 1,8,-1
 60 -192 l 1,9,-1
 60 192 l 2,10,11
 60 300 60 300 71 346 c 0,12,13
 85 405 85 405 126 431.5 c 128,-1,14
 167 458 167 458 224 458 c 0,15,0
 312 458 312 458 354.5 393.5 c 128,-1,1
279.5 71.5 m 128,-1,17
 300 87 300 87 309.5 123.5 c 128,-1,18
 319 160 319 160 319 224 c 0,19,20
 319 289 319 289 309.5 325.5 c 128,-1,21
 300 362 300 362 279.5 378 c 128,-1,22
 259 394 259 394 224 394 c 0,23,24
 158 394 158 394 141 334 c 0,25,26
 132 300 132 300 132 192 c 2,27,-1
 132 99 l 1,28,29
 161 56 161 56 224 56 c 0,30,16
 259 56 259 56 279.5 71.5 c 128,-1,17
EndSplineSet
EndChar

StartChar: uni03C2
Encoding: 962 962 447
Width: 448
Flags: W
LayerCount: 2
UndoRedoHistory
Layer: 1
Undoes
EndUndoes
Redoes
RedoOperation
Index: 0
Type: 3
WasModified: 0
WasOrder2: 1
Layer: 2
EndRedoOperation
EndRedoes
EndUndoRedoHistory
Fore
SplineSet
345 376 m 1,0,1
 291 391 291 391 242 391 c 0,2,3
 198 391 198 391 173 375.5 c 128,-1,4
 148 360 148 360 137 324 c 128,-1,5
 126 288 126 288 126 224 c 0,6,7
 126 159 126 159 136 125 c 128,-1,8
 146 91 146 91 171 75.5 c 128,-1,9
 196 60 196 60 246 55 c 0,10,11
 308 49 308 49 348 22 c 128,-1,12
 388 -5 388 -5 388 -71 c 0,13,14
 388 -128 388 -128 350.5 -160 c 128,-1,15
 313 -192 313 -192 250 -192 c 0,16,17
 213 -192 213 -192 184 -184 c 1,18,-1
 192 -125 l 1,19,20
 225 -128 225 -128 246 -128 c 0,21,22
 285 -128 285 -128 300.5 -114.5 c 128,-1,23
 316 -101 316 -101 316 -71 c 0,24,25
 316 -40 316 -40 295.5 -25.5 c 128,-1,26
 275 -11 275 -11 224 -7 c 0,27,28
 131 0 131 0 90.5 60.5 c 128,-1,29
 50 121 50 121 50 224 c 0,30,31
 50 455 50 455 238 455 c 0,32,33
 302 455 302 455 358 436 c 1,34,-1
 345 376 l 1,0,1
EndSplineSet
EndChar

StartChar: sigma
Encoding: 963 963 448
Width: 448
Flags: W
LayerCount: 2
UndoRedoHistory
Layer: 1
Undoes
EndUndoes
Redoes
RedoOperation
Index: 0
Type: 3
WasModified: 0
WasOrder2: 1
Layer: 2
EndRedoOperation
EndRedoes
EndUndoRedoHistory
Fore
SplineSet
448 448 m 1,0,-1
 448 384 l 1,1,-1
 357 384 l 1,2,3
 398 325 398 325 398 218 c 0,4,5
 398 114 398 114 355.5 50.5 c 128,-1,6
 313 -13 313 -13 224 -13 c 0,7,8
 133 -13 133 -13 91.5 50 c 128,-1,9
 50 113 50 113 50 218 c 0,10,11
 50 322 50 322 91.5 385 c 128,-1,12
 133 448 133 448 224 448 c 2,13,-1
 448 448 l 1,0,-1
299.5 88.5 m 128,-1,15
 322 126 322 126 322 218 c 0,16,17
 322 309 322 309 299 346.5 c 128,-1,18
 276 384 276 384 224 384 c 256,19,20
 172 384 172 384 149 346.5 c 128,-1,21
 126 309 126 309 126 218 c 0,22,23
 126 126 126 126 148.5 88.5 c 128,-1,24
 171 51 171 51 224 51 c 256,25,14
 277 51 277 51 299.5 88.5 c 128,-1,15
EndSplineSet
EndChar

StartChar: upsilon
Encoding: 965 965 450
Width: 448
Flags: W
LayerCount: 2
UndoRedoHistory
Layer: 1
Undoes
EndUndoes
Redoes
RedoOperation
Index: 0
Type: 3
WasModified: 0
WasOrder2: 1
Layer: 2
EndRedoOperation
EndRedoes
EndUndoRedoHistory
Fore
SplineSet
137 448 m 1,0,1
 132 349 132 349 132 235 c 0,2,3
 132 152 132 152 143 110 c 0,4,5
 157 52 157 52 224 52 c 0,6,7
 260 52 260 52 280 68.5 c 128,-1,8
 300 85 300 85 309.5 123.5 c 128,-1,9
 319 162 319 162 319 232 c 0,10,11
 319 289 319 289 310 321 c 128,-1,12
 301 353 301 353 284.5 370 c 128,-1,13
 268 387 268 387 237 403 c 1,14,-1
 264 460 l 1,15,16
 330 434 330 434 363.5 382.5 c 128,-1,17
 397 331 397 331 397 232 c 0,18,19
 397 116 397 116 355 52 c 128,-1,20
 313 -12 313 -12 224 -12 c 0,21,22
 111 -12 111 -12 74 92 c 0,23,24
 58 136 58 136 58 233 c 0,25,26
 58 339 58 339 72 448 c 1,27,-1
 137 448 l 1,0,1
EndSplineSet
EndChar

StartChar: chi
Encoding: 967 967 452
Width: 448
Flags: W
LayerCount: 2
UndoRedoHistory
Layer: 1
Undoes
EndUndoes
Redoes
RedoOperation
Index: 0
Type: 3
WasModified: 0
WasOrder2: 1
Layer: 2
EndRedoOperation
EndRedoes
EndUndoRedoHistory
Fore
SplineSet
321 -199 m 1,0,1
 311 -87 311 -87 292 -24 c 128,-1,2
 273 39 273 39 232 89 c 1,3,-1
 97 -199 l 1,4,-1
 30 -177 l 1,5,-1
 178 139 l 1,6,7
 123 211 123 211 95.5 277 c 128,-1,8
 68 343 68 343 50 438 c 1,9,-1
 122 451 l 1,10,11
 138 365 138 365 157 312 c 128,-1,12
 176 259 176 259 211 209 c 1,13,-1
 328 458 l 1,14,-1
 392 429 l 1,15,-1
 264 156 l 1,16,17
 325 88 325 88 353 11 c 128,-1,18
 381 -66 381 -66 393 -192 c 1,19,-1
 321 -199 l 1,0,1
EndSplineSet
EndChar

StartChar: psi
Encoding: 968 968 453
Width: 448
Flags: W
LayerCount: 2
UndoRedoHistory
Layer: 1
Undoes
EndUndoes
Redoes
RedoOperation
Index: 0
Type: 3
WasModified: 0
WasOrder2: 1
Layer: 2
EndRedoOperation
EndRedoes
EndUndoRedoHistory
Fore
SplineSet
380 448 m 1,0,1
 394 339 394 339 394 233 c 0,2,3
 394 136 394 136 378 92 c 0,4,5
 347 4 347 4 260 -7 c 1,6,-1
 260 -192 l 1,7,-1
 188 -192 l 1,8,-1
 188 -7 l 1,9,10
 101 4 101 4 70 92 c 0,11,12
 54 136 54 136 54 233 c 0,13,14
 54 339 54 339 68 448 c 1,15,-1
 129 448 l 1,16,17
 124 349 124 349 124 235 c 0,18,19
 124 152 124 152 135 110 c 0,20,21
 140 88 140 88 155 73 c 128,-1,22
 170 58 170 58 193 52 c 1,23,-1
 188 640 l 1,24,-1
 260 640 l 1,25,-1
 255 52 l 1,26,27
 278 58 278 58 293 73.5 c 128,-1,28
 308 89 308 89 313 110 c 0,29,30
 324 152 324 152 324 235 c 0,31,32
 324 349 324 349 319 448 c 1,33,-1
 380 448 l 1,0,1
EndSplineSet
EndChar

StartChar: omega
Encoding: 969 969 454
Width: 448
Flags: W
LayerCount: 2
UndoRedoHistory
Layer: 1
Undoes
EndUndoes
Redoes
RedoOperation
Index: 0
Type: 3
WasModified: 0
WasOrder2: 1
Layer: 2
EndRedoOperation
EndRedoes
EndUndoRedoHistory
Fore
SplineSet
128 448 m 1,0,-1
 192 448 l 1,1,-1
 192 384 l 1,2,-1
 128 384 l 1,3,-1
 128 448 l 1,0,-1
256 384 m 1,4,-1
 256 448 l 1,5,-1
 320 448 l 1,6,-1
 320 384 l 1,7,-1
 256 384 l 1,4,-1
128 64 m 1,8,-1
 64 64 l 1,9,-1
 64 384 l 1,10,-1
 128 384 l 1,11,-1
 128 64 l 1,8,-1
320 384 m 1,12,-1
 384 384 l 1,13,-1
 384 64 l 1,14,-1
 320 64 l 1,15,-1
 320 384 l 1,12,-1
256 256 m 1,16,-1
 256 64 l 1,17,-1
 192 64 l 1,18,-1
 192 256 l 1,19,-1
 256 256 l 1,16,-1
192 0 m 1,20,-1
 128 0 l 1,21,-1
 128 64 l 1,22,-1
 192 64 l 1,23,-1
 192 0 l 1,20,-1
320 0 m 1,24,-1
 256 0 l 1,25,-1
 256 64 l 1,26,-1
 320 64 l 1,27,-1
 320 0 l 1,24,-1
EndSplineSet
EndChar

StartChar: uni03D5
Encoding: 981 981 466
Width: 448
Flags: W
LayerCount: 2
UndoRedoHistory
Layer: 1
Undoes
EndUndoes
Redoes
RedoOperation
Index: 0
Type: 3
WasModified: 0
WasOrder2: 1
Layer: 2
EndRedoOperation
EndRedoes
EndUndoRedoHistory
Fore
SplineSet
363.5 65.5 m 128,-1,1
 330 5 330 5 260 -7 c 1,2,-1
 260 -192 l 1,3,-1
 188 -192 l 1,4,-1
 188 -7 l 1,5,6
 105 6 105 6 74 92 c 0,7,8
 58 136 58 136 58 233 c 0,9,10
 58 339 58 339 72 448 c 1,11,-1
 137 448 l 1,12,13
 132 349 132 349 132 235 c 0,14,15
 132 152 132 152 143 110 c 0,16,17
 153 69 153 69 188 54 c 1,18,-1
 188 446 l 1,19,20
 212 448 212 448 233 448 c 0,21,22
 318 448 318 448 357.5 394 c 128,-1,23
 397 340 397 340 397 224 c 0,24,0
 397 126 397 126 363.5 65.5 c 128,-1,1
260 54 m 1,25,26
 291 65 291 65 305 105 c 128,-1,27
 319 145 319 145 319 224 c 0,28,29
 319 307 319 307 305.5 339.5 c 128,-1,30
 292 372 292 372 260 377 c 1,31,-1
 260 54 l 1,25,26
EndSplineSet
EndChar

StartChar: zero
Encoding: 48 48 467
Width: 448
Flags: W
LayerCount: 2
UndoRedoHistory
Layer: 1
Undoes
EndUndoes
Redoes
RedoOperation
Index: 0
Type: 1
WasModified: 1
WasOrder2: 1
Layer: 2
Width: 448
VWidth: 1024
LBearingChange: 0
UnicodeEnc: 0
InstructionsLength: 0
SplineSet
448 623 m 1,0,-1
 40 -52 l 5,1,-1
 8 -52 l 5,2,-1
 419 626 l 1,3,-1
 448 623 l 1,0,-1
87 70.5 m 128,-1,5
 40 151 40 151 40 287 c 0,6,7
 40 427 40 427 87 506.5 c 128,-1,8
 134 586 134 586 224 586 c 0,9,10
 316 586 316 586 362 507 c 128,-1,11
 408 428 408 428 408 287 c 0,12,13
 408 150 408 150 361.5 70 c 128,-1,14
 315 -10 315 -10 224 -10 c 0,15,4
 134 -10 134 -10 87 70.5 c 128,-1,5
307 111 m 128,-1,17
 332 166 332 166 332 287 c 0,18,19
 332 409 332 409 307 464.5 c 128,-1,20
 282 520 282 520 224 520 c 256,21,22
 166 520 166 520 141 464.5 c 128,-1,23
 116 409 116 409 116 287 c 0,24,25
 116 166 116 166 141 111 c 128,-1,26
 166 56 166 56 224 56 c 256,27,16
 282 56 282 56 307 111 c 128,-1,17
EndSplineSet
EndRedoOperation
EndRedoes
EndUndoRedoHistory
Fore
SplineSet
448 623 m 1,0,-1
 40 -51 l 5,1,-1
 8 -51 l 5,2,-1
 419 626 l 1,3,-1
 448 623 l 1,0,-1
87 70.5 m 128,-1,5
 40 151 40 151 40 287 c 0,6,7
 40 427 40 427 87 506.5 c 128,-1,8
 134 586 134 586 224 586 c 0,9,10
 316 586 316 586 362 507 c 128,-1,11
 408 428 408 428 408 287 c 0,12,13
 408 150 408 150 361.5 70 c 128,-1,14
 315 -10 315 -10 224 -10 c 0,15,4
 134 -10 134 -10 87 70.5 c 128,-1,5
307 111 m 128,-1,17
 332 166 332 166 332 287 c 0,18,19
 332 409 332 409 307 464.5 c 128,-1,20
 282 520 282 520 224 520 c 256,21,22
 166 520 166 520 141 464.5 c 128,-1,23
 116 409 116 409 116 287 c 0,24,25
 116 166 116 166 141 111 c 128,-1,26
 166 56 166 56 224 56 c 256,27,16
 282 56 282 56 307 111 c 128,-1,17
EndSplineSet
Substitution2: "'sinf' Scientific Inferiors in Latin lookup 17 subtable" uni2080
Substitution2: "'zero' Slashed Zero in Latin lookup 14 subtable" zero.zero
Substitution2: "'dnom' Denominators in Latin lookup 11 subtable" zero.dnom
Substitution2: "'numr' Numerators in Latin lookup 10 subtable" zero.numr
Substitution2: "'sups' Superscript in Latin lookup 9 subtable" uni2070
Substitution2: "'subs' Subscript in Latin lookup 8 subtable" uni2080
AlternateSubs2: "'aalt' Access All Alternates in Latin lookup 1 subtable" uni2080 uni2070 zero.numr zero.dnom zero.zero
EndChar

StartChar: one
Encoding: 49 49 468
Width: 448
Flags: W
LayerCount: 2
UndoRedoHistory
Layer: 1
Undoes
EndUndoes
Redoes
RedoOperation
Index: 0
Type: 3
WasModified: 0
WasOrder2: 1
Layer: 2
EndRedoOperation
EndRedoes
EndUndoRedoHistory
Fore
SplineSet
272 0 m 1,0,-1
 200 0 l 1,1,-1
 200 477 l 1,2,-1
 137 424 l 1,3,-1
 91 477 l 5,4,-1
 221 580 l 1,5,-1
 272 580 l 1,6,-1
 272 0 l 1,0,-1
EndSplineSet
Substitution2: "'sinf' Scientific Inferiors in Latin lookup 17 subtable" uni2081
Substitution2: "'dnom' Denominators in Latin lookup 11 subtable" one.dnom
Substitution2: "'numr' Numerators in Latin lookup 10 subtable" one.numr
Substitution2: "'sups' Superscript in Latin lookup 9 subtable" uni00B9
Substitution2: "'subs' Subscript in Latin lookup 8 subtable" uni2081
AlternateSubs2: "'aalt' Access All Alternates in Latin lookup 1 subtable" uni2081 uni00B9 one.numr one.dnom
EndChar

StartChar: two
Encoding: 50 50 469
Width: 448
Flags: W
LayerCount: 2
UndoRedoHistory
Layer: 1
Undoes
EndUndoes
Redoes
RedoOperation
Index: 0
Type: 3
WasModified: 0
WasOrder2: 1
Layer: 2
EndRedoOperation
EndRedoes
EndUndoRedoHistory
Fore
SplineSet
68 560 m 1,0,1
 129 576 129 576 205 576 c 0,2,3
 293 576 293 576 344.5 536.5 c 128,-1,4
 396 497 396 497 396 408 c 0,5,6
 396 352 396 352 378 315.5 c 128,-1,7
 360 279 360 279 329 256.5 c 128,-1,8
 298 234 298 234 250 214 c 0,9,10
 184 187 184 187 160.5 159.5 c 128,-1,11
 137 132 137 132 135 85 c 2,12,-1
 134 64 l 1,13,-1
 388 64 l 1,14,-1
 388 0 l 1,15,-1
 57 0 l 1,16,-1
 61 82 l 2,17,18
 64 141 64 141 86 178 c 128,-1,19
 108 215 108 215 138 234 c 128,-1,20
 168 253 168 253 214 271 c 0,21,22
 273 294 273 294 296.5 322 c 128,-1,23
 320 350 320 350 320 402 c 0,24,25
 320 463 320 463 294 487.5 c 128,-1,26
 268 512 268 512 200 512 c 0,27,28
 147 512 147 512 82 498 c 1,29,-1
 68 560 l 1,0,1
EndSplineSet
Substitution2: "'sinf' Scientific Inferiors in Latin lookup 17 subtable" uni2082
Substitution2: "'dnom' Denominators in Latin lookup 11 subtable" two.dnom
Substitution2: "'numr' Numerators in Latin lookup 10 subtable" two.numr
Substitution2: "'sups' Superscript in Latin lookup 9 subtable" uni00B2
Substitution2: "'subs' Subscript in Latin lookup 8 subtable" uni2082
AlternateSubs2: "'aalt' Access All Alternates in Latin lookup 1 subtable" uni2082 uni00B2 two.numr two.dnom
EndChar

StartChar: three
Encoding: 51 51 470
Width: 448
InSpiro: 1
Flags: W
LayerCount: 2
UndoRedoHistory
Layer: 1
Undoes
EndUndoes
Redoes
RedoOperation
Index: 0
Type: 3
WasModified: 0
WasOrder2: 1
Layer: 2
EndRedoOperation
EndRedoes
EndUndoRedoHistory
Fore
SplineSet
391 164.44921875 m 0,1,2
 391 80.82421875 391 80.82421875 311 40.5234375 c 128,-1,3
 231 0.224609375 231 0.224609375 62 -11.8662109375 c 1,4,-1
 56 54.62890625 l 1,5,6
 166 65.7119140625 166 65.7119140625 222 80.3212890625 c 128,-1,7
 278 94.9296875 278 94.9296875 296.5 115.081054688 c 128,-1,8
 315 135.23046875 315 135.23046875 315 165.456054688 c 0,9,10
 315 194.674804688 315 194.674804688 298 213.313476562 c 128,-1,11
 281 231.952148438 281 231.952148438 239.5 244.04296875 c 128,-1,12
 198 256.1328125 198 256.1328125 122 265.201171875 c 1,13,-1
 129 328.673828125 l 1,14,15
 213 320.615234375 213 320.615234375 262 304.494140625 c 1,16,17
 300 373.004882812 300 373.004882812 300 432.44921875 c 0,18,19
 300 470.734375 300 470.734375 275 495.418945312 c 128,-1,20
 250 520.103515625 250 520.103515625 173 520.103515625 c 0,21,22
 143 520.103515625 143 520.103515625 96 513.05078125 c 1,23,-1
 87 573.500976562 l 1,24,25
 135 583.576171875 135 583.576171875 188 583.576171875 c 0,26,27
 374 583.576171875 374 583.576171875 374 440.508789062 c 0,28,29
 374 367.967773438 374 367.967773438 323 278.298828125 c 1,30,0
 391 239.004882812 391 239.004882812 391 164.44921875 c 0,1,2
  Spiro
    391 164.449 o
    371 91.6557 o
    311 40.5241 o
    208.75 7.27599 o
    62 -11.8669 v
    56 54.6294 v
    152.5 66.5937 o
    222 80.3211 o
    268.625 96.3155 o
    296.5 115.08 o
    310.375 137.75 o
    315 165.456 o
    310.75 192.03 o
    298 213.314 o
    274.875 230.315 o
    239.5 244.043 o
    189.375 255.377 o
    122 265.201 v
    129 328.674 v
    204.25 318.599 o
    262 304.494 v
    290.5 370.738 o
    300 432.449 o
    293.75 467.334 o
    275 495.419 o
    237 513.932 o
    173 520.103 o
    138.75 518.34 o
    96 513.05 v
    87 573.502 v
    136.25 581.058 o
    188 583.577 o
    327.5 547.81 o
    374 440.509 o
    361.25 363.686 o
    323 278.299 v
    374 230.19 o
    0 0 z
  EndSpiro
EndSplineSet
Substitution2: "'sinf' Scientific Inferiors in Latin lookup 17 subtable" uni2083
Substitution2: "'dnom' Denominators in Latin lookup 11 subtable" three.dnom
Substitution2: "'numr' Numerators in Latin lookup 10 subtable" three.numr
Substitution2: "'sups' Superscript in Latin lookup 9 subtable" uni00B3
Substitution2: "'subs' Subscript in Latin lookup 8 subtable" uni2083
AlternateSubs2: "'aalt' Access All Alternates in Latin lookup 1 subtable" uni2083 uni00B3 three.numr three.dnom
EndChar

StartChar: four
Encoding: 52 52 471
Width: 448
InSpiro: 1
Flags: W
LayerCount: 2
UndoRedoHistory
Layer: 1
Undoes
EndUndoes
Redoes
RedoOperation
Index: 0
Type: 3
WasModified: 0
WasOrder2: 1
Layer: 2
EndRedoOperation
EndRedoes
EndUndoRedoHistory
Fore
SplineSet
50 586 m 1,0,-1
 118 584 l 1,1,-1
 121 262 l 1,2,-1
 282 268 l 1,3,-1
 274 503 l 1,4,-1
 355 509 l 1,5,-1
 346 270 l 1,6,-1
 395 278 l 1,7,-1
 396 193 l 1,8,-1
 346 198 l 1,9,-1
 356 0 l 1,10,-1
 270 0 l 1,11,-1
 286 198 l 1,12,-1
 54 198 l 1,13,-1
 50 586 l 1,0,-1
  Spiro
    50 586 v
    118 584 v
    121 262 v
    282 268 v
    274 503 v
    355 509 v
    346 270 v
    395 278 v
    396 193 v
    346 198 v
    356 0 v
    270 0 v
    286 198 v
    54 198 v
    0 0 z
  EndSpiro
EndSplineSet
Substitution2: "'sinf' Scientific Inferiors in Latin lookup 17 subtable" uni2084
Substitution2: "'dnom' Denominators in Latin lookup 11 subtable" four.dnom
Substitution2: "'numr' Numerators in Latin lookup 10 subtable" four.numr
Substitution2: "'sups' Superscript in Latin lookup 9 subtable" uni2074
Substitution2: "'subs' Subscript in Latin lookup 8 subtable" uni2084
AlternateSubs2: "'aalt' Access All Alternates in Latin lookup 1 subtable" uni2084 uni2074 four.numr four.dnom
EndChar

StartChar: five
Encoding: 53 53 472
Width: 448
Flags: W
LayerCount: 2
UndoRedoHistory
Layer: 1
Undoes
EndUndoes
Redoes
RedoOperation
Index: 0
Type: 3
WasModified: 0
WasOrder2: 1
Layer: 2
EndRedoOperation
EndRedoes
EndUndoRedoHistory
Fore
SplineSet
351 287.5 m 128,-1,1
 396 250 396 250 396 168 c 0,2,3
 396 0 396 0 213 0 c 0,4,5
 138 0 138 0 53 22 c 1,6,-1
 68 84 l 1,7,8
 153 64 153 64 209 64 c 0,9,10
 268 64 268 64 294 87.5 c 128,-1,11
 320 111 320 111 320 164 c 0,12,13
 320 219 320 219 298 240 c 128,-1,14
 276 261 276 261 216 261 c 0,15,16
 170 261 170 261 92 248 c 1,17,-1
 68 271 l 1,18,-1
 81 576 l 1,19,-1
 374 576 l 1,20,-1
 374 512 l 1,21,-1
 151 512 l 1,22,-1
 142 316 l 1,23,24
 183 325 183 325 236 325 c 0,25,0
 306 325 306 325 351 287.5 c 128,-1,1
EndSplineSet
Substitution2: "'sinf' Scientific Inferiors in Latin lookup 17 subtable" uni2085
Substitution2: "'dnom' Denominators in Latin lookup 11 subtable" five.dnom
Substitution2: "'numr' Numerators in Latin lookup 10 subtable" five.numr
Substitution2: "'sups' Superscript in Latin lookup 9 subtable" uni2075
Substitution2: "'subs' Subscript in Latin lookup 8 subtable" uni2085
AlternateSubs2: "'aalt' Access All Alternates in Latin lookup 1 subtable" uni2085 uni2075 five.numr five.dnom
EndChar

StartChar: six
Encoding: 54 54 473
Width: 448
Flags: W
LayerCount: 2
UndoRedoHistory
Layer: 1
Undoes
EndUndoes
Redoes
RedoOperation
Index: 0
Type: 3
WasModified: 0
WasOrder2: 1
Layer: 2
EndRedoOperation
EndRedoes
EndUndoRedoHistory
Fore
SplineSet
351.5 286 m 128,-1,1
 395 244 395 244 395 162 c 0,2,3
 395 85 395 85 347.5 38.5 c 128,-1,4
 300 -8 300 -8 226 -8 c 0,5,6
 141 -8 141 -8 95.5 54.5 c 128,-1,7
 50 117 50 117 50 240 c 0,8,9
 50 369 50 369 117 468.5 c 128,-1,10
 184 568 184 568 356 583 c 1,11,-1
 364 519 l 1,12,13
 246 505 246 505 192.5 453 c 128,-1,14
 139 401 139 401 129 308 c 1,15,16
 179 328 179 328 235 328 c 0,17,0
 308 328 308 328 351.5 286 c 128,-1,1
300 86.5 m 128,-1,19
 321 117 321 117 321 161 c 0,20,21
 321 209 321 209 300.5 237.5 c 128,-1,22
 280 266 280 266 227 266 c 0,23,24
 177 266 177 266 125 246 c 1,25,-1
 125 239 l 2,26,27
 125 153 125 153 148 104.5 c 128,-1,28
 171 56 171 56 226 56 c 0,29,18
 279 56 279 56 300 86.5 c 128,-1,19
EndSplineSet
Substitution2: "'sinf' Scientific Inferiors in Latin lookup 17 subtable" uni2086
Substitution2: "'dnom' Denominators in Latin lookup 11 subtable" six.dnom
Substitution2: "'numr' Numerators in Latin lookup 10 subtable" six.numr
Substitution2: "'sups' Superscript in Latin lookup 9 subtable" uni2076
Substitution2: "'subs' Subscript in Latin lookup 8 subtable" uni2086
AlternateSubs2: "'aalt' Access All Alternates in Latin lookup 1 subtable" uni2086 uni2076 six.numr six.dnom
EndChar

StartChar: seven
Encoding: 55 55 474
Width: 448
Flags: W
LayerCount: 2
UndoRedoHistory
Layer: 1
Undoes
EndUndoes
Redoes
RedoOperation
Index: 0
Type: 1
WasModified: 1
WasOrder2: 1
Layer: 2
Width: 448
VWidth: 1024
LBearingChange: 0
UnicodeEnc: 0
InstructionsLength: 0
SplineSet
418 262 m 1,0,-1
 124 261 l 1,1,-1
 124 306 l 5,2,-1
 418 306 l 5,3,-1
 418 262 l 1,0,-1
354.228515625 312 m 1,4,5
 313 200 313 200 311 195.5 c 0,6,7
 269 100 269 100 167 -16 c 1,8,-1
 112 29 l 1,9,10
 223 170 223 170 247 226 c 0,11,-1
 270 316 l 1,12,13
 305 437 305 437 309 478 c 2,14,-1
 312 512 l 1,15,-1
 64 512 l 1,16,-1
 64 576 l 1,17,-1
 388 576 l 1,18,-1
 388 538 l 1,19,-1
 380 460 l 2,20,21
 376 421 376 421 354.228515625 312 c 1,4,5
EndSplineSet
EndRedoOperation
EndRedoes
EndUndoRedoHistory
Fore
SplineSet
418 262 m 1,0,-1
 124 261 l 1,1,-1
 124 307 l 5,2,-1
 418 307 l 5,3,-1
 418 262 l 1,0,-1
354.228515625 312 m 1,4,5
 313 200 313 200 311 195.5 c 0,6,7
 269 100 269 100 167 -16 c 1,8,-1
 112 29 l 1,9,10
 223 170 223 170 247 226 c 0,11,-1
 270 316 l 1,12,13
 305 437 305 437 309 478 c 2,14,-1
 312 512 l 1,15,-1
 64 512 l 1,16,-1
 64 576 l 1,17,-1
 388 576 l 1,18,-1
 388 538 l 1,19,-1
 380 460 l 2,20,21
 376 421 376 421 354.228515625 312 c 1,4,5
EndSplineSet
Substitution2: "'sinf' Scientific Inferiors in Latin lookup 17 subtable" uni2087
Substitution2: "'dnom' Denominators in Latin lookup 11 subtable" seven.dnom
Substitution2: "'numr' Numerators in Latin lookup 10 subtable" seven.numr
Substitution2: "'sups' Superscript in Latin lookup 9 subtable" uni2077
Substitution2: "'subs' Subscript in Latin lookup 8 subtable" uni2087
AlternateSubs2: "'aalt' Access All Alternates in Latin lookup 1 subtable" uni2087 uni2077 seven.numr seven.dnom
EndChar

StartChar: eight
Encoding: 56 56 475
Width: 448
Flags: W
LayerCount: 2
UndoRedoHistory
Layer: 1
Undoes
EndUndoes
Redoes
RedoOperation
Index: 0
Type: 3
WasModified: 0
WasOrder2: 1
Layer: 2
EndRedoOperation
EndRedoes
EndUndoRedoHistory
Fore
SplineSet
390 215 m 128,-1,1
 415 183 415 183 415 137 c 0,2,3
 415 98 415 98 392 64 c 128,-1,4
 369 30 369 30 326 9.5 c 128,-1,5
 283 -11 283 -11 224 -11 c 0,6,7
 134 -11 134 -11 83 35 c 128,-1,8
 32 81 32 81 32 152 c 0,9,10
 32 201 32 201 57.5 240 c 128,-1,11
 83 279 83 279 126 307 c 1,12,13
 89 337 89 337 73.5 368 c 128,-1,14
 58 399 58 399 58 435 c 0,15,16
 58 478 58 478 79.5 512.5 c 128,-1,17
 101 547 101 547 139 566.5 c 128,-1,18
 177 586 177 586 224 586 c 0,19,20
 297 586 297 586 343.5 542.5 c 128,-1,21
 390 499 390 499 390 427 c 0,22,23
 390 388 390 388 371 348 c 128,-1,24
 352 308 352 308 312 276 c 1,25,0
 365 247 365 247 390 215 c 128,-1,1
154 496.5 m 128,-1,27
 132 471 132 471 132 434 c 0,28,29
 132 409 132 409 141 390.5 c 128,-1,30
 150 372 150 372 177 351 c 128,-1,31
 204 330 204 330 257 305 c 1,32,33
 289 333 289 333 302.5 363.5 c 128,-1,34
 316 394 316 394 316 429 c 0,35,36
 316 469 316 469 293.5 495.5 c 128,-1,37
 271 522 271 522 224 522 c 0,38,26
 176 522 176 522 154 496.5 c 128,-1,27
311.5 79 m 128,-1,40
 341 105 341 105 341 137 c 0,41,42
 341 158 341 158 331 174.5 c 128,-1,43
 321 191 321 191 293 210.5 c 128,-1,44
 265 230 265 230 211 256 c 2,45,-1
 177 274 l 1,46,47
 136 248 136 248 121 218 c 128,-1,48
 106 188 106 188 106 152 c 0,49,50
 106 110 106 110 135 81.5 c 128,-1,51
 164 53 164 53 224 53 c 0,52,39
 282 53 282 53 311.5 79 c 128,-1,40
EndSplineSet
Substitution2: "'sinf' Scientific Inferiors in Latin lookup 17 subtable" uni2088
Substitution2: "'dnom' Denominators in Latin lookup 11 subtable" eight.dnom
Substitution2: "'numr' Numerators in Latin lookup 10 subtable" eight.numr
Substitution2: "'sups' Superscript in Latin lookup 9 subtable" uni2078
Substitution2: "'subs' Subscript in Latin lookup 8 subtable" uni2088
AlternateSubs2: "'aalt' Access All Alternates in Latin lookup 1 subtable" uni2088 uni2078 eight.numr eight.dnom
EndChar

StartChar: nine
Encoding: 57 57 476
Width: 448
Flags: W
LayerCount: 2
UndoRedoHistory
Layer: 1
Undoes
EndUndoes
Redoes
RedoOperation
Index: 0
Type: 3
WasModified: 0
WasOrder2: 1
Layer: 2
EndRedoOperation
EndRedoes
EndUndoRedoHistory
Fore
SplineSet
337.5 521.5 m 128,-1,1
 387 458 387 458 387 338 c 0,2,3
 387 211 387 211 330.5 125 c 128,-1,4
 274 39 274 39 128 -10 c 1,5,-1
 104 51 l 1,6,7
 204 87 204 87 249.5 136.5 c 128,-1,8
 295 186 295 186 306 264 c 1,9,10
 258 239 258 239 206 239 c 0,11,12
 124 239 124 239 82.5 287 c 128,-1,13
 41 335 41 335 41 411 c 0,14,15
 41 462 41 462 62.5 501.5 c 128,-1,16
 84 541 84 541 121.5 563 c 128,-1,17
 159 585 159 585 206 585 c 0,18,0
 288 585 288 585 337.5 521.5 c 128,-1,1
311 331 m 1,20,-1
 311 340 l 2,21,22
 311 428 311 428 287 474.5 c 128,-1,23
 263 521 263 521 205 521 c 0,24,25
 156 521 156 521 134 490.5 c 128,-1,26
 112 460 112 460 112 412 c 0,27,28
 112 365 112 365 134 333 c 128,-1,29
 156 301 156 301 210 301 c 0,30,19
 261 301 261 301 311 331 c 1,20,-1
EndSplineSet
Substitution2: "'sinf' Scientific Inferiors in Latin lookup 17 subtable" uni2089
Substitution2: "'dnom' Denominators in Latin lookup 11 subtable" nine.dnom
Substitution2: "'numr' Numerators in Latin lookup 10 subtable" nine.numr
Substitution2: "'sups' Superscript in Latin lookup 9 subtable" uni2079
Substitution2: "'subs' Subscript in Latin lookup 8 subtable" uni2089
AlternateSubs2: "'aalt' Access All Alternates in Latin lookup 1 subtable" uni2089 uni2079 nine.numr nine.dnom
EndChar

StartChar: zero.zero
Encoding: 1114140 -1 477
Width: 448
Flags: W
LayerCount: 2
UndoRedoHistory
Layer: 1
Undoes
EndUndoes
Redoes
RedoOperation
Index: 0
Type: 3
WasModified: 0
WasOrder2: 1
Layer: 2
EndRedoOperation
EndRedoes
EndUndoRedoHistory
Fore
SplineSet
87 70.5 m 128,-1,1
 40 151 40 151 40 287 c 0,2,3
 40 427 40 427 87 506.5 c 128,-1,4
 134 586 134 586 224 586 c 0,5,6
 316 586 316 586 362 507 c 128,-1,7
 408 428 408 428 408 287 c 0,8,9
 408 150 408 150 361.5 70 c 128,-1,10
 315 -10 315 -10 224 -10 c 0,11,0
 134 -10 134 -10 87 70.5 c 128,-1,1
308 111.5 m 128,-1,13
 334 167 334 167 334 287 c 0,14,15
 334 409 334 409 308 464.5 c 128,-1,16
 282 520 282 520 224 520 c 256,17,18
 166 520 166 520 140 464.5 c 128,-1,19
 114 409 114 409 114 287 c 0,20,21
 114 167 114 167 140 111.5 c 128,-1,22
 166 56 166 56 224 56 c 256,23,12
 282 56 282 56 308 111.5 c 128,-1,13
EndSplineSet
EndChar

StartChar: uni2070
Encoding: 8304 8304 508
Width: 448
Flags: W
LayerCount: 2
UndoRedoHistory
Layer: 1
Undoes
EndUndoes
Redoes
RedoOperation
Index: 0
Type: 3
WasModified: 0
WasOrder2: 1
Layer: 2
EndRedoOperation
EndRedoes
EndUndoRedoHistory
Fore
SplineSet
243.5 607 m 128,-1,1
 274 567 274 567 274 480 c 0,2,3
 274 313 274 313 160 313 c 0,4,5
 107 313 107 313 76.5 353 c 128,-1,6
 46 393 46 393 46 480 c 256,7,8
 46 567 46 567 76.5 607 c 128,-1,9
 107 647 107 647 160 647 c 256,10,0
 213 647 213 647 243.5 607 c 128,-1,1
197.5 396 m 128,-1,12
 209 424 209 424 209 480 c 0,13,14
 209 537 209 537 197.5 564.5 c 128,-1,15
 186 592 186 592 160 592 c 256,16,17
 134 592 134 592 122.5 564 c 128,-1,18
 111 536 111 536 111 480 c 256,19,20
 111 424 111 424 122.5 396 c 128,-1,21
 134 368 134 368 160 368 c 256,22,11
 186 368 186 368 197.5 396 c 128,-1,12
EndSplineSet
EndChar

StartChar: uni00B9
Encoding: 185 185 509
Width: 448
Flags: W
LayerCount: 2
UndoRedoHistory
Layer: 1
Undoes
EndUndoes
Redoes
RedoOperation
Index: 0
Type: 3
WasModified: 0
WasOrder2: 1
Layer: 2
EndRedoOperation
EndRedoes
EndUndoRedoHistory
Fore
SplineSet
193 640 m 1,0,-1
 192 374 l 1,1,-1
 266 374 l 1,2,-1
 266 320 l 1,3,-1
 49 320 l 1,4,-1
 49 374 l 1,5,-1
 127 374 l 1,6,-1
 128 554 l 1,7,-1
 75 509 l 1,8,-1
 41 551 l 1,9,-1
 146 640 l 1,10,-1
 193 640 l 1,0,-1
EndSplineSet
EndChar

StartChar: uni00B2
Encoding: 178 178 510
Width: 448
Flags: W
LayerCount: 2
UndoRedoHistory
Layer: 1
Undoes
EndUndoes
Redoes
RedoOperation
Index: 0
Type: 3
WasModified: 0
WasOrder2: 1
Layer: 2
EndRedoOperation
EndRedoes
EndUndoRedoHistory
Fore
SplineSet
259 374 m 1,0,-1
 259 320 l 1,1,-1
 59 320 l 1,2,-1
 58 344 l 2,3,4
 58 359 58 359 60 375 c 0,5,6
 65 416 65 416 87 440 c 128,-1,7
 109 464 109 464 149 486 c 0,8,9
 171 498 171 498 181 511 c 128,-1,10
 191 524 191 524 191 544 c 0,11,12
 191 565 191 565 180 575.5 c 128,-1,13
 169 586 169 586 139 586 c 0,14,15
 113 586 113 586 73 579 c 1,16,-1
 65 631 l 1,17,18
 106 640 106 640 145 640 c 0,19,20
 203 640 203 640 230 615.5 c 128,-1,21
 257 591 257 591 257 547 c 0,22,23
 257 485 257 485 192 446 c 0,24,25
 155 423 155 423 140 410 c 128,-1,26
 125 397 125 397 125 374 c 1,27,-1
 259 374 l 1,0,-1
EndSplineSet
EndChar

StartChar: uni00B3
Encoding: 179 179 511
Width: 448
Flags: W
LayerCount: 2
UndoRedoHistory
Layer: 1
Undoes
EndUndoes
Redoes
RedoOperation
Index: 0
Type: 3
WasModified: 0
WasOrder2: 1
Layer: 2
EndRedoOperation
EndRedoes
EndUndoRedoHistory
Fore
SplineSet
64 640 m 1,0,-1
 192 640 l 1,1,-1
 192 576 l 1,2,-1
 64 576 l 1,3,-1
 64 640 l 1,0,-1
192 576 m 1,4,-1
 256 576 l 1,5,-1
 256 512 l 1,6,-1
 192 512 l 1,7,-1
 192 576 l 1,4,-1
128 448 m 1,8,-1
 128 512 l 1,9,-1
 192 512 l 1,10,-1
 192 448 l 1,11,-1
 128 448 l 1,8,-1
256 448 m 1,12,-1
 256 384 l 1,13,-1
 192 384 l 1,14,-1
 192 448 l 1,15,-1
 256 448 l 1,12,-1
64 320 m 1,16,-1
 64 384 l 1,17,-1
 192 384 l 1,18,-1
 192 320 l 1,19,-1
 64 320 l 1,16,-1
EndSplineSet
EndChar

StartChar: uni2074
Encoding: 8308 8308 512
Width: 448
Flags: W
LayerCount: 2
UndoRedoHistory
Layer: 1
Undoes
EndUndoes
Redoes
RedoOperation
Index: 0
Type: 3
WasModified: 0
WasOrder2: 1
Layer: 2
EndRedoOperation
EndRedoes
EndUndoRedoHistory
Fore
SplineSet
256 464 m 1,0,-1
 286 464 l 1,1,-1
 286 410 l 1,2,-1
 256 410 l 1,3,-1
 256 320 l 1,4,-1
 192 320 l 1,5,-1
 192 410 l 1,6,-1
 56 410 l 1,7,8
 56 472 56 472 66 536 c 128,-1,9
 76 600 76 600 93 650 c 1,10,-1
 150 632 l 1,11,12
 128 561 128 561 122 464 c 1,13,-1
 192 464 l 1,14,-1
 192 620 l 1,15,-1
 256 620 l 1,16,-1
 256 464 l 1,0,-1
EndSplineSet
EndChar

StartChar: uni2075
Encoding: 8309 8309 513
Width: 448
Flags: W
LayerCount: 2
UndoRedoHistory
Layer: 1
Undoes
EndUndoes
Redoes
RedoOperation
Index: 0
Type: 3
WasModified: 0
WasOrder2: 1
Layer: 2
EndRedoOperation
EndRedoes
EndUndoRedoHistory
Fore
SplineSet
256 576 m 1,0,-1
 128 576 l 1,1,-1
 128 512 l 1,2,-1
 192 512 l 1,3,-1
 192 448 l 1,4,-1
 64 448 l 1,5,-1
 64 640 l 1,6,-1
 256 640 l 1,7,-1
 256 576 l 1,0,-1
256 448 m 1,8,-1
 256 384 l 1,9,-1
 192 384 l 1,10,-1
 192 448 l 1,11,-1
 256 448 l 1,8,-1
64 320 m 1,12,-1
 64 384 l 1,13,-1
 192 384 l 1,14,-1
 192 320 l 1,15,-1
 64 320 l 1,12,-1
EndSplineSet
EndChar

StartChar: uni2076
Encoding: 8310 8310 514
Width: 448
Flags: W
LayerCount: 2
UndoRedoHistory
Layer: 1
Undoes
EndUndoes
Redoes
RedoOperation
Index: 0
Type: 3
WasModified: 0
WasOrder2: 1
Layer: 2
EndRedoOperation
EndRedoes
EndUndoRedoHistory
Fore
SplineSet
256 640 m 1,0,-1
 256 576 l 1,1,-1
 128 576 l 1,2,-1
 128 640 l 1,3,-1
 256 640 l 1,0,-1
64 576 m 1,4,-1
 128 576 l 1,5,-1
 128 512 l 1,6,-1
 256 512 l 1,7,-1
 256 320 l 1,8,-1
 64 320 l 1,9,-1
 64 576 l 1,4,-1
192 384 m 1,10,-1
 192 448 l 1,11,-1
 128 448 l 1,12,-1
 128 384 l 1,13,-1
 192 384 l 1,10,-1
EndSplineSet
EndChar

StartChar: uni2077
Encoding: 8311 8311 515
Width: 448
Flags: W
LayerCount: 2
UndoRedoHistory
Layer: 1
Undoes
EndUndoes
Redoes
RedoOperation
Index: 0
Type: 3
WasModified: 0
WasOrder2: 1
Layer: 2
EndRedoOperation
EndRedoes
EndUndoRedoHistory
Fore
SplineSet
64 640 m 1,0,-1
 256 640 l 1,1,-1
 256 625 l 2,2,3
 256 509 256 509 218.5 438 c 128,-1,4
 181 367 181 367 103 314 c 1,5,-1
 69 362 l 1,6,7
 130 405 130 405 158.5 456.5 c 128,-1,8
 187 508 187 508 190 586 c 1,9,-1
 64 586 l 1,10,-1
 64 640 l 1,0,-1
EndSplineSet
EndChar

StartChar: uni2078
Encoding: 8312 8312 516
Width: 448
Flags: W
LayerCount: 2
UndoRedoHistory
Layer: 1
Undoes
EndUndoes
Redoes
RedoOperation
Index: 0
Type: 3
WasModified: 0
WasOrder2: 1
Layer: 2
EndRedoOperation
EndRedoes
EndUndoRedoHistory
Fore
SplineSet
272 400 m 0,1,2
 272 361 272 361 242.5 337.5 c 128,-1,3
 213 314 213 314 160 314 c 0,4,5
 108 314 108 314 78 337.5 c 128,-1,6
 48 361 48 361 48 400 c 0,7,8
 48 420 48 420 59.5 441.5 c 128,-1,9
 71 463 71 463 94 481 c 1,10,11
 60 509 60 509 60 556 c 0,12,13
 60 595 60 595 87 620.5 c 128,-1,14
 114 646 114 646 160 646 c 0,15,16
 207 646 207 646 235.5 621.5 c 128,-1,17
 264 597 264 597 264 560 c 0,18,19
 264 537 264 537 254 518 c 128,-1,20
 244 499 244 499 226 479 c 1,21,0
 272 449 272 449 272 400 c 0,1,2
131.5 581 m 128,-1,23
 124 569 124 569 124 556 c 0,24,25
 124 539 124 539 135 527.5 c 128,-1,26
 146 516 146 516 176 504 c 2,27,-1
 180 502 l 1,28,29
 198 527 198 527 198 554 c 0,30,31
 198 569 198 569 189.5 581 c 128,-1,32
 181 593 181 593 160 593 c 256,33,22
 139 593 139 593 131.5 581 c 128,-1,23
195.5 378 m 128,-1,35
 206 389 206 389 206 403 c 0,36,37
 206 419 206 419 193.5 431 c 128,-1,38
 181 443 181 443 145 456 c 2,39,-1
 138 459 l 1,40,41
 114 432 114 432 114 405 c 0,42,43
 114 367 114 367 160 367 c 0,44,34
 185 367 185 367 195.5 378 c 128,-1,35
EndSplineSet
EndChar

StartChar: uni2079
Encoding: 8313 8313 517
Width: 448
Flags: W
CounterMasks: 1 e0
LayerCount: 2
UndoRedoHistory
Layer: 1
Undoes
EndUndoes
Redoes
RedoOperation
Index: 0
Type: 3
WasModified: 0
WasOrder2: 1
Layer: 2
EndRedoOperation
EndRedoes
EndUndoRedoHistory
Fore
SplineSet
256 640 m 1,0,-1
 256 384 l 1,1,-1
 192 384 l 1,2,-1
 192 448 l 1,3,-1
 64 448 l 1,4,-1
 64 640 l 1,5,-1
 256 640 l 1,0,-1
128 512 m 1,6,-1
 192 512 l 1,7,-1
 192 576 l 1,8,-1
 128 576 l 1,9,-1
 128 512 l 1,6,-1
64 320 m 1,10,-1
 64 384 l 1,11,-1
 192 384 l 1,12,-1
 192 320 l 1,13,-1
 64 320 l 1,10,-1
EndSplineSet
EndChar

StartChar: fraction.alt
Encoding: 1114161 -1 518
Width: 448
Flags: W
LayerCount: 2
UndoRedoHistory
Layer: 1
Undoes
EndUndoes
Redoes
RedoOperation
Index: 0
Type: 3
WasModified: 0
WasOrder2: 1
Layer: 2
EndRedoOperation
EndRedoes
EndUndoRedoHistory
Fore
SplineSet
49 171 m 1,0,-1
 41 226 l 1,1,-1
 398 277 l 1,2,-1
 406 222 l 1,3,-1
 49 171 l 1,0,-1
EndSplineSet
EndChar

StartChar: period
Encoding: 46 46 539
Width: 448
Flags: W
LayerCount: 2
UndoRedoHistory
Layer: 1
Undoes
EndUndoes
Redoes
RedoOperation
Index: 0
Type: 3
WasModified: 0
WasOrder2: 1
Layer: 2
EndRedoOperation
EndRedoes
EndUndoRedoHistory
Fore
SplineSet
237.5 101 m 128,-1,1
 256 84 256 84 256 54 c 256,2,3
 256 24 256 24 238 7 c 128,-1,4
 220 -10 220 -10 192 -10 c 256,5,6
 164 -10 164 -10 146 7 c 128,-1,7
 128 24 128 24 128 54 c 256,8,9
 128 84 128 84 146.5 101 c 128,-1,10
 165 118 165 118 192 118 c 256,11,0
 219 118 219 118 237.5 101 c 128,-1,1
EndSplineSet
EndChar

